<?xml version="1.0" standalone="no"?>
<!DOCTYPE svg PUBLIC "-//W3C//DTD SVG 1.1//EN" "http://www.w3.org/Graphics/SVG/1.1/DTD/svg11.dtd" >
<svg xmlns="http://www.w3.org/2000/svg" xmlns:xlink="http://www.w3.org/1999/xlink" version="1.1">
<metadata>
Created by FontForge 20190801 at Tue Jan 31 10:40:52 2017
 By root
Copyright 2012 The Encode Project Authors (impallari@gmail.com), with Reserved Font Name "Encode Sans".
</metadata>
<defs>
<font id="EncodeSansExpanded-Regular" horiz-adv-x="1261" >
  <font-face 
    font-family="Encode Sans Expanded"
    font-weight="400"
    font-stretch="expanded"
    units-per-em="2000"
    panose-1="0 0 5 5 0 0 0 0 0 0"
    ascent="1600"
    descent="-400"
    x-height="1085"
    cap-height="1480"
    bbox="-1039 -466 2912 2146"
    underline-thickness="50"
    underline-position="-150"
    unicode-range="U+000D-FB02"
  />
<missing-glyph horiz-adv-x="1028" 
d="M843 1616v-2056h-652v2056h652zM685 1478h-340v-68h134v-76h-136v-68h342v68h-136v76h136v68zM549 1213h-206v-214h342v70h-136v144zM479 1143v-74h-68v74h68zM685 944h-342v-68h136v-76h-136v-68h206v144h136v68zM685 820h-68v-135h-274v-70h342v205zM685 569h-206v-115
h70v48h68v-97h-206v164h-68v-232h342v232zM685 214h-342v-233h342v233zM617 146v-97h-206v97h206zM685 -66h-342v-68h144l-144 -96v-68h342v68h-210l144 96h66v68z" />
    <glyph glyph-name="fi" unicode="fi" horiz-adv-x="1345" 
d="M367 1525.5q113 110.5 328 110.5q86 0 165 -15v-139q-73 15 -147 15q-150 0 -220.5 -66.5t-70.5 -218.5v-127h400v-139h-400v-946h-168v946h-225v139h225v117q0 213 113 323.5zM1171 1495.5q30 -26.5 30 -74.5t-30 -74t-86 -26t-86 26t-30 74t30 74.5t86 26.5t86 -26.5z
M1001 0v1085h168v-1085h-168z" />
    <glyph glyph-name="fl" unicode="fl" horiz-adv-x="1345" 
d="M367 1525.5q113 110.5 328 110.5q86 0 165 -15v-139q-73 15 -147 15q-150 0 -220.5 -66.5t-70.5 -218.5v-127h400v-139h-400v-946h-168v946h-225v139h225v117q0 213 113 323.5zM1001 1616h168v-1616h-168v1616z" />
    <glyph glyph-name="f_j" unicode="fj" horiz-adv-x="1345" 
d="M422 946v-946h-168v946h-225v139h225v117q0 213 113 323.5t328 110.5q86 0 165 -15v-139q-73 15 -147 15q-150 0 -220.5 -66.5t-70.5 -218.5v-127h400v-139h-400zM1168 1504.5q30 -26.5 30 -74.5t-30 -74t-86 -26t-86 26t-30 74t30 74.5t86 26.5t86 -26.5zM1001 1085h168
v-908q0 -188 -60.5 -340t-194.5 -301l-109 75q103 124 149.5 257.5t46.5 301.5v915z" />
    <glyph glyph-name=".notdef" horiz-adv-x="1028" 
d="M843 1616v-2056h-652v2056h652zM685 1478h-340v-68h134v-76h-136v-68h342v68h-136v76h136v68zM549 1213h-206v-214h342v70h-136v144zM479 1143v-74h-68v74h68zM685 944h-342v-68h136v-76h-136v-68h206v144h136v68zM685 820h-68v-135h-274v-70h342v205zM685 569h-206v-115
h70v48h68v-97h-206v164h-68v-232h342v232zM685 214h-342v-233h342v233zM617 146v-97h-206v97h206zM685 -66h-342v-68h144l-144 -96v-68h342v68h-210l144 96h66v68z" />
    <glyph glyph-name=".null" horiz-adv-x="0" 
 />
    <glyph glyph-name="nonmarkingreturn" unicode="&#xd;" horiz-adv-x="557" 
 />
    <glyph glyph-name="NULL" horiz-adv-x="0" 
 />
    <glyph glyph-name="NULL" horiz-adv-x="0" 
 />
    <glyph glyph-name="space" unicode=" " horiz-adv-x="557" 
 />
    <glyph glyph-name="exclam" unicode="!" horiz-adv-x="554" 
d="M225 371l-37 546v563h177v-563l-34 -546h-106zM189.5 15.5q-32.5 28.5 -32.5 77.5q0 50 32.5 79t87.5 29t87 -29.5t32 -78.5q0 -48 -32 -77t-87 -29t-87.5 28.5z" />
    <glyph glyph-name="quotedbl" unicode="&#x22;" horiz-adv-x="837" 
d="M183 913l-35 703h171l-36 -703h-100zM554 913l-35 703h171l-36 -703h-100z" />
    <glyph glyph-name="numbersign" unicode="#" 
d="M1151 893h-222l-38 -306h260v-137h-277l-56 -450h-138l56 450h-283l-56 -450h-139l56 450h-204v137h221l38 306h-259v137h276l56 450h139l-56 -450h283l56 450h138l-56 -450h205v-137zM753 587l38 306h-283l-38 -306h283z" />
    <glyph glyph-name="dollar" unicode="$" horiz-adv-x="1211" 
d="M1006 125.5q-112 -106.5 -321 -135.5v-230h-159v221q-103 1 -208.5 17t-201.5 47v144q102 -34 213 -50.5t207 -16.5q210 0 310.5 69.5t100.5 205.5q0 76 -33 125.5t-104.5 82t-194.5 56.5l-90 17q-225 44 -329 142.5t-104 262.5q0 169 110 274.5t324 132.5v230h159v-221
q196 -1 365 -51v-144q-89 26 -184.5 40t-188.5 14q-210 0 -311.5 -69t-101.5 -199q0 -75 29 -125t95 -83t179 -56l90 -17q165 -32 266.5 -86t148 -132t46.5 -186q0 -173 -112 -279.5z" />
    <glyph glyph-name="percent" unicode="%" horiz-adv-x="2021" 
d="M300 624.5q-83 49.5 -129.5 152.5t-46.5 259q0 233 99.5 348t269.5 115q171 0 270 -115t99 -348q0 -156 -46.5 -259t-129.5 -152.5t-193 -49.5t-193 49.5zM559 0l752 1480h151l-752 -1480h-151zM723 1035q0 182 -61 264.5t-169 82.5q-229 0 -229 -344q0 -181 60.5 -264
t168.5 -83q230 0 230 344zM1334.5 31.5q-82.5 49.5 -129 153t-46.5 259.5q0 232 99 347t269 115q171 0 270 -115t99 -347q0 -156 -46.5 -259.5t-129 -153t-193.5 -49.5q-110 0 -192.5 49.5zM1757 442q0 182 -61 264.5t-169 82.5q-107 0 -168 -82t-61 -262t61 -263t168 -83
q230 0 230 343z" />
    <glyph glyph-name="ampersand" unicode="&#x26;" horiz-adv-x="1677" 
d="M1605 -20l-300 199q-81 -97 -216.5 -147t-321.5 -50q-205 0 -341.5 53t-202.5 147t-66 220q0 136 72.5 238.5t205.5 160.5q-56 65 -79.5 130t-23.5 142q0 204 144 315t432 111q158 0 289 -32v-144q-132 35 -282 35q-217 0 -314 -74t-97 -216q0 -67 23 -120.5t83 -111.5
t174 -138l475 -316q18 63 18 142q0 129 -49 273h143q45 -132 45 -273q0 -122 -38 -221l299 -199zM1192 254l-481 320q-107 69 -189 140q-98 -50 -146 -123.5t-48 -172.5q0 -143 110 -226t344 -83q289 0 410 145z" />
    <glyph glyph-name="quotesingle" unicode="'" horiz-adv-x="466" 
d="M183 913l-35 703h171l-36 -703h-100z" />
    <glyph glyph-name="parenleft" unicode="(" horiz-adv-x="738" 
d="M239.5 28.5q-95.5 260.5 -95.5 559.5t95.5 559.5t295.5 468.5h192q-217 -228 -314 -480t-97 -548t97 -548t314 -480h-192q-200 208 -295.5 468.5z" />
    <glyph glyph-name="parenright" unicode=")" horiz-adv-x="738" 
d="M325 40q97 252 97 548t-97 548t-314 480h192q200 -208 295.5 -468.5t95.5 -559.5t-95.5 -559.5t-295.5 -468.5h-192q217 228 314 480z" />
    <glyph glyph-name="asterisk" unicode="*" horiz-adv-x="961" 
d="M544 1178l132 -146l108 -146l-97 -70l-108 146l-99 177l-99 -177l-107 -146l-97 70l107 146l132 146l-190 39l-196 63l37 113l195 -63l181 -82l-23 197v171h120v-171l-23 -197l181 82l195 63l38 -113l-197 -63z" />
    <glyph glyph-name="plus" unicode="+" horiz-adv-x="1130" 
d="M495 351v342h-324v134h324v342h140v-342h324v-134h-324v-342h-140z" />
    <glyph glyph-name="comma" unicode="," horiz-adv-x="514" 
d="M375 64q0 -101 -27.5 -198.5t-75.5 -180.5h-98q35 90 53.5 161.5t22.5 140.5q-52 2 -82.5 33t-30.5 80q0 51 31.5 81t85.5 30q121 0 121 -147z" />
    <glyph glyph-name="hyphen" unicode="-" horiz-adv-x="978" 
d="M171 492v141h636v-141h-636z" />
    <glyph glyph-name="period" unicode="." horiz-adv-x="514" 
d="M169.5 17q-32.5 30 -32.5 81q0 52 32.5 82.5t87.5 30.5t87 -31t32 -82q0 -50 -32 -80.5t-87 -30.5t-87.5 30z" />
    <glyph glyph-name="slash" unicode="/" horiz-adv-x="728" 
d="M0 -240l559 1856h169l-559 -1856h-169z" />
    <glyph glyph-name="zero" unicode="0" horiz-adv-x="1414" 
d="M284.5 164q-150.5 183 -150.5 576q0 394 149.5 576.5t423.5 182.5t423.5 -182.5t149.5 -576.5q0 -393 -150.5 -576t-422.5 -183t-422.5 183zM923.5 183q88.5 57 137 192t48.5 362q0 230 -48.5 366t-137 193.5t-216.5 57.5t-216.5 -57t-137 -192t-48.5 -362
q0 -230 48.5 -366t137 -193.5t216.5 -57.5t216.5 57z" />
    <glyph glyph-name="one" unicode="1" horiz-adv-x="864" 
d="M545 1485h115v-1485h-171v1271l-457 -324v171z" />
    <glyph glyph-name="two" unicode="2" horiz-adv-x="1122" 
d="M1049 141v-141h-976v91l481 547q127 145 178 244t51 195q0 144 -86 212.5t-265 68.5q-204 0 -377 -63v144q78 27 179.5 43.5t206.5 16.5q255 0 383.5 -100.5t128.5 -305.5q0 -86 -25 -164t-82 -164t-157 -198l-378 -426h738z" />
    <glyph glyph-name="three" unicode="3" horiz-adv-x="1133" 
d="M971 647q85 -92 85 -238q0 -204 -145.5 -316t-443.5 -112q-104 0 -209 16t-197 46v134q99 -30 202.5 -46.5t199.5 -16.5q430 0 430 304q0 275 -383 275h-229v133h122q434 0 434 281q0 123 -91.5 191t-264.5 68q-193 0 -373 -57v134q87 27 187 41.5t199 14.5
q163 0 277.5 -45.5t173 -131t58.5 -204.5q0 -128 -73.5 -217.5t-203.5 -129.5q160 -32 245 -124z" />
    <glyph glyph-name="four" unicode="4" horiz-adv-x="1320" 
d="M1275 490v-138h-230v-352h-158v352h-835v93l649 1035h173l-621 -990h634l20 490h138v-490h230z" />
    <glyph glyph-name="five" unicode="5" horiz-adv-x="1150" 
d="M805.5 791.5q146.5 -51.5 212.5 -141.5t65 -226q0 -216 -148.5 -329.5t-440.5 -113.5q-102 0 -207 17t-199 47v134q97 -30 200.5 -46.5t201.5 -16.5q217 0 323.5 76.5t106.5 230.5q0 97 -50.5 158.5t-170 96.5t-328.5 47l-219 12l54 743h814v-133h-662l-34 -486l93 -5
q242 -13 388.5 -64.5z" />
    <glyph glyph-name="six" unicode="6" horiz-adv-x="1294" 
d="M1085.5 741.5q134.5 -109.5 134.5 -325.5q0 -138 -61.5 -236t-174 -148.5t-263.5 -50.5q-277 0 -428.5 174t-151.5 536q0 399 176 603.5t516 204.5q187 0 314 -49v-136q-65 25 -146.5 37.5t-157.5 12.5q-266 0 -399 -154t-135 -464q77 49 184 77t214 28
q244 0 378.5 -109.5zM969.5 186.5q91.5 75.5 91.5 225.5q0 155 -98 232.5t-284 77.5q-93 0 -193.5 -26t-175.5 -77q9 -269 113 -388.5t298 -119.5q157 0 248.5 75.5z" />
    <glyph glyph-name="seven" unicode="7" horiz-adv-x="1057" 
d="M15 1480h981v-91l-615 -1389h-179l603 1339h-790v141z" />
    <glyph glyph-name="eight" unicode="8" horiz-adv-x="1414" 
d="M1218.5 608.5q76.5 -88.5 76.5 -218.5q0 -123 -65.5 -215t-195.5 -143t-319 -51q-296 0 -446.5 102t-150.5 290q0 136 77 234t220 151q-127 59 -185 145t-58 204q0 120 62.5 208t183.5 136t294 48q167 0 285.5 -44.5t180.5 -128.5t62 -200q0 -128 -67.5 -222t-202.5 -151
q172 -56 248.5 -144.5zM377 971q40 -58 134.5 -99t261.5 -71l49 -9q138 55 201 131t63 186q0 128 -98 195.5t-281 67.5t-276.5 -68t-93.5 -190q0 -85 40 -143zM1026 177.5q105 69.5 105 202.5q0 80 -41 135t-134 93t-253 67q-86 15 -157 36q-131 -45 -198 -128.5t-67 -189.5
q0 -140 110.5 -212.5t325.5 -72.5q204 0 309 69.5z" />
    <glyph glyph-name="nine" unicode="9" horiz-adv-x="1294" 
d="M1001.5 1325q151.5 -174 151.5 -536q0 -399 -176 -603.5t-516 -204.5q-187 0 -314 49v136q65 -25 146.5 -37.5t157.5 -12.5q266 0 399 154t135 464q-77 -49 -184 -77t-214 -28q-244 0 -378.5 109.5t-134.5 325.5q0 138 61.5 236t174 148.5t263.5 50.5q277 0 428.5 -174z
M331 835.5q98 -77.5 284 -77.5q93 0 193.5 26t175.5 77q-9 269 -113 388.5t-298 119.5q-157 0 -248.5 -75.5t-91.5 -225.5q0 -155 98 -232.5z" />
    <glyph glyph-name="colon" unicode=":" horiz-adv-x="514" 
d="M169.5 17q-32.5 30 -32.5 81q0 52 32.5 82.5t87.5 30.5t87 -31t32 -82q0 -50 -32 -80.5t-87 -30.5t-87.5 30zM169.5 904q-32.5 30 -32.5 81q0 52 32.5 82.5t87.5 30.5t87 -31t32 -82q0 -50 -32 -80.5t-87 -30.5t-87.5 30z" />
    <glyph glyph-name="semicolon" unicode=";" horiz-adv-x="514" 
d="M375 64q0 -101 -27.5 -198.5t-75.5 -180.5h-98q35 90 53.5 161.5t22.5 140.5q-52 2 -82.5 33t-30.5 80q0 51 31.5 81t85.5 30q121 0 121 -147zM169.5 904q-32.5 30 -32.5 81q0 52 32.5 82.5t87.5 30.5t87 -31t32 -82q0 -50 -32 -80.5t-87 -30.5t-87.5 30z" />
    <glyph glyph-name="less" unicode="&#x3c;" horiz-adv-x="1130" 
d="M959 1161v-140l-640 -260l640 -262v-140l-788 328v146z" />
    <glyph glyph-name="equal" unicode="=" horiz-adv-x="1130" 
d="M171 892v134h788v-134h-788zM171 494v134h788v-134h-788z" />
    <glyph glyph-name="greater" unicode="&#x3e;" horiz-adv-x="1130" 
d="M171 1161l788 -328v-146l-788 -328v140l640 262l-640 260v140z" />
    <glyph glyph-name="question" unicode="?" horiz-adv-x="1007" 
d="M383 763q149 40 234 88t121.5 109t36.5 146q0 121 -91.5 188t-265.5 67q-192 0 -372 -57v139q87 27 187 41.5t199 14.5q163 0 277.5 -45.5t173 -131.5t58.5 -207q0 -111 -41 -192t-130 -142t-237 -110l-15 -312h-106zM378.5 16q-32.5 29 -32.5 77q0 50 32 79t87 29
t87.5 -29.5t32.5 -78.5q0 -47 -32.5 -76.5t-87.5 -29.5q-54 0 -86.5 29z" />
    <glyph glyph-name="at" unicode="@" horiz-adv-x="2172" 
d="M1615 1391q214 -107 323.5 -315t109.5 -506q0 -204 -50.5 -335t-139.5 -192t-207 -61q-101 0 -167 38.5t-95 110.5h-14q-56 -69 -153 -109t-209 -40q-116 0 -198 36t-125 103t-43 158q0 140 100.5 217t316.5 99l309 35v70q0 102 -34.5 160t-102 81t-175.5 23
q-74 0 -160.5 -14t-167.5 -42v132q76 27 168.5 42t179.5 15q155 0 255 -37.5t151 -125.5t51 -237v-426q0 -94 36.5 -133.5t109.5 -39.5q106 0 172 111.5t65 351.5q-1 408 -208.5 613t-620.5 205q-833 0 -833 -856q0 -440 216.5 -652t663.5 -212q114 0 223.5 14t227.5 43
v-121q-214 -55 -451 -55q-500 1 -757.5 247.5t-257.5 732.5q0 321 112.5 539.5t329 328.5t526.5 110q309 0 523 -107zM1225 141q85 34 148 99v284l-299 -35q-134 -16 -195 -62.5t-61 -133.5q0 -90 59.5 -138t174.5 -48q88 0 173 34z" />
    <glyph glyph-name="A" unicode="A" horiz-adv-x="1522" 
d="M1308 0l-192 479h-713l-192 -479h-171l602 1480h238l602 -1480h-174zM459 617h601l-300 749z" />
    <glyph glyph-name="B" unicode="B" horiz-adv-x="1387" 
d="M1226.5 644.5q78.5 -92.5 78.5 -236.5q0 -139 -68.5 -232t-222.5 -141t-407 -48q-203 0 -413 28v1433q112 24 224 36t238 12q316 0 461.5 -99.5t145.5 -299.5q0 -129 -67.5 -216t-204.5 -118q157 -26 235.5 -118.5zM362 1340v-515h358q195 0 287.5 64t92.5 203
q0 98 -43.5 157.5t-137 87.5t-248.5 28q-176 0 -309 -25zM943 151q110 33 156 97t46 166q0 146 -97.5 213t-306.5 67h-379v-558q64 -10 129 -14t151 -4q191 0 301 33z" />
    <glyph glyph-name="C" unicode="C" horiz-adv-x="1327" 
d="M322.5 163q-198.5 182 -198.5 574q0 255 92 425t264.5 253.5t416.5 83.5q102 0 191 -12t180 -37v-146q-175 49 -363 49q-297 0 -449 -147.5t-152 -464.5q0 -326 150.5 -470t435.5 -144q100 0 189.5 14t188.5 46v-146q-176 -60 -387 -60q-360 0 -558.5 182z" />
    <glyph glyph-name="D" unicode="D" horiz-adv-x="1598" 
d="M194 15v1433q102 22 222.5 34t230.5 12q409 0 618 -188.5t209 -565.5q0 -382 -215.5 -566.5t-648.5 -184.5q-213 0 -416 26zM1136.5 280.5q161.5 148.5 161.5 460.5q0 311 -161.5 461t-488.5 150q-127 0 -283 -25v-1178q119 -17 279 -17q331 0 492.5 148.5z" />
    <glyph glyph-name="E" unicode="E" horiz-adv-x="1338" 
d="M364 138h872v-138h-1042v1480h1032v-138h-862v-514h760v-137h-760v-553z" />
    <glyph glyph-name="F" unicode="F" horiz-adv-x="1298" 
d="M1218 1340h-853v-523h750v-140h-750v-677h-171v1480h1024v-140z" />
    <glyph glyph-name="G" unicode="G" horiz-adv-x="1542" 
d="M1356 720v-700q-111 -18 -201 -25.5t-189 -7.5q-417 0 -629 188.5t-213 560.5q0 254 99.5 425t281 254.5t428.5 83.5q182 0 379 -49v-146q-102 27 -190 38t-177 11q-304 0 -473 -149t-169 -462q0 -610 656 -610q123 0 235 13v575h162z" />
    <glyph glyph-name="H" unicode="H" horiz-adv-x="1631" 
d="M194 0v1480h171v-645h901v645h171v-1480h-171v684h-901v-684h-171z" />
    <glyph glyph-name="I" unicode="I" horiz-adv-x="560" 
d="M194 0v1480h171v-1480h-171z" />
    <glyph glyph-name="J" unicode="J" horiz-adv-x="560" 
d="M0 -268q102 123 148.5 256t46.5 302v1190h170v-1213q-8 -181 -65.5 -324t-189.5 -288z" />
    <glyph glyph-name="K" unicode="K" horiz-adv-x="1382" 
d="M1185 0l-555 684h-265v-684h-171v1480h171v-645h268l514 645h190l-572 -717l616 -763h-196z" />
    <glyph glyph-name="L" unicode="L" horiz-adv-x="1214" 
d="M194 0v1480h171v-1338h830v-142h-1001z" />
    <glyph glyph-name="M" unicode="M" horiz-adv-x="1946" 
d="M1546 1480h201v-1480h-161v1243l-535 -1038h-156l-535 1024v-1229h-162v1480h202l576 -1115z" />
    <glyph glyph-name="N" unicode="N" horiz-adv-x="1656" 
d="M1299 1480h163v-1480h-176l-929 1242v-1242h-163v1480h176l929 -1242v1242z" />
    <glyph glyph-name="O" unicode="O" horiz-adv-x="1653" 
d="M454.5 64.5q-157.5 83.5 -244 253.5t-86.5 422t87.5 422t245 253.5t369.5 83.5q214 0 371.5 -83.5t244 -253.5t86.5 -422q0 -251 -87.5 -421.5t-245 -254t-369.5 -83.5q-214 0 -371.5 83.5zM1213 274q139 149 139 461q0 318 -139 469t-387 151q-247 0 -386.5 -149
t-139.5 -461q0 -320 138.5 -470t387.5 -150q248 0 387 149z" />
    <glyph glyph-name="P" unicode="P" horiz-adv-x="1368" 
d="M194 1453q114 22 216.5 32.5t216.5 10.5q319 0 480.5 -122.5t161.5 -380.5q0 -251 -163.5 -379.5t-505.5 -128.5q-101 0 -235 11v-496h-171v1453zM889 658q110 41 160.5 123.5t50.5 210.5q0 192 -114 282t-348 90q-147 0 -273 -23v-709q114 -15 236 -15q178 0 288 41z
" />
    <glyph glyph-name="Q" unicode="Q" horiz-adv-x="1653" 
d="M1371.5 205.5q-156.5 -191.5 -458.5 -210.5q245 -63 590 -91l-24 -138q-523 54 -817.5 172t-416 309.5t-121.5 487.5q0 254 87.5 425t245 255t369.5 84q213 0 370.5 -82t244.5 -252t87 -425q0 -343 -156.5 -534.5zM438.5 275q138.5 -150 387.5 -150q248 0 387 149
t139 461q0 318 -139 469t-387 151q-247 0 -386.5 -149t-139.5 -461q0 -320 138.5 -470z" />
    <glyph glyph-name="R" unicode="R" horiz-adv-x="1452" 
d="M1186 0l-499 611q-23 -1 -71 -1q-104 0 -253 12v-622h-169v1448q229 48 447 48q215 0 353 -45.5t206.5 -142.5t68.5 -252q0 -174 -102 -280.5t-302 -144.5l517 -631h-196zM363 755q75 -7 128.5 -10t130.5 -3q254 0 369.5 76t115.5 235q0 115 -47.5 183t-146.5 98t-262 30
q-87 0 -152 -6.5t-136 -19.5v-583z" />
    <glyph glyph-name="S" unicode="S" horiz-adv-x="1211" 
d="M323 -2q-108 17 -207 49v144q103 -34 214.5 -51.5t210.5 -17.5q406 0 406 275q0 76 -33 125.5t-104.5 82t-194.5 56.5l-90 17q-225 44 -329 142.5t-104 262.5q0 130 65 223t194.5 143t319.5 50q203 0 379 -52v-144q-180 55 -378 55q-207 0 -307.5 -69t-100.5 -199
q0 -75 29 -125t95 -83t179 -56l90 -17q165 -32 266.5 -86t148 -132t46.5 -186q0 -134 -68 -229.5t-198.5 -145t-313.5 -49.5q-107 0 -215 17z" />
    <glyph glyph-name="T" unicode="T" horiz-adv-x="1317" 
d="M573 0v1338h-552v142h1275v-142h-552v-1338h-171z" />
    <glyph glyph-name="U" unicode="U" horiz-adv-x="1599" 
d="M336 131.5q-149 150.5 -149 466.5v882h171v-899q0 -237 107.5 -346t335.5 -109t336 109t108 346v899h167v-882q0 -316 -148.5 -466.5t-462.5 -150.5q-316 0 -465 150.5z" />
    <glyph glyph-name="V" unicode="V" horiz-adv-x="1481" 
d="M1290 1480h172l-599 -1480h-244l-600 1480h184l543 -1351z" />
    <glyph glyph-name="W" unicode="W" horiz-adv-x="2391" 
d="M2155 1480h167l-475 -1480h-222l-429 1311l-430 -1311h-222l-477 1480h177l420 -1330l434 1330h201l432 -1336z" />
    <glyph glyph-name="X" unicode="X" horiz-adv-x="1425" 
d="M813 757l599 -757h-200l-503 636l-503 -636h-195l597 753l-578 727h201l482 -606l483 606h193z" />
    <glyph glyph-name="Y" unicode="Y" horiz-adv-x="1317" 
d="M1333 1480l-588 -822v-658h-171v657l-601 823h192l498 -681l489 681h181z" />
    <glyph glyph-name="Z" unicode="Z" horiz-adv-x="1313" 
d="M302 141h938v-141h-1166v94l924 1245h-911v141h1140v-94z" />
    <glyph glyph-name="bracketleft" unicode="[" horiz-adv-x="738" 
d="M214 -440v2056h560v-139h-392v-1778h387v-139h-555z" />
    <glyph glyph-name="backslash" unicode="\" horiz-adv-x="734" 
d="M562 -240l-562 1856h171l563 -1856h-172z" />
    <glyph glyph-name="bracketright" unicode="]" horiz-adv-x="738" 
d="M-30 -440v139h386v1778h-391v139h559v-2056h-554z" />
    <glyph glyph-name="asciicircum" unicode="^" 
d="M1167 740h-178l-358 605l-359 -605h-178l442 740h187z" />
    <glyph glyph-name="underscore" unicode="_" horiz-adv-x="1279" 
d="M97 -139v138h1085v-138h-1085z" />
    <glyph glyph-name="grave" unicode="`" horiz-adv-x="1200" 
d="M518 1253l-292 363h191l265 -363h-164z" />
    <glyph glyph-name="a" unicode="a" horiz-adv-x="1166" 
d="M801.5 1064q101.5 -38 153 -127t51.5 -240v-697h-142l-12 123h-11q-61 -65 -157.5 -103t-202.5 -38q-116 0 -198.5 36.5t-125 103.5t-42.5 157q0 141 102.5 218.5t328.5 99.5l294 32v76q0 103 -35 160.5t-103.5 80.5t-179.5 23q-77 0 -164 -13t-168 -40v132q76 26 170 40
t182 14q158 0 259.5 -38zM692 139.5q83 33.5 148 99.5v281l-284 -31q-145 -17 -207.5 -64t-62.5 -133q0 -89 58 -137.5t175 -48.5q90 0 173 33.5z" />
    <glyph glyph-name="b" unicode="b" horiz-adv-x="1294" 
d="M176 35v1581h168v-650h9q65 65 156 100.5t200 35.5q137 0 243.5 -56.5t168 -176.5t61.5 -304q0 -290 -154 -437t-457 -147q-211 0 -395 54zM906.5 222.5q105.5 106.5 105.5 328.5q0 216 -93 312.5t-256 96.5q-93 0 -175.5 -32.5t-143.5 -100.5v-679q112 -32 243 -32
q214 0 319.5 106.5z" />
    <glyph glyph-name="c" unicode="c" horiz-adv-x="1012" 
d="M251.5 121.5q-139.5 140.5 -139.5 420.5q0 279 148 419.5t432 140.5q146 0 265 -35v-139q-65 17 -125 25.5t-127 8.5q-213 0 -316.5 -100.5t-103.5 -316.5q0 -219 97 -322t289 -103q64 0 132 12t154 39v-139q-142 -51 -303 -51q-263 0 -402.5 140.5z" />
    <glyph glyph-name="d" unicode="d" horiz-adv-x="1294" 
d="M346.5 39.5q-109.5 57.5 -172 177.5t-62.5 303q0 287 154 435t449 148q114 0 235 -22v535h168v-1616h-142l-11 125h-11q-63 -68 -154 -105.5t-199 -37.5q-145 0 -254.5 57.5zM809 158q81 35 141 110v672q-106 27 -230 27q-222 0 -330 -106t-108 -327q0 -411 354 -411
q92 0 173 35z" />
    <glyph glyph-name="e" unicode="e" horiz-adv-x="1172" 
d="M1079 489h-797q7 -198 112 -287.5t317 -89.5q136 0 310 48v-131q-172 -48 -332 -48q-285 0 -431 137.5t-146 423.5q0 181 58.5 306.5t169 189.5t265.5 64q229 0 351.5 -145t122.5 -420v-48zM367.5 889.5q-81.5 -94.5 -86.5 -290.5h638q-5 197 -84 291t-232 94
q-154 0 -235.5 -94.5z" />
    <glyph glyph-name="f" unicode="f" horiz-adv-x="825" 
d="M493 1430.5q-71 -66.5 -71 -220.5v-125h400v-139h-400v-946h-168v946h-225v139h225v115q0 215 114 325.5t333 110.5q80 0 168 -13v-139q-81 13 -150 13q-155 0 -226 -66.5z" />
    <glyph glyph-name="g" unicode="g" horiz-adv-x="1294" 
d="M371.5 -446q-99.5 14 -186.5 42v139q194 -60 369 -60q140 0 226.5 35.5t128 114.5t41.5 210v89h-9q-65 -65 -156 -100.5t-200 -35.5q-137 0 -243.5 56.5t-168 176t-61.5 299.5q0 287 154.5 434.5t456.5 147.5q209 0 395 -55v-985q0 -184 -61 -299t-183.5 -169t-312.5 -54
q-90 0 -189.5 14zM805.5 162q83.5 33 144.5 101v674q-107 29 -243 29q-212 0 -318.5 -106t-106.5 -325q0 -214 93.5 -310t255.5 -96q91 0 174.5 33z" />
    <glyph glyph-name="h" unicode="h" horiz-adv-x="1299" 
d="M176 1616h168v-652h9q77 68 176.5 103t210.5 35q186 0 292.5 -101.5t106.5 -317.5v-683h-168v675q0 149 -71 214t-202 65q-99 0 -192 -37t-162 -109v-808h-168v1616z" />
    <glyph glyph-name="i" unicode="i" horiz-adv-x="520" 
d="M176 0v1085h168v-1085h-168zM174 1347q-30 26 -30 74t30 74.5t86 26.5t86 -26.5t30 -74.5t-30 -74t-86 -26t-86 26z" />
    <glyph glyph-name="j" unicode="j" horiz-adv-x="520" 
d="M-20 -389q103 124 149.5 257.5t46.5 301.5v915h168v-908q0 -188 -60.5 -340t-194.5 -301zM171 1356q-30 26 -30 74t30 74.5t86 26.5t86 -26.5t30 -74.5t-30 -74t-86 -26t-86 26z" />
    <glyph glyph-name="k" unicode="k" horiz-adv-x="1176" 
d="M999 0l-426 485h-229v-485h-168v1616h168v-990h227l397 459h189l-448 -526l482 -559h-192z" />
    <glyph glyph-name="l" unicode="l" horiz-adv-x="520" 
d="M176 0v1616h168v-1616h-168z" />
    <glyph glyph-name="m" unicode="m" horiz-adv-x="1893" 
d="M1634.5 1000.5q97.5 -101.5 97.5 -317.5v-683h-167v675q0 149 -62 214.5t-175 65.5q-82 0 -160.5 -34t-136.5 -106q11 -61 11 -131v-684h-166v675q0 149 -59.5 214.5t-170.5 65.5q-85 0 -164 -37.5t-138 -112.5v-805h-168v1085h140l12 -124h11q67 68 157 104.5t191 36.5
q103 0 179.5 -39t121.5 -120q83 83 180.5 121t195.5 38q173 0 270.5 -101.5z" />
    <glyph glyph-name="n" unicode="n" horiz-adv-x="1299" 
d="M176 1085h140l12 -124h11q79 68 181 104.5t213 36.5q191 0 298.5 -103t107.5 -322v-677h-168v672q0 150 -69.5 216.5t-203.5 66.5q-95 0 -190 -36t-164 -110v-809h-168v1085z" />
    <glyph glyph-name="o" unicode="o" horiz-adv-x="1270" 
d="M358 42q-117 61 -181.5 187t-64.5 314q0 185 64 310t181 187t278 62q247 0 384.5 -139.5t137.5 -419.5q0 -185 -64.5 -311t-182 -188.5t-275.5 -62.5q-160 0 -277 61zM988 541q0 222 -91.5 322.5t-261.5 100.5t-261.5 -100t-91.5 -320q0 -426 353 -426t353 423z" />
    <glyph glyph-name="p" unicode="p" horiz-adv-x="1294" 
d="M176 1085h142l12 -127h10q63 68 154.5 106t199.5 38q143 0 252 -55.5t172.5 -176t63.5 -306.5q0 -288 -153 -435.5t-449 -147.5q-104 0 -236 20v-441h-168v1525zM904.5 223q107.5 106 107.5 327q0 410 -354 410q-92 0 -173 -35t-141 -110v-671q47 -13 107.5 -20t122.5 -7
q223 0 330.5 106z" />
    <glyph glyph-name="q" unicode="q" horiz-adv-x="1294" 
d="M950 117h-9q-65 -65 -155.5 -100.5t-200.5 -35.5q-137 0 -243.5 56.5t-168 176.5t-61.5 303q0 291 154 438t457 147q209 0 395 -55v-1487h-168v557zM805.5 155q83.5 33 144.5 101v681q-107 29 -243 29q-212 0 -318.5 -106.5t-106.5 -327.5q0 -216 93 -313t256 -97
q91 0 174.5 33z" />
    <glyph glyph-name="r" unicode="r" horiz-adv-x="825" 
d="M176 1085h140l13 -142h11q63 71 160 112t199 41q57 0 111 -10v-153q-49 8 -118 8q-92 0 -189 -37.5t-159 -110.5v-793h-168v1085z" />
    <glyph glyph-name="s" unicode="s" horiz-adv-x="1044" 
d="M132 28v128q91 -26 177 -37.5t179 -11.5q162 0 234 46.5t72 136.5q0 48 -17 80t-58 53.5t-113 34.5l-184 30q-163 27 -235.5 100t-72.5 196q0 146 119 232t362 86q159 0 301 -40v-128q-144 41 -300 41q-172 0 -245 -49t-73 -136q0 -66 40.5 -108t141.5 -60l184 -30
q164 -27 239 -95.5t75 -195.5q0 -151 -119 -235.5t-353 -84.5q-200 0 -354 47z" />
    <glyph glyph-name="t" unicode="t" horiz-adv-x="854" 
d="M832 142v-139q-100 -22 -192 -22q-192 0 -293 94.5t-101 287.5v583h-225v139h225l28 395h140v-395h400v-139h-400v-552q0 -145 65.5 -208.5t198.5 -63.5q63 0 154 20z" />
    <glyph glyph-name="u" unicode="u" horiz-adv-x="1289" 
d="M267.5 83.5q-107.5 101.5 -107.5 317.5v684h168v-676q0 -149 70 -215t197 -66q96 0 188.5 37.5t161.5 110.5v809h168v-1085h-140l-12 120h-10q-78 -67 -177.5 -102.5t-208.5 -35.5q-190 0 -297.5 101.5z" />
    <glyph glyph-name="v" unicode="v" horiz-adv-x="1206" 
d="M1014 1085h167l-474 -1085h-209l-473 1085h180l405 -943z" />
    <glyph glyph-name="w" unicode="w" horiz-adv-x="1891" 
d="M1650 1085h160l-354 -1085h-200l-309 931l-310 -931h-200l-356 1085h167l297 -921l304 921h200l303 -919z" />
    <glyph glyph-name="x" unicode="x" horiz-adv-x="1162" 
d="M682 550l454 -550h-198l-358 434l-358 -434h-194l452 547l-442 538h197l349 -423l348 423h191z" />
    <glyph glyph-name="y" unicode="y" horiz-adv-x="1206" 
d="M1014 1085h167l-666 -1525h-167l192 440h-42l-473 1085h180l401 -951z" />
    <glyph glyph-name="z" unicode="z" horiz-adv-x="1060" 
d="M302 139h693v-139h-921v106l680 840h-667v139h895v-106z" />
    <glyph glyph-name="braceleft" unicode="{" horiz-adv-x="778" 
d="M383.5 710q-38.5 -62 -121.5 -85q83 -23 121.5 -85.5t38.5 -171.5v-439q0 -131 65.5 -189t201.5 -58h125v-131q-70 -11 -144 -11q-207 0 -311.5 96.5t-104.5 288.5v454q0 92 -43 134t-132 42h-38v139h38q89 0 132 42t43 134v381q0 192 104.5 288.5t311.5 96.5
q74 0 144 -11v-131h-125q-136 0 -201.5 -58t-65.5 -189v-366q0 -109 -38.5 -171z" />
    <glyph glyph-name="bar" unicode="|" horiz-adv-x="545" 
d="M194 -440v2056h157v-2056h-157z" />
    <glyph glyph-name="braceright" unicode="}" horiz-adv-x="778" 
d="M737 694v-139h-38q-88 0 -131.5 -42t-43.5 -134v-454q0 -192 -104.5 -288.5t-311.5 -96.5q-73 0 -143 11v131h124q137 0 202 57.5t65 189.5v439q0 109 38.5 171.5t122.5 85.5q-84 23 -122.5 85t-38.5 171v366q0 132 -65 189.5t-202 57.5h-124v131q70 11 143 11
q207 0 311.5 -96.5t104.5 -288.5v-381q0 -92 43.5 -134t131.5 -42h38z" />
    <glyph glyph-name="asciitilde" unicode="~" horiz-adv-x="1130" 
d="M653.5 647q-44.5 16 -109.5 48q-56 27 -91.5 40t-70.5 13q-61 0 -112.5 -26.5t-98.5 -82.5v148q78 93 211 93q50 0 94.5 -16t109.5 -48q56 -27 91.5 -40t70.5 -13q61 0 112.5 26.5t98.5 82.5v-148q-78 -93 -211 -93q-50 0 -94.5 16z" />
    <glyph glyph-name="uni00A0" unicode="&#xa0;" horiz-adv-x="557" 
 />
    <glyph glyph-name="exclamdown" unicode="&#xa1;" horiz-adv-x="554" 
d="M364 1067.5q32 -30.5 32 -80.5q0 -51 -32 -82t-87 -31t-87.5 30.5t-32.5 82.5q0 51 32.5 81t87.5 30t87 -30.5zM225 704h106l34 -541v-543h-177v543z" />
    <glyph glyph-name="cent" unicode="&#xa2;" horiz-adv-x="1026" 
d="M386.5 862q-101.5 -100 -101.5 -317q0 -219 97 -322t289 -103q64 0 132 12t154 39v-139q-114 -41 -242 -49v-223h-149v225q-222 23 -338 162t-116 395q0 247 115 385t339 167v231h149v-223q124 -3 242 -35v-139q-68 17 -128 25.5t-126 8.5q-215 0 -316.5 -100z" />
    <glyph glyph-name="sterling" unicode="&#xa3;" horiz-adv-x="1443" 
d="M1344 136v-136h-1261v136h244v550h-244v128h244v199q0 247 148 366.5t442 119.5q204 0 377 -51v-144q-89 26 -184.5 40t-188.5 14q-147 0 -241 -33t-140.5 -107t-46.5 -198v-206h591v-128h-591v-550h851z" />
    <glyph glyph-name="currency" unicode="&#xa4;" 
d="M1008 451l111 -108l-92 -91l-107 110l-81 100q-87 -67 -209 -67q-121 0 -209 66l-80 -99l-107 -110l-92 91l111 108l102 82q-58 86 -58 207q0 120 58 206l-102 83l-113 108l92 91l107 -110l83 -101q86 66 208 66q121 0 209 -66l82 101l107 110l92 -91l-112 -108l-103 -83
q58 -86 58 -206q0 -119 -58 -207zM794 562q62 64 62 178q0 71 -26.5 125.5t-77 85.5t-120.5 31q-67 0 -118.5 -29t-80 -83.5t-28.5 -129.5t28.5 -129.5t79 -83.5t117.5 -29q102 0 164 64z" />
    <glyph glyph-name="yen" unicode="&#xa5;" horiz-adv-x="1352" 
d="M1353 1480l-523 -727h270v-111h-338v-236h338v-111h-338v-295h-171v295h-337v111h337v236h-337v111h267l-528 727h193l494 -681l492 681h181z" />
    <glyph glyph-name="brokenbar" unicode="&#xa6;" horiz-adv-x="545" 
d="M194 836v780h157v-780h-157zM194 -440v780h157v-780h-157z" />
    <glyph glyph-name="section" unicode="&#xa7;" horiz-adv-x="1170" 
d="M992 299q0 -150 -118.5 -234t-359.5 -84q-190 0 -343 44v125q91 -25 173 -35.5t173 -10.5q170 0 243 46.5t73 135.5q0 73 -42 112.5t-147 57.5l-201 35q-152 27 -225.5 99.5t-73.5 192.5q0 128 105 210q-76 72 -76 187q0 146 118 231.5t368 85.5q153 0 291 -36v-125
q-76 21 -142 29.5t-139 8.5q-183 0 -260.5 -49.5t-77.5 -135.5q0 -67 41 -110t142 -61l206 -34q157 -26 231 -95t74 -190q0 -130 -108 -215q75 -68 75 -185zM686 577q72 -12 126 -33q67 54 67 139q0 75 -45 117t-156 62l-201 35q-70 12 -122 33q-64 -55 -64 -138
q0 -69 43.5 -115t149.5 -65z" />
    <glyph glyph-name="dieresis" unicode="&#xa8;" horiz-adv-x="1200" 
d="M270.5 1348.5q-27.5 26.5 -27.5 72.5t27.5 73t77.5 27t78 -27t28 -73t-27.5 -72.5t-78.5 -26.5q-50 0 -77.5 26.5zM773.5 1348.5q-27.5 26.5 -27.5 72.5t28 73t78 27t77.5 -27t27.5 -73t-27.5 -72.5t-77.5 -26.5q-51 0 -78.5 26.5z" />
    <glyph glyph-name="copyright" unicode="&#xa9;" horiz-adv-x="1740" 
d="M479 73q-169 95 -262 267.5t-93 399.5t93 399.5t262 267.5t391 95q221 0 390 -95t262 -267.5t93 -399.5t-93 -399.5t-262 -267.5t-390 -95q-222 0 -391 95zM1207.5 163.5q144.5 81.5 223 230.5t78.5 346t-78.5 346t-223 230.5t-337.5 81.5t-337.5 -81.5t-223 -230.5
t-78.5 -346t78.5 -346t223 -230.5t337.5 -81.5t337.5 81.5zM702 371q-90 47 -139.5 138.5t-49.5 223.5q0 196 110.5 303.5t311.5 107.5q102 0 192 -26v-113q-95 25 -183 25q-148 0 -224.5 -73t-76.5 -221t74 -223t208 -75q95 0 202 37v-112q-91 -39 -214 -39q-121 0 -211 47
z" />
    <glyph glyph-name="ordfeminine" unicode="&#xaa;" horiz-adv-x="987" 
d="M680 1463q88 -32 132 -105.5t44 -199.5v-548h-133l-12 98h-9q-52 -52 -133.5 -82.5t-170.5 -30.5q-150 0 -230 64.5t-80 176.5q0 115 85 177t273 78l254 25v60q0 76 -28.5 119.5t-86.5 61.5t-153 18q-64 0 -136.5 -11t-142.5 -33v120q67 22 146 33t155 11q138 0 226 -32z
M579 731q67 25 121 74v221l-234 -24q-118 -13 -169 -49t-51 -103q0 -69 47.5 -106.5t146.5 -37.5q72 0 139 25z" />
    <glyph glyph-name="guillemotleft" unicode="&#xab;" horiz-adv-x="1183" 
d="M445 137l-318 426l318 425h181l-318 -425l318 -426h-181zM915 137l-318 426l318 425h181l-318 -425l318 -426h-181z" />
    <glyph glyph-name="logicalnot" unicode="&#xac;" horiz-adv-x="1427" 
d="M1126 197v496h-955v134h1096v-630h-141z" />
    <glyph glyph-name="uni00AD" unicode="&#xad;" horiz-adv-x="978" 
d="M171 492v141h636v-141h-636z" />
    <glyph glyph-name="registered" unicode="&#xae;" horiz-adv-x="1552" 
d="M1093.5 1420q138.5 -78 215.5 -218t77 -320t-77 -319.5t-215.5 -217t-317.5 -77.5t-317.5 77.5t-215.5 217t-77 319.5t77 320t215.5 218t317.5 78t317.5 -78zM1048 422q117 65 181 183.5t64 276.5t-64 277.5t-181 184.5t-272 65t-272 -65t-181 -184.5t-64 -277.5
t64 -276.5t181 -183.5t272 -65t272 65zM881 830l157 -230h-102l-149 216h-24h-106l-1 -216h-92v592h199q123 0 186 -48.5t63 -140.5q0 -134 -131 -173zM779 896q73 0 108 26t35 81q0 109 -143 109h-122v-216h122z" />
    <glyph glyph-name="macron" unicode="&#xaf;" horiz-adv-x="1200" 
d="M259 1369v108h682v-108h-682z" />
    <glyph glyph-name="degree" unicode="&#xb0;" horiz-adv-x="1048" 
d="M339.5 830q-81.5 46 -127.5 127.5t-46 183.5t46 183t127.5 127t184.5 46t184.5 -46t127.5 -127t46 -183t-46 -183.5t-127.5 -127.5t-184.5 -46t-184.5 46zM649 925q55 30 86 86t31 130t-31 130t-86 86t-125 30t-125 -30t-86 -86t-31 -130t31 -130t86 -86t125 -30t125 30z
" />
    <glyph glyph-name="plusminus" unicode="&#xb1;" horiz-adv-x="1130" 
d="M495 340v327h-324v134h324v327h140v-327h324v-134h-324v-327h-140zM171 0v134h788v-134h-788z" />
    <glyph glyph-name="uni00B2" unicode="&#xb2;" horiz-adv-x="859" 
d="M787 -20v-116h-698v74l336 366q87 96 123 158.5t36 122.5q0 91 -59 134t-183 43q-144 0 -265 -43v118q55 19 127.5 29.5t151.5 10.5q368 0 368 -277q0 -85 -41.5 -162t-144.5 -188l-252 -270h501z" />
    <glyph glyph-name="uni00B3" unicode="&#xb3;" horiz-adv-x="859" 
d="M718 302.5q58 -62.5 58 -160.5q0 -139 -103 -215t-316 -76q-154 0 -289 41v110q139 -44 285 -44q290 0 290 192q0 174 -256 174h-171v106h102q286 0 286 176q0 78 -62.5 121.5t-181.5 43.5q-65 0 -133 -10t-129 -31v109q58 18 130.5 28t143.5 10q178 0 273 -68.5
t95 -192.5q0 -84 -50.5 -144t-137.5 -87q108 -20 166 -82.5z" />
    <glyph glyph-name="acute" unicode="&#xb4;" horiz-adv-x="1200" 
d="M518 1253l265 363h191l-292 -363h-164z" />
    <glyph glyph-name="uni00B5" unicode="&#xb5;" horiz-adv-x="1289" 
d="M1113 1085v-1085h-140l-12 120h-10q-74 -67 -168 -102.5t-196 -35.5q-169 0 -259 94v-516h-168v1525h168v-676q0 -149 70 -215t197 -66q96 0 188.5 37.5t161.5 110.5v809h168z" />
    <glyph glyph-name="paragraph" unicode="&#xb6;" horiz-adv-x="1368" 
d="M776 496q-85 -11 -170 -11q-260 0 -383.5 128.5t-123.5 379.5q0 258 123 380.5t366 122.5q166 0 320 -16v-1480h-132v496zM1043 0v1480h131v-1480h-131z" />
    <glyph glyph-name="periodcentered" unicode="&#xb7;" horiz-adv-x="514" 
d="M169.5 478q-32.5 30 -32.5 81t32.5 81.5t87.5 30.5t87 -30.5t32 -81.5t-32 -81t-87 -30t-87.5 30z" />
    <glyph glyph-name="cedilla" unicode="&#xb8;" horiz-adv-x="1200" 
d="M779 -149q44 -41 44 -110q0 -75 -56 -115.5t-158 -40.5q-51 0 -102 10t-87 28v81q86 -41 183 -41q61 0 91.5 20t30.5 64t-30.5 64t-92.5 20h-44v189h93v-121q84 -7 128 -48z" />
    <glyph glyph-name="uni00B9" unicode="&#xb9;" horiz-adv-x="859" 
d="M547 -20h249v-116h-654v116h264v726l-264 -182v131l309 213h96v-888z" />
    <glyph glyph-name="ordmasculine" unicode="&#xba;" horiz-adv-x="1089" 
d="M306 646q-101 51 -156 152.5t-55 248.5t55 247.5t155.5 150.5t238.5 50t239 -50t156 -150.5t55 -247.5t-55 -248.5t-156.5 -152.5t-238.5 -51t-238 51zM759 801.5q77 79.5 77 245.5q0 165 -76.5 242.5t-215.5 77.5q-138 0 -214.5 -77.5t-76.5 -242.5q0 -166 76.5 -245.5
t214.5 -79.5t215 79.5z" />
    <glyph glyph-name="guillemotright" unicode="&#xbb;" horiz-adv-x="1183" 
d="M87 137l318 426l-318 425h181l318 -425l-318 -426h-181zM557 137l318 426l-318 425h181l318 -425l-318 -426h-181z" />
    <glyph glyph-name="onequarter" unicode="&#xbc;" horiz-adv-x="2044" 
d="M547 732h249v-116h-654v116h264v726l-264 -182v131l309 213h96v-888zM516 -136l866 1752h146l-866 -1752h-146zM2021 206v-113h-151v-229h-127v229h-529v77l396 694h134l-375 -658h374l21 320h106v-320h151z" />
    <glyph glyph-name="onehalf" unicode="&#xbd;" horiz-adv-x="2044" 
d="M547 732h249v-116h-654v116h264v726l-264 -182v131l309 213h96v-888zM516 -136l866 1752h146l-866 -1752h-146zM1972 -20v-116h-698v74l336 366q87 96 123 158.5t36 122.5q0 91 -59 134t-183 43q-144 0 -265 -43v118q55 19 127.5 29.5t151.5 10.5q368 0 368 -277
q0 -85 -41.5 -162t-144.5 -188l-252 -270h501z" />
    <glyph glyph-name="threequarters" unicode="&#xbe;" horiz-adv-x="2044" 
d="M718 1054.5q58 -62.5 58 -160.5q0 -139 -103 -215t-316 -76q-154 0 -289 41v110q139 -44 285 -44q290 0 290 192q0 174 -256 174h-171v106h102q286 0 286 176q0 78 -62.5 121.5t-181.5 43.5q-65 0 -133 -10t-129 -31v109q58 18 130.5 28t143.5 10q178 0 273 -68.5
t95 -192.5q0 -84 -50.5 -144t-137.5 -87q108 -20 166 -82.5zM516 -136l866 1752h146l-866 -1752h-146zM2021 206v-113h-151v-229h-127v229h-529v77l396 694h134l-375 -658h374l21 320h106v-320h151z" />
    <glyph glyph-name="questiondown" unicode="&#xbf;" horiz-adv-x="1007" 
d="M628.5 1069q32.5 -29 32.5 -77q0 -50 -32 -79t-87 -29t-87.5 29.5t-32.5 78.5q0 47 32.5 76.5t87.5 29.5q54 0 86.5 -29zM624 322q-148 -40 -233.5 -87.5t-122 -107.5t-36.5 -142q0 -117 92 -182.5t265 -65.5q194 0 372 58v-139q-85 -27 -185 -41.5t-201 -14.5
q-163 0 -277.5 45t-173 129.5t-58.5 201.5q0 108 41 188t130.5 140.5t237.5 109.5l14 312h106z" />
    <glyph glyph-name="Agrave" unicode="&#xc0;" horiz-adv-x="1522" 
d="M1308 0l-192 479h-713l-192 -479h-171l602 1480h238l602 -1480h-174zM459 617h601l-300 749zM681 1608l-245 284h187l218 -284h-160z" />
    <glyph glyph-name="Aacute" unicode="&#xc1;" horiz-adv-x="1522" 
d="M1308 0l-192 479h-713l-192 -479h-171l602 1480h238l602 -1480h-174zM459 617h601l-300 749zM680 1608l218 284h187l-245 -284h-160z" />
    <glyph glyph-name="Acircumflex" unicode="&#xc2;" horiz-adv-x="1522" 
d="M1308 0l-192 479h-713l-192 -479h-171l602 1480h238l602 -1480h-174zM459 617h601l-300 749zM1134 1608h-161l-212 208l-212 -208h-161l296 284h154z" />
    <glyph glyph-name="Atilde" unicode="&#xc3;" horiz-adv-x="1522" 
d="M1308 0l-192 479h-713l-192 -479h-171l602 1480h238l602 -1480h-174zM459 617h601l-300 749zM844 1680q-41 10 -99 29q-53 17 -87 25.5t-70 8.5q-59 0 -103.5 -16t-86.5 -52v109q35 33 81.5 48.5t111.5 15.5q46 0 87 -10t99 -29q50 -17 85.5 -26t71.5 -9q59 0 103.5 16.5
t86.5 52.5v-110q-35 -32 -81.5 -47.5t-111.5 -15.5q-46 0 -87 10z" />
    <glyph glyph-name="Adieresis" unicode="&#xc4;" horiz-adv-x="1522" 
d="M1308 0l-192 479h-713l-192 -479h-171l602 1480h238l602 -1480h-174zM459 617h601l-300 749zM415 1684.5q-27 24.5 -27 66.5q0 43 27 68.5t77 25.5t77 -25.5t27 -68.5q0 -42 -27 -66.5t-77 -24.5t-77 24.5zM953 1684.5q-27 24.5 -27 66.5q0 43 27 68.5t77 25.5t77 -25.5
t27 -68.5q0 -42 -27 -66.5t-77 -24.5t-77 24.5z" />
    <glyph glyph-name="Aring" unicode="&#xc5;" horiz-adv-x="1522" 
d="M1308 0l-192 479h-713l-192 -479h-171l602 1480h238l602 -1480h-174zM459 617h601l-300 749zM660.5 1626q-44.5 25 -69.5 69t-25 99t25 99.5t69.5 69.5t100.5 25t100.5 -25t69.5 -69.5t25 -99.5t-25 -99t-69.5 -69t-100.5 -25t-100.5 25zM845.5 1707.5
q32.5 32.5 32.5 86.5q0 55 -32.5 87.5t-84.5 32.5t-84.5 -32.5t-32.5 -87.5q0 -54 32.5 -86.5t84.5 -32.5t84.5 32.5z" />
    <glyph glyph-name="AE" unicode="&#xc6;" horiz-adv-x="2070" 
d="M1203 138h764v-138h-924l-40 479h-596l-196 -479h-171l610 1480h1307v-138h-860l45 -514h714v-137h-702zM463 617h528l-61 725h-171z" />
    <glyph glyph-name="Ccedilla" unicode="&#xc7;" horiz-adv-x="1327" 
d="M456 1205.5q-152 -147.5 -152 -464.5q0 -326 150.5 -470t435.5 -144q100 0 189.5 14t188.5 46v-146q-176 -60 -387 -60h-36v-82q92 -6 142 -45.5t50 -110.5q0 -77 -61.5 -117.5t-173.5 -40.5q-55 0 -109.5 10t-98.5 28v81q105 -41 203 -41q70 0 105.5 20.5t35.5 63.5
t-36 63.5t-106 20.5h-44v156q-300 30 -464 212t-164 538q0 255 92 425t264.5 253.5t416.5 83.5q102 0 191 -12t180 -37v-146q-175 49 -363 49q-297 0 -449 -147.5z" />
    <glyph glyph-name="Egrave" unicode="&#xc8;" horiz-adv-x="1338" 
d="M364 138h872v-138h-1042v1480h1032v-138h-862v-514h760v-137h-760v-553zM651 1608l-245 284h187l218 -284h-160z" />
    <glyph glyph-name="Eacute" unicode="&#xc9;" horiz-adv-x="1338" 
d="M364 138h872v-138h-1042v1480h1032v-138h-862v-514h760v-137h-760v-553zM650 1608l218 284h187l-245 -284h-160z" />
    <glyph glyph-name="Ecircumflex" unicode="&#xca;" horiz-adv-x="1338" 
d="M364 138h872v-138h-1042v1480h1032v-138h-862v-514h760v-137h-760v-553zM1104 1608h-161l-212 208l-212 -208h-161l296 284h154z" />
    <glyph glyph-name="Edieresis" unicode="&#xcb;" horiz-adv-x="1338" 
d="M364 138h872v-138h-1042v1480h1032v-138h-862v-514h760v-137h-760v-553zM385 1684.5q-27 24.5 -27 66.5q0 43 27 68.5t77 25.5t77 -25.5t27 -68.5q0 -42 -27 -66.5t-77 -24.5t-77 24.5zM923 1684.5q-27 24.5 -27 66.5q0 43 27 68.5t77 25.5t77 -25.5t27 -68.5
q0 -42 -27 -66.5t-77 -24.5t-77 24.5z" />
    <glyph glyph-name="Igrave" unicode="&#xcc;" horiz-adv-x="560" 
d="M194 0v1480h171v-1480h-171zM200 1608l-245 284h187l218 -284h-160z" />
    <glyph glyph-name="Iacute" unicode="&#xcd;" horiz-adv-x="560" 
d="M194 0v1480h171v-1480h-171zM199 1608l218 284h187l-245 -284h-160z" />
    <glyph glyph-name="Icircumflex" unicode="&#xce;" horiz-adv-x="560" 
d="M194 0v1480h171v-1480h-171zM653 1608h-161l-212 208l-212 -208h-161l296 284h154z" />
    <glyph glyph-name="Idieresis" unicode="&#xcf;" horiz-adv-x="560" 
d="M194 0v1480h171v-1480h-171zM-66 1684.5q-27 24.5 -27 66.5q0 43 27 68.5t77 25.5t77 -25.5t27 -68.5q0 -42 -27 -66.5t-77 -24.5t-77 24.5zM472 1684.5q-27 24.5 -27 66.5q0 43 27 68.5t77 25.5t77 -25.5t27 -68.5q0 -42 -27 -66.5t-77 -24.5t-77 24.5z" />
    <glyph glyph-name="Eth" unicode="&#xd0;" horiz-adv-x="1598" 
d="M1265 1305.5q209 -188.5 209 -565.5q0 -382 -215.5 -566.5t-648.5 -184.5q-213 0 -416 26v689h-187v116h187v628q102 22 222.5 34t230.5 12q409 0 618 -188.5zM1136.5 280.5q161.5 148.5 161.5 460.5q0 311 -161.5 461t-488.5 150q-127 0 -283 -25v-507h389v-116h-389
v-555q119 -17 279 -17q331 0 492.5 148.5z" />
    <glyph glyph-name="Ntilde" unicode="&#xd1;" horiz-adv-x="1656" 
d="M1299 1480h163v-1480h-176l-929 1242v-1242h-163v1480h176l929 -1242v1242zM912 1680q-41 10 -99 29q-53 17 -87 25.5t-70 8.5q-59 0 -103.5 -16t-86.5 -52v109q35 33 81.5 48.5t111.5 15.5q46 0 87 -10t99 -29q50 -17 85.5 -26t71.5 -9q59 0 103.5 16.5t86.5 52.5v-110
q-35 -32 -81.5 -47.5t-111.5 -15.5q-46 0 -87 10z" />
    <glyph glyph-name="Ograve" unicode="&#xd2;" horiz-adv-x="1653" 
d="M454.5 64.5q-157.5 83.5 -244 253.5t-86.5 422t87.5 422t245 253.5t369.5 83.5q214 0 371.5 -83.5t244 -253.5t86.5 -422q0 -251 -87.5 -421.5t-245 -254t-369.5 -83.5q-214 0 -371.5 83.5zM1213 274q139 149 139 461q0 318 -139 469t-387 151q-247 0 -386.5 -149
t-139.5 -461q0 -320 138.5 -470t387.5 -150q248 0 387 149zM746 1608l-245 284h187l218 -284h-160z" />
    <glyph glyph-name="Oacute" unicode="&#xd3;" horiz-adv-x="1653" 
d="M454.5 64.5q-157.5 83.5 -244 253.5t-86.5 422t87.5 422t245 253.5t369.5 83.5q214 0 371.5 -83.5t244 -253.5t86.5 -422q0 -251 -87.5 -421.5t-245 -254t-369.5 -83.5q-214 0 -371.5 83.5zM1213 274q139 149 139 461q0 318 -139 469t-387 151q-247 0 -386.5 -149
t-139.5 -461q0 -320 138.5 -470t387.5 -150q248 0 387 149zM745 1608l218 284h187l-245 -284h-160z" />
    <glyph glyph-name="Ocircumflex" unicode="&#xd4;" horiz-adv-x="1653" 
d="M454.5 64.5q-157.5 83.5 -244 253.5t-86.5 422t87.5 422t245 253.5t369.5 83.5q214 0 371.5 -83.5t244 -253.5t86.5 -422q0 -251 -87.5 -421.5t-245 -254t-369.5 -83.5q-214 0 -371.5 83.5zM1213 274q139 149 139 461q0 318 -139 469t-387 151q-247 0 -386.5 -149
t-139.5 -461q0 -320 138.5 -470t387.5 -150q248 0 387 149zM1199 1608h-161l-212 208l-212 -208h-161l296 284h154z" />
    <glyph glyph-name="Otilde" unicode="&#xd5;" horiz-adv-x="1653" 
d="M454.5 64.5q-157.5 83.5 -244 253.5t-86.5 422t87.5 422t245 253.5t369.5 83.5q214 0 371.5 -83.5t244 -253.5t86.5 -422q0 -251 -87.5 -421.5t-245 -254t-369.5 -83.5q-214 0 -371.5 83.5zM1213 274q139 149 139 461q0 318 -139 469t-387 151q-247 0 -386.5 -149
t-139.5 -461q0 -320 138.5 -470t387.5 -150q248 0 387 149zM909 1680q-41 10 -99 29q-53 17 -87 25.5t-70 8.5q-59 0 -103.5 -16t-86.5 -52v109q35 33 81.5 48.5t111.5 15.5q46 0 87 -10t99 -29q50 -17 85.5 -26t71.5 -9q59 0 103.5 16.5t86.5 52.5v-110
q-35 -32 -81.5 -47.5t-111.5 -15.5q-46 0 -87 10z" />
    <glyph glyph-name="Odieresis" unicode="&#xd6;" horiz-adv-x="1653" 
d="M454.5 64.5q-157.5 83.5 -244 253.5t-86.5 422t87.5 422t245 253.5t369.5 83.5q214 0 371.5 -83.5t244 -253.5t86.5 -422q0 -251 -87.5 -421.5t-245 -254t-369.5 -83.5q-214 0 -371.5 83.5zM1213 274q139 149 139 461q0 318 -139 469t-387 151q-247 0 -386.5 -149
t-139.5 -461q0 -320 138.5 -470t387.5 -150q248 0 387 149zM480 1684.5q-27 24.5 -27 66.5q0 43 27 68.5t77 25.5t77 -25.5t27 -68.5q0 -42 -27 -66.5t-77 -24.5t-77 24.5zM1018 1684.5q-27 24.5 -27 66.5q0 43 27 68.5t77 25.5t77 -25.5t27 -68.5q0 -42 -27 -66.5
t-77 -24.5t-77 24.5z" />
    <glyph glyph-name="multiply" unicode="&#xd7;" horiz-adv-x="1035" 
d="M224 373l-93 94l293 293l-293 293l93 94l294 -294l293 294l94 -94l-294 -293l294 -293l-94 -94l-293 294z" />
    <glyph glyph-name="Oslash" unicode="&#xd8;" horiz-adv-x="1653" 
d="M1528 740q0 -251 -87.5 -421.5t-245 -254t-369.5 -83.5q-140 0 -257.5 36t-205.5 109l-133 -154l-78 69l137 158q-165 196 -165 541q0 252 87.5 422t245 253.5t369.5 83.5q287 0 463 -145l133 154l79 -69l-137 -158q164 -195 164 -541zM400 327l784 906
q-131 122 -358 122q-247 0 -386.5 -149t-139.5 -461q0 -265 100 -418zM1213 274q139 149 139 461q0 262 -100 417l-785 -906q131 -121 359 -121q248 0 387 149z" />
    <glyph glyph-name="Ugrave" unicode="&#xd9;" horiz-adv-x="1599" 
d="M336 131.5q-149 150.5 -149 466.5v882h171v-899q0 -237 107.5 -346t335.5 -109t336 109t108 346v899h167v-882q0 -316 -148.5 -466.5t-462.5 -150.5q-316 0 -465 150.5zM721 1608l-245 284h187l218 -284h-160z" />
    <glyph glyph-name="Uacute" unicode="&#xda;" horiz-adv-x="1599" 
d="M336 131.5q-149 150.5 -149 466.5v882h171v-899q0 -237 107.5 -346t335.5 -109t336 109t108 346v899h167v-882q0 -316 -148.5 -466.5t-462.5 -150.5q-316 0 -465 150.5zM720 1608l218 284h187l-245 -284h-160z" />
    <glyph glyph-name="Ucircumflex" unicode="&#xdb;" horiz-adv-x="1599" 
d="M336 131.5q-149 150.5 -149 466.5v882h171v-899q0 -237 107.5 -346t335.5 -109t336 109t108 346v899h167v-882q0 -316 -148.5 -466.5t-462.5 -150.5q-316 0 -465 150.5zM1174 1608h-161l-212 208l-212 -208h-161l296 284h154z" />
    <glyph glyph-name="Udieresis" unicode="&#xdc;" horiz-adv-x="1599" 
d="M336 131.5q-149 150.5 -149 466.5v882h171v-899q0 -237 107.5 -346t335.5 -109t336 109t108 346v899h167v-882q0 -316 -148.5 -466.5t-462.5 -150.5q-316 0 -465 150.5zM455 1684.5q-27 24.5 -27 66.5q0 43 27 68.5t77 25.5t77 -25.5t27 -68.5q0 -42 -27 -66.5t-77 -24.5
t-77 24.5zM993 1684.5q-27 24.5 -27 66.5q0 43 27 68.5t77 25.5t77 -25.5t27 -68.5q0 -42 -27 -66.5t-77 -24.5t-77 24.5z" />
    <glyph glyph-name="Yacute" unicode="&#xdd;" horiz-adv-x="1317" 
d="M1333 1480l-588 -822v-658h-171v657l-601 823h192l498 -681l489 681h181zM577 1608l218 284h187l-245 -284h-160z" />
    <glyph glyph-name="Thorn" unicode="&#xde;" horiz-adv-x="1378" 
d="M194 1481h171v-237q126 21 264 21q318 0 479 -122t161 -380q0 -251 -163.5 -379.5t-504.5 -128.5q-119 0 -236 11v-266h-171v1481zM889 427q110 41 160.5 123.5t50.5 210.5q0 193 -114 283t-348 90q-147 0 -273 -23v-710q114 -15 236 -15q178 0 288 41z" />
    <glyph glyph-name="germandbls" unicode="&#xdf;" horiz-adv-x="1572" 
d="M1352 537.5q69 -35.5 102 -93t33 -143.5q0 -151 -121 -235.5t-362 -84.5q-190 0 -343 44v129q171 -47 346 -47q169 0 242.5 46.5t73.5 136.5q0 48 -17 80t-58.5 53.5t-113.5 34.5l-183 30q-163 27 -235.5 99.5t-72.5 193.5q0 147 116.5 231.5t351.5 84.5q26 0 82 -2
q6 47 6 86q0 172 -99 251.5t-272 79.5q-202 0 -304 -103t-102 -323v-1086h-168v942h-225v143h225v2q0 270 146 409.5t419 139.5q151 0 266 -51t179.5 -157.5t64.5 -265.5q0 -45 -7.5 -98.5t-20.5 -100.5q-80 12 -168 12q-178 0 -252 -49t-74 -136q0 -65 41 -107.5t141 -60.5
l183 -30q111 -19 180 -54.5z" />
    <glyph glyph-name="agrave" unicode="&#xe0;" horiz-adv-x="1166" 
d="M801.5 1064q101.5 -38 153 -127t51.5 -240v-697h-142l-12 123h-11q-61 -65 -157.5 -103t-202.5 -38q-116 0 -198.5 36.5t-125 103.5t-42.5 157q0 141 102.5 218.5t328.5 99.5l294 32v76q0 103 -35 160.5t-103.5 80.5t-179.5 23q-77 0 -164 -13t-168 -40v132q76 26 170 40
t182 14q158 0 259.5 -38zM692 139.5q83 33.5 148 99.5v281l-284 -31q-145 -17 -207.5 -64t-62.5 -133q0 -89 58 -137.5t175 -48.5q90 0 173 33.5zM498 1253l-292 363h191l265 -363h-164z" />
    <glyph glyph-name="aacute" unicode="&#xe1;" horiz-adv-x="1166" 
d="M801.5 1064q101.5 -38 153 -127t51.5 -240v-697h-142l-12 123h-11q-61 -65 -157.5 -103t-202.5 -38q-116 0 -198.5 36.5t-125 103.5t-42.5 157q0 141 102.5 218.5t328.5 99.5l294 32v76q0 103 -35 160.5t-103.5 80.5t-179.5 23q-77 0 -164 -13t-168 -40v132q76 26 170 40
t182 14q158 0 259.5 -38zM692 139.5q83 33.5 148 99.5v281l-284 -31q-145 -17 -207.5 -64t-62.5 -133q0 -89 58 -137.5t175 -48.5q90 0 173 33.5zM498 1253l265 363h191l-292 -363h-164z" />
    <glyph glyph-name="acircumflex" unicode="&#xe2;" horiz-adv-x="1166" 
d="M801.5 1064q101.5 -38 153 -127t51.5 -240v-697h-142l-12 123h-11q-61 -65 -157.5 -103t-202.5 -38q-116 0 -198.5 36.5t-125 103.5t-42.5 157q0 141 102.5 218.5t328.5 99.5l294 32v76q0 103 -35 160.5t-103.5 80.5t-179.5 23q-77 0 -164 -13t-168 -40v132q76 26 170 40
t182 14q158 0 259.5 -38zM692 139.5q83 33.5 148 99.5v281l-284 -31q-145 -17 -207.5 -64t-62.5 -133q0 -89 58 -137.5t175 -48.5q90 0 173 33.5zM920 1253h-143l-197 274l-197 -274h-143l267 363h146z" />
    <glyph glyph-name="atilde" unicode="&#xe3;" horiz-adv-x="1166" 
d="M801.5 1064q101.5 -38 153 -127t51.5 -240v-697h-142l-12 123h-11q-61 -65 -157.5 -103t-202.5 -38q-116 0 -198.5 36.5t-125 103.5t-42.5 157q0 141 102.5 218.5t328.5 99.5l294 32v76q0 103 -35 160.5t-103.5 80.5t-179.5 23q-77 0 -164 -13t-168 -40v132q76 26 170 40
t182 14q158 0 259.5 -38zM692 139.5q83 33.5 148 99.5v281l-284 -31q-145 -17 -207.5 -64t-62.5 -133q0 -89 58 -137.5t175 -48.5q90 0 173 33.5zM657 1356q-38 11 -93 32q-46 19 -79 28.5t-65 9.5q-53 0 -96.5 -18t-84.5 -58v117q68 67 184 67q42 0 80 -11t93 -32
q46 -19 79 -28.5t65 -9.5q53 0 96.5 18t84.5 57v-117q-67 -66 -184 -66q-42 0 -80 11z" />
    <glyph glyph-name="adieresis" unicode="&#xe4;" horiz-adv-x="1166" 
d="M801.5 1064q101.5 -38 153 -127t51.5 -240v-697h-142l-12 123h-11q-61 -65 -157.5 -103t-202.5 -38q-116 0 -198.5 36.5t-125 103.5t-42.5 157q0 141 102.5 218.5t328.5 99.5l294 32v76q0 103 -35 160.5t-103.5 80.5t-179.5 23q-77 0 -164 -13t-168 -40v132q76 26 170 40
t182 14q158 0 259.5 -38zM692 139.5q83 33.5 148 99.5v281l-284 -31q-145 -17 -207.5 -64t-62.5 -133q0 -89 58 -137.5t175 -48.5q90 0 173 33.5zM250.5 1348.5q-27.5 26.5 -27.5 72.5t27.5 73t77.5 27t78 -27t28 -73t-27.5 -72.5t-78.5 -26.5q-50 0 -77.5 26.5z
M753.5 1348.5q-27.5 26.5 -27.5 72.5t28 73t78 27t77.5 -27t27.5 -73t-27.5 -72.5t-77.5 -26.5q-51 0 -78.5 26.5z" />
    <glyph glyph-name="aring" unicode="&#xe5;" horiz-adv-x="1166" 
d="M801.5 1064q101.5 -38 153 -127t51.5 -240v-697h-142l-12 123h-11q-61 -65 -157.5 -103t-202.5 -38q-116 0 -198.5 36.5t-125 103.5t-42.5 157q0 141 102.5 218.5t328.5 99.5l294 32v76q0 103 -35 160.5t-103.5 80.5t-179.5 23q-77 0 -164 -13t-168 -40v132q76 26 170 40
t182 14q158 0 259.5 -38zM692 139.5q83 33.5 148 99.5v281l-284 -31q-145 -17 -207.5 -64t-62.5 -133q0 -89 58 -137.5t175 -48.5q90 0 173 33.5zM479.5 1273q-44.5 25 -69.5 69t-25 99t25 99.5t69.5 69.5t100.5 25t100.5 -25t69.5 -69.5t25 -99.5t-25 -99t-69.5 -69
t-100.5 -25t-100.5 25zM664.5 1354.5q32.5 32.5 32.5 86.5q0 55 -32.5 87.5t-84.5 32.5t-84.5 -32.5t-32.5 -87.5q0 -54 32.5 -86.5t84.5 -32.5t84.5 32.5z" />
    <glyph glyph-name="ae" unicode="&#xe6;" horiz-adv-x="1889" 
d="M1796 489h-789q7 -198 111 -287.5t313 -89.5q137 0 307 48v-131q-169 -48 -329 -48q-337 0 -473 195q-104 -105 -214.5 -149.5t-229.5 -44.5q-120 0 -204.5 36.5t-128.5 104t-44 158.5q0 148 110.5 233t346.5 85h268v106q0 103 -35 160.5t-103.5 80.5t-179.5 23
q-77 0 -164 -13t-168 -40v132q77 26 168.5 40t178.5 14q163 0 264 -44t147 -146q60 94 157.5 142t225.5 48q148 0 252 -64.5t158.5 -190.5t54.5 -307v-51zM1006 599h630q-5 196 -83.5 290.5t-228.5 94.5q-308 0 -318 -385zM711.5 146.5q92.5 40.5 170.5 132.5
q-33 87 -41 211h-264q-154 0 -222.5 -53t-68.5 -144q0 -90 59 -138.5t176 -48.5q98 0 190.5 40.5z" />
    <glyph glyph-name="ccedilla" unicode="&#xe7;" horiz-adv-x="1012" 
d="M388.5 861.5q-103.5 -100.5 -103.5 -316.5q0 -219 97 -322t289 -103q64 0 132 12t154 39v-139q-142 -51 -303 -51h-8v-82q84 -7 128 -48t44 -110q0 -75 -56 -115.5t-158 -40.5q-51 0 -102 10t-87 28v81q86 -41 183 -41q61 0 91.5 20t30.5 64t-30.5 64t-92.5 20h-44v156
q-215 25 -328 164t-113 391q0 279 148 419.5t432 140.5q146 0 265 -35v-139q-65 17 -125 25.5t-127 8.5q-213 0 -316.5 -100.5z" />
    <glyph glyph-name="egrave" unicode="&#xe8;" horiz-adv-x="1172" 
d="M1079 489h-797q7 -198 112 -287.5t317 -89.5q136 0 310 48v-131q-172 -48 -332 -48q-285 0 -431 137.5t-146 423.5q0 181 58.5 306.5t169 189.5t265.5 64q229 0 351.5 -145t122.5 -420v-48zM367.5 889.5q-81.5 -94.5 -86.5 -290.5h638q-5 197 -84 291t-232 94
q-154 0 -235.5 -94.5zM525 1253l-292 363h191l265 -363h-164z" />
    <glyph glyph-name="eacute" unicode="&#xe9;" horiz-adv-x="1172" 
d="M1079 489h-797q7 -198 112 -287.5t317 -89.5q136 0 310 48v-131q-172 -48 -332 -48q-285 0 -431 137.5t-146 423.5q0 181 58.5 306.5t169 189.5t265.5 64q229 0 351.5 -145t122.5 -420v-48zM367.5 889.5q-81.5 -94.5 -86.5 -290.5h638q-5 197 -84 291t-232 94
q-154 0 -235.5 -94.5zM525 1253l265 363h191l-292 -363h-164z" />
    <glyph glyph-name="ecircumflex" unicode="&#xea;" horiz-adv-x="1172" 
d="M1079 489h-797q7 -198 112 -287.5t317 -89.5q136 0 310 48v-131q-172 -48 -332 -48q-285 0 -431 137.5t-146 423.5q0 181 58.5 306.5t169 189.5t265.5 64q229 0 351.5 -145t122.5 -420v-48zM367.5 889.5q-81.5 -94.5 -86.5 -290.5h638q-5 197 -84 291t-232 94
q-154 0 -235.5 -94.5zM947 1253h-143l-197 274l-197 -274h-143l267 363h146z" />
    <glyph glyph-name="edieresis" unicode="&#xeb;" horiz-adv-x="1172" 
d="M1079 489h-797q7 -198 112 -287.5t317 -89.5q136 0 310 48v-131q-172 -48 -332 -48q-285 0 -431 137.5t-146 423.5q0 181 58.5 306.5t169 189.5t265.5 64q229 0 351.5 -145t122.5 -420v-48zM367.5 889.5q-81.5 -94.5 -86.5 -290.5h638q-5 197 -84 291t-232 94
q-154 0 -235.5 -94.5zM277.5 1348.5q-27.5 26.5 -27.5 72.5t27.5 73t77.5 27t78 -27t28 -73t-27.5 -72.5t-78.5 -26.5q-50 0 -77.5 26.5zM780.5 1348.5q-27.5 26.5 -27.5 72.5t28 73t78 27t77.5 -27t27.5 -73t-27.5 -72.5t-77.5 -26.5q-51 0 -78.5 26.5z" />
    <glyph glyph-name="igrave" unicode="&#xec;" horiz-adv-x="520" 
d="M176 0v1085h168v-1085h-168zM178 1253l-292 363h191l265 -363h-164z" />
    <glyph glyph-name="iacute" unicode="&#xed;" horiz-adv-x="520" 
d="M176 0v1085h168v-1085h-168zM178 1253l265 363h191l-292 -363h-164z" />
    <glyph glyph-name="icircumflex" unicode="&#xee;" horiz-adv-x="520" 
d="M176 0v1085h168v-1085h-168zM600 1253h-143l-197 274l-197 -274h-143l267 363h146z" />
    <glyph glyph-name="idieresis" unicode="&#xef;" horiz-adv-x="520" 
d="M176 0v1085h168v-1085h-168zM-69.5 1348.5q-27.5 26.5 -27.5 72.5t27.5 73t77.5 27t78 -27t28 -73t-27.5 -72.5t-78.5 -26.5q-50 0 -77.5 26.5zM433.5 1348.5q-27.5 26.5 -27.5 72.5t28 73t78 27t77.5 -27t27.5 -73t-27.5 -72.5t-77.5 -26.5q-51 0 -78.5 26.5z" />
    <glyph glyph-name="eth" unicode="&#xf0;" horiz-adv-x="1270" 
d="M1087 963q70 -189 70 -376q0 -202 -63.5 -337.5t-180 -202t-277.5 -66.5t-278.5 61.5t-181.5 187.5t-64 313q0 184 63.5 308.5t178 185.5t268.5 61q163 0 268 -78q-65 146 -165 269l-494 -77l-16 105l427 67q-120 125 -284 232h222q126 -85 236 -205l297 46l17 -105
l-236 -37q123 -163 193 -352zM896 222q92 104 92 319q0 222 -91 323t-262 101t-262 -101t-91 -320q0 -426 354 -426q168 0 260 104z" />
    <glyph glyph-name="ntilde" unicode="&#xf1;" horiz-adv-x="1299" 
d="M176 1085h140l12 -124h11q79 68 181 104.5t213 36.5q191 0 298.5 -103t107.5 -322v-677h-168v672q0 150 -69.5 216.5t-203.5 66.5q-95 0 -190 -36t-164 -110v-809h-168v1085zM735 1356q-38 11 -93 32q-46 19 -79 28.5t-65 9.5q-53 0 -96.5 -18t-84.5 -58v117
q68 67 184 67q42 0 80 -11t93 -32q46 -19 79 -28.5t65 -9.5q53 0 96.5 18t84.5 57v-117q-67 -66 -184 -66q-42 0 -80 11z" />
    <glyph glyph-name="ograve" unicode="&#xf2;" horiz-adv-x="1270" 
d="M358 42q-117 61 -181.5 187t-64.5 314q0 185 64 310t181 187t278 62q247 0 384.5 -139.5t137.5 -419.5q0 -185 -64.5 -311t-182 -188.5t-275.5 -62.5q-160 0 -277 61zM988 541q0 222 -91.5 322.5t-261.5 100.5t-261.5 -100t-91.5 -320q0 -426 353 -426t353 423zM553 1253
l-292 363h191l265 -363h-164z" />
    <glyph glyph-name="oacute" unicode="&#xf3;" horiz-adv-x="1270" 
d="M358 42q-117 61 -181.5 187t-64.5 314q0 185 64 310t181 187t278 62q247 0 384.5 -139.5t137.5 -419.5q0 -185 -64.5 -311t-182 -188.5t-275.5 -62.5q-160 0 -277 61zM988 541q0 222 -91.5 322.5t-261.5 100.5t-261.5 -100t-91.5 -320q0 -426 353 -426t353 423zM553 1253
l265 363h191l-292 -363h-164z" />
    <glyph glyph-name="ocircumflex" unicode="&#xf4;" horiz-adv-x="1270" 
d="M358 42q-117 61 -181.5 187t-64.5 314q0 185 64 310t181 187t278 62q247 0 384.5 -139.5t137.5 -419.5q0 -185 -64.5 -311t-182 -188.5t-275.5 -62.5q-160 0 -277 61zM988 541q0 222 -91.5 322.5t-261.5 100.5t-261.5 -100t-91.5 -320q0 -426 353 -426t353 423zM975 1253
h-143l-197 274l-197 -274h-143l267 363h146z" />
    <glyph glyph-name="otilde" unicode="&#xf5;" horiz-adv-x="1270" 
d="M358 42q-117 61 -181.5 187t-64.5 314q0 185 64 310t181 187t278 62q247 0 384.5 -139.5t137.5 -419.5q0 -185 -64.5 -311t-182 -188.5t-275.5 -62.5q-160 0 -277 61zM988 541q0 222 -91.5 322.5t-261.5 100.5t-261.5 -100t-91.5 -320q0 -426 353 -426t353 423zM712 1356
q-38 11 -93 32q-46 19 -79 28.5t-65 9.5q-53 0 -96.5 -18t-84.5 -58v117q68 67 184 67q42 0 80 -11t93 -32q46 -19 79 -28.5t65 -9.5q53 0 96.5 18t84.5 57v-117q-67 -66 -184 -66q-42 0 -80 11z" />
    <glyph glyph-name="odieresis" unicode="&#xf6;" horiz-adv-x="1270" 
d="M358 42q-117 61 -181.5 187t-64.5 314q0 185 64 310t181 187t278 62q247 0 384.5 -139.5t137.5 -419.5q0 -185 -64.5 -311t-182 -188.5t-275.5 -62.5q-160 0 -277 61zM988 541q0 222 -91.5 322.5t-261.5 100.5t-261.5 -100t-91.5 -320q0 -426 353 -426t353 423z
M305.5 1348.5q-27.5 26.5 -27.5 72.5t27.5 73t77.5 27t78 -27t28 -73t-27.5 -72.5t-78.5 -26.5q-50 0 -77.5 26.5zM808.5 1348.5q-27.5 26.5 -27.5 72.5t28 73t78 27t77.5 -27t27.5 -73t-27.5 -72.5t-77.5 -26.5q-51 0 -78.5 26.5z" />
    <glyph glyph-name="divide" unicode="&#xf7;" horiz-adv-x="1130" 
d="M482 1046.5q-31 28.5 -31 77.5t31 78t83 29t83 -29.5t31 -77.5t-31 -77t-83 -29t-83 28.5zM171 693v134h788v-134h-788zM482 317.5q-31 28.5 -31 77.5t31 78t83 29t83 -29.5t31 -77.5q0 -49 -31 -77.5t-83 -28.5t-83 28.5z" />
    <glyph glyph-name="oslash" unicode="&#xf8;" horiz-adv-x="1270" 
d="M1157 543q0 -185 -64.5 -311t-182 -188.5t-275.5 -62.5q-188 0 -313 82l-78 -98l-76 63l78 99q-134 147 -134 416q0 185 64 310t181 187t278 62q190 0 314 -81l78 99l76 -63l-79 -100q133 -142 133 -414zM372.5 864.5q-91.5 -100.5 -91.5 -320.5q0 -188 68 -293l510 650
q-86 64 -224 64q-171 0 -262.5 -100.5zM989 541q0 187 -68 292l-510 -650q83 -66 224 -66q354 0 354 424z" />
    <glyph glyph-name="ugrave" unicode="&#xf9;" horiz-adv-x="1289" 
d="M267.5 83.5q-107.5 101.5 -107.5 317.5v684h168v-676q0 -149 70 -215t197 -66q96 0 188.5 37.5t161.5 110.5v809h168v-1085h-140l-12 120h-10q-78 -67 -177.5 -102.5t-208.5 -35.5q-190 0 -297.5 101.5zM555 1253l-292 363h191l265 -363h-164z" />
    <glyph glyph-name="uacute" unicode="&#xfa;" horiz-adv-x="1289" 
d="M267.5 83.5q-107.5 101.5 -107.5 317.5v684h168v-676q0 -149 70 -215t197 -66q96 0 188.5 37.5t161.5 110.5v809h168v-1085h-140l-12 120h-10q-78 -67 -177.5 -102.5t-208.5 -35.5q-190 0 -297.5 101.5zM555 1253l265 363h191l-292 -363h-164z" />
    <glyph glyph-name="ucircumflex" unicode="&#xfb;" horiz-adv-x="1289" 
d="M267.5 83.5q-107.5 101.5 -107.5 317.5v684h168v-676q0 -149 70 -215t197 -66q96 0 188.5 37.5t161.5 110.5v809h168v-1085h-140l-12 120h-10q-78 -67 -177.5 -102.5t-208.5 -35.5q-190 0 -297.5 101.5zM977 1253h-143l-197 274l-197 -274h-143l267 363h146z" />
    <glyph glyph-name="udieresis" unicode="&#xfc;" horiz-adv-x="1289" 
d="M267.5 83.5q-107.5 101.5 -107.5 317.5v684h168v-676q0 -149 70 -215t197 -66q96 0 188.5 37.5t161.5 110.5v809h168v-1085h-140l-12 120h-10q-78 -67 -177.5 -102.5t-208.5 -35.5q-190 0 -297.5 101.5zM307.5 1348.5q-27.5 26.5 -27.5 72.5t27.5 73t77.5 27t78 -27
t28 -73t-27.5 -72.5t-78.5 -26.5q-50 0 -77.5 26.5zM810.5 1348.5q-27.5 26.5 -27.5 72.5t28 73t78 27t77.5 -27t27.5 -73t-27.5 -72.5t-77.5 -26.5q-51 0 -78.5 26.5z" />
    <glyph glyph-name="yacute" unicode="&#xfd;" horiz-adv-x="1206" 
d="M1014 1085h167l-666 -1525h-167l192 440h-42l-473 1085h180l401 -951zM522 1253l265 363h191l-292 -363h-164z" />
    <glyph glyph-name="thorn" unicode="&#xfe;" horiz-adv-x="1294" 
d="M176 1616h168v-653h9q65 66 155 102.5t198 36.5q138 0 245 -56.5t169 -177t62 -304.5q0 -288 -153 -435.5t-449 -147.5q-104 0 -236 20v-441h-168v2056zM904.5 223q107.5 106 107.5 327q0 216 -93.5 313t-257.5 97q-91 0 -174 -34.5t-143 -108.5v-673q47 -13 107.5 -20
t122.5 -7q223 0 330.5 106z" />
    <glyph glyph-name="ydieresis" unicode="&#xff;" horiz-adv-x="1206" 
d="M1014 1085h167l-666 -1525h-167l192 440h-42l-473 1085h180l401 -951zM274.5 1348.5q-27.5 26.5 -27.5 72.5t27.5 73t77.5 27t78 -27t28 -73t-27.5 -72.5t-78.5 -26.5q-50 0 -77.5 26.5zM777.5 1348.5q-27.5 26.5 -27.5 72.5t28 73t78 27t77.5 -27t27.5 -73t-27.5 -72.5
t-77.5 -26.5q-51 0 -78.5 26.5z" />
    <glyph glyph-name="Amacron" unicode="&#x100;" horiz-adv-x="1522" 
d="M1308 0l-192 479h-713l-192 -479h-171l602 1480h238l602 -1480h-174zM459 617h601l-300 749zM425 1696v108h672v-108h-672z" />
    <glyph glyph-name="amacron" unicode="&#x101;" horiz-adv-x="1166" 
d="M801.5 1064q101.5 -38 153 -127t51.5 -240v-697h-142l-12 123h-11q-61 -65 -157.5 -103t-202.5 -38q-116 0 -198.5 36.5t-125 103.5t-42.5 157q0 141 102.5 218.5t328.5 99.5l294 32v76q0 103 -35 160.5t-103.5 80.5t-179.5 23q-77 0 -164 -13t-168 -40v132q76 26 170 40
t182 14q158 0 259.5 -38zM692 139.5q83 33.5 148 99.5v281l-284 -31q-145 -17 -207.5 -64t-62.5 -133q0 -89 58 -137.5t175 -48.5q90 0 173 33.5zM239 1369v108h682v-108h-682z" />
    <glyph glyph-name="Abreve" unicode="&#x102;" horiz-adv-x="1522" 
d="M1308 0l-192 479h-713l-192 -479h-171l602 1480h238l602 -1480h-174zM459 617h601l-300 749zM503 1687q-90 70 -105 184h114q14 -74 72.5 -115t177.5 -41q120 0 177 40.5t71 115.5h114q-15 -115 -104 -184.5t-258 -69.5t-259 70z" />
    <glyph glyph-name="abreve" unicode="&#x103;" horiz-adv-x="1166" 
d="M801.5 1064q101.5 -38 153 -127t51.5 -240v-697h-142l-12 123h-11q-61 -65 -157.5 -103t-202.5 -38q-116 0 -198.5 36.5t-125 103.5t-42.5 157q0 141 102.5 218.5t328.5 99.5l294 32v76q0 103 -35 160.5t-103.5 80.5t-179.5 23q-77 0 -164 -13t-168 -40v132q76 26 170 40
t182 14q158 0 259.5 -38zM692 139.5q83 33.5 148 99.5v281l-284 -31q-145 -17 -207.5 -64t-62.5 -133q0 -89 58 -137.5t175 -48.5q90 0 173 33.5zM399.5 1304q-75.5 41 -116 114.5t-45.5 171.5h113q9 -108 64.5 -168.5t165.5 -60.5q209 0 228 229h113q-8 -150 -95.5 -238.5
t-245.5 -88.5q-106 0 -181.5 41z" />
    <glyph glyph-name="Aogonek" unicode="&#x104;" horiz-adv-x="1522" 
d="M1496.5 -325.5q40.5 8.5 97.5 28.5v-81q-94 -37 -193 -37q-121 0 -184.5 48.5t-63.5 135.5q0 67 37.5 124t123.5 107h-6l-192 479h-713l-192 -479h-171l602 1480h238l602 -1480q-124 -54 -173 -105.5t-49 -114.5q0 -55 40 -84.5t117 -29.5q39 0 79.5 8.5zM459 617h601
l-300 749z" />
    <glyph glyph-name="aogonek" unicode="&#x105;" horiz-adv-x="1166" 
d="M1099 -294v-82q-83 -39 -174 -39q-108 0 -168 49.5t-60 134.5q0 72 40 131t126 109l-11 114h-11q-61 -65 -157.5 -103t-202.5 -38q-116 0 -198.5 36.5t-125 103.5t-42.5 157q0 141 102.5 218.5t328.5 99.5l294 32v76q0 103 -35 160.5t-103.5 80.5t-179.5 23
q-77 0 -164 -13t-168 -40v132q76 26 170 40t182 14q158 0 259.5 -38t153 -127t51.5 -240v-697q-109 -52 -155.5 -104t-46.5 -117q0 -52 36.5 -82.5t100.5 -30.5q78 0 158 40zM692 139.5q83 33.5 148 99.5v281l-284 -31q-145 -17 -207.5 -64t-62.5 -133q0 -89 58 -137.5
t175 -48.5q90 0 173 33.5z" />
    <glyph glyph-name="Cacute" unicode="&#x106;" horiz-adv-x="1327" 
d="M322.5 163q-198.5 182 -198.5 574q0 255 92 425t264.5 253.5t416.5 83.5q102 0 191 -12t180 -37v-146q-175 49 -363 49q-297 0 -449 -147.5t-152 -464.5q0 -326 150.5 -470t435.5 -144q100 0 189.5 14t188.5 46v-146q-176 -60 -387 -60q-360 0 -558.5 182zM709 1608
l218 284h187l-245 -284h-160z" />
    <glyph glyph-name="cacute" unicode="&#x107;" horiz-adv-x="1012" 
d="M251.5 121.5q-139.5 140.5 -139.5 420.5q0 279 148 419.5t432 140.5q146 0 265 -35v-139q-65 17 -125 25.5t-127 8.5q-213 0 -316.5 -100.5t-103.5 -316.5q0 -219 97 -322t289 -103q64 0 132 12t154 39v-139q-142 -51 -303 -51q-263 0 -402.5 140.5zM511 1253l265 363
h191l-292 -363h-164z" />
    <glyph glyph-name="Ccircumflex" unicode="&#x108;" horiz-adv-x="1327" 
d="M322.5 163q-198.5 182 -198.5 574q0 255 92 425t264.5 253.5t416.5 83.5q102 0 191 -12t180 -37v-146q-175 49 -363 49q-297 0 -449 -147.5t-152 -464.5q0 -326 150.5 -470t435.5 -144q100 0 189.5 14t188.5 46v-146q-176 -60 -387 -60q-360 0 -558.5 182zM1163 1608
h-161l-212 208l-212 -208h-161l296 284h154z" />
    <glyph glyph-name="ccircumflex" unicode="&#x109;" horiz-adv-x="1012" 
d="M251.5 121.5q-139.5 140.5 -139.5 420.5q0 279 148 419.5t432 140.5q146 0 265 -35v-139q-65 17 -125 25.5t-127 8.5q-213 0 -316.5 -100.5t-103.5 -316.5q0 -219 97 -322t289 -103q64 0 132 12t154 39v-139q-142 -51 -303 -51q-263 0 -402.5 140.5zM933 1253h-143
l-197 274l-197 -274h-143l267 363h146z" />
    <glyph glyph-name="Cdotaccent" unicode="&#x10a;" horiz-adv-x="1327" 
d="M322.5 163q-198.5 182 -198.5 574q0 255 92 425t264.5 253.5t416.5 83.5q102 0 191 -12t180 -37v-146q-175 49 -363 49q-297 0 -449 -147.5t-152 -464.5q0 -326 150.5 -470t435.5 -144q100 0 189.5 14t188.5 46v-146q-176 -60 -387 -60q-360 0 -558.5 182zM705.5 1684.5
q-29.5 24.5 -29.5 66.5q0 43 29.5 68.5t84.5 25.5t84.5 -25.5t29.5 -68.5q0 -42 -29.5 -66.5t-84.5 -24.5t-84.5 24.5z" />
    <glyph glyph-name="cdotaccent" unicode="&#x10b;" horiz-adv-x="1012" 
d="M251.5 121.5q-139.5 140.5 -139.5 420.5q0 279 148 419.5t432 140.5q146 0 265 -35v-139q-65 17 -125 25.5t-127 8.5q-213 0 -316.5 -100.5t-103.5 -316.5q0 -219 97 -322t289 -103q64 0 132 12t154 39v-139q-142 -51 -303 -51q-263 0 -402.5 140.5zM507 1347
q-30 26 -30 74t30 74.5t86 26.5t86 -26.5t30 -74.5t-30 -74t-86 -26t-86 26z" />
    <glyph glyph-name="Ccaron" unicode="&#x10c;" horiz-adv-x="1327" 
d="M322.5 163q-198.5 182 -198.5 574q0 255 92 425t264.5 253.5t416.5 83.5q102 0 191 -12t180 -37v-146q-175 49 -363 49q-297 0 -449 -147.5t-152 -464.5q0 -326 150.5 -470t435.5 -144q100 0 189.5 14t188.5 46v-146q-176 -60 -387 -60q-360 0 -558.5 182zM1002 1892h161
l-296 -284h-154l-296 284h161l212 -208z" />
    <glyph glyph-name="ccaron" unicode="&#x10d;" horiz-adv-x="1012" 
d="M251.5 121.5q-139.5 140.5 -139.5 420.5q0 279 148 419.5t432 140.5q146 0 265 -35v-139q-65 17 -125 25.5t-127 8.5q-213 0 -316.5 -100.5t-103.5 -316.5q0 -219 97 -322t289 -103q64 0 132 12t154 39v-139q-142 -51 -303 -51q-263 0 -402.5 140.5zM796 1616h143
l-273 -363h-146l-273 363h143l203 -276z" />
    <glyph glyph-name="Dcaron" unicode="&#x10e;" horiz-adv-x="1598" 
d="M194 15v1433q102 22 222.5 34t230.5 12q409 0 618 -188.5t209 -565.5q0 -382 -215.5 -566.5t-648.5 -184.5q-213 0 -416 26zM1136.5 280.5q161.5 148.5 161.5 460.5q0 311 -161.5 461t-488.5 150q-127 0 -283 -25v-1178q119 -17 279 -17q331 0 492.5 148.5zM935 1892h161
l-296 -284h-154l-296 284h161l212 -208z" />
    <glyph glyph-name="dcaron" unicode="&#x10f;" horiz-adv-x="1294" 
d="M346.5 39.5q-109.5 57.5 -172 177.5t-62.5 303q0 287 154 435t449 148q114 0 235 -22v535h168v-1616h-142l-11 125h-11q-63 -68 -154 -105.5t-199 -37.5q-145 0 -254.5 57.5zM809 158q81 35 141 110v672q-106 27 -230 27q-222 0 -330 -106t-108 -327q0 -411 354 -411
q92 0 173 35zM1248 1616h122q0 -111 -12.5 -225.5t-37.5 -210.5h-95q23 174 23 436z" />
    <glyph glyph-name="Dcroat" unicode="&#x110;" horiz-adv-x="1598" 
d="M1265 1305.5q209 -188.5 209 -565.5q0 -382 -215.5 -566.5t-648.5 -184.5q-213 0 -416 26v689h-187v116h187v628q102 22 222.5 34t230.5 12q409 0 618 -188.5zM1136.5 280.5q161.5 148.5 161.5 460.5q0 311 -161.5 461t-488.5 150q-127 0 -283 -25v-507h389v-116h-389
v-555q119 -17 279 -17q331 0 492.5 148.5z" />
    <glyph glyph-name="dcroat" unicode="&#x111;" horiz-adv-x="1294" 
d="M1282 1301h-164v-1301h-142l-11 125h-11q-63 -68 -154 -105.5t-199 -37.5q-145 0 -254.5 57.5t-172 177.5t-62.5 303q0 287 154 435t449 148q114 0 235 -22v220h-426v110h426v205h168v-205h164v-110zM950 940q-106 27 -230 27q-222 0 -330 -106t-108 -327
q0 -411 354 -411q92 0 173 35t141 110v672z" />
    <glyph glyph-name="Emacron" unicode="&#x112;" horiz-adv-x="1338" 
d="M364 138h872v-138h-1042v1480h1032v-138h-862v-514h760v-137h-760v-553zM395 1696v108h672v-108h-672z" />
    <glyph glyph-name="emacron" unicode="&#x113;" horiz-adv-x="1172" 
d="M1079 489h-797q7 -198 112 -287.5t317 -89.5q136 0 310 48v-131q-172 -48 -332 -48q-285 0 -431 137.5t-146 423.5q0 181 58.5 306.5t169 189.5t265.5 64q229 0 351.5 -145t122.5 -420v-48zM367.5 889.5q-81.5 -94.5 -86.5 -290.5h638q-5 197 -84 291t-232 94
q-154 0 -235.5 -94.5zM266 1369v108h682v-108h-682z" />
    <glyph glyph-name="Ebreve" unicode="&#x114;" horiz-adv-x="1338" 
d="M364 138h872v-138h-1042v1480h1032v-138h-862v-514h760v-137h-760v-553zM473 1687q-90 70 -105 184h114q14 -74 72.5 -115t177.5 -41q120 0 177 40.5t71 115.5h114q-15 -115 -104 -184.5t-258 -69.5t-259 70z" />
    <glyph glyph-name="ebreve" unicode="&#x115;" horiz-adv-x="1172" 
d="M1079 489h-797q7 -198 112 -287.5t317 -89.5q136 0 310 48v-131q-172 -48 -332 -48q-285 0 -431 137.5t-146 423.5q0 181 58.5 306.5t169 189.5t265.5 64q229 0 351.5 -145t122.5 -420v-48zM367.5 889.5q-81.5 -94.5 -86.5 -290.5h638q-5 197 -84 291t-232 94
q-154 0 -235.5 -94.5zM426.5 1304q-75.5 41 -116 114.5t-45.5 171.5h113q9 -108 64.5 -168.5t165.5 -60.5q209 0 228 229h113q-8 -150 -95.5 -238.5t-245.5 -88.5q-106 0 -181.5 41z" />
    <glyph glyph-name="Edotaccent" unicode="&#x116;" horiz-adv-x="1338" 
d="M364 138h872v-138h-1042v1480h1032v-138h-862v-514h760v-137h-760v-553zM646.5 1684.5q-29.5 24.5 -29.5 66.5q0 43 29.5 68.5t84.5 25.5t84.5 -25.5t29.5 -68.5q0 -42 -29.5 -66.5t-84.5 -24.5t-84.5 24.5z" />
    <glyph glyph-name="edotaccent" unicode="&#x117;" horiz-adv-x="1172" 
d="M1079 489h-797q7 -198 112 -287.5t317 -89.5q136 0 310 48v-131q-172 -48 -332 -48q-285 0 -431 137.5t-146 423.5q0 181 58.5 306.5t169 189.5t265.5 64q229 0 351.5 -145t122.5 -420v-48zM367.5 889.5q-81.5 -94.5 -86.5 -290.5h638q-5 197 -84 291t-232 94
q-154 0 -235.5 -94.5zM521 1347q-30 26 -30 74t30 74.5t86 26.5t86 -26.5t30 -74.5t-30 -74t-86 -26t-86 26z" />
    <glyph glyph-name="Eogonek" unicode="&#x118;" horiz-adv-x="1338" 
d="M1165.5 -325.5q40.5 8.5 97.5 28.5v-81q-94 -37 -193 -37q-121 0 -184.5 48.5t-63.5 135.5q0 67 37.5 124t123.5 107h-789v1480h1032v-138h-862v-514h760v-137h-760v-553h872v-138h-85q-124 -54 -173 -105.5t-49 -114.5q0 -55 40 -84.5t117 -29.5q39 0 79.5 8.5z" />
    <glyph glyph-name="eogonek" unicode="&#x119;" horiz-adv-x="1172" 
d="M1079 489h-797q7 -198 112 -287.5t317 -89.5q136 0 310 48v-131q-296 -88 -296 -248q0 -53 36.5 -84t100.5 -31q79 0 159 40v-82q-39 -18 -84.5 -28.5t-89.5 -10.5q-108 0 -168 49.5t-60 134.5q0 64 32.5 118.5t96.5 94.5q-20 -1 -59 -1q-285 0 -431 137.5t-146 423.5
q0 181 58.5 306.5t169 189.5t265.5 64q229 0 351.5 -145t122.5 -420v-48zM367.5 887q-81.5 -94 -86.5 -290h638q-5 196 -84 290t-232 94q-154 0 -235.5 -94z" />
    <glyph glyph-name="Ecaron" unicode="&#x11a;" horiz-adv-x="1338" 
d="M364 138h872v-138h-1042v1480h1032v-138h-862v-514h760v-137h-760v-553zM943 1892h161l-296 -284h-154l-296 284h161l212 -208z" />
    <glyph glyph-name="ecaron" unicode="&#x11b;" horiz-adv-x="1172" 
d="M1079 489h-797q7 -198 112 -287.5t317 -89.5q136 0 310 48v-131q-172 -48 -332 -48q-285 0 -431 137.5t-146 423.5q0 181 58.5 306.5t169 189.5t265.5 64q229 0 351.5 -145t122.5 -420v-48zM367.5 889.5q-81.5 -94.5 -86.5 -290.5h638q-5 197 -84 291t-232 94
q-154 0 -235.5 -94.5zM810 1616h143l-273 -363h-146l-273 363h143l203 -276z" />
    <glyph glyph-name="Gcircumflex" unicode="&#x11c;" horiz-adv-x="1542" 
d="M1356 720v-700q-111 -18 -201 -25.5t-189 -7.5q-417 0 -629 188.5t-213 560.5q0 254 99.5 425t281 254.5t428.5 83.5q182 0 379 -49v-146q-102 27 -190 38t-177 11q-304 0 -473 -149t-169 -462q0 -610 656 -610q123 0 235 13v575h162zM1208 1608h-161l-212 208l-212 -208
h-161l296 284h154z" />
    <glyph glyph-name="gcircumflex" unicode="&#x11d;" horiz-adv-x="1294" 
d="M371.5 -446q-99.5 14 -186.5 42v139q194 -60 369 -60q140 0 226.5 35.5t128 114.5t41.5 210v89h-9q-65 -65 -156 -100.5t-200 -35.5q-137 0 -243.5 56.5t-168 176t-61.5 299.5q0 287 154.5 434.5t456.5 147.5q209 0 395 -55v-985q0 -184 -61 -299t-183.5 -169t-312.5 -54
q-90 0 -189.5 14zM805.5 162q83.5 33 144.5 101v674q-107 29 -243 29q-212 0 -318.5 -106t-106.5 -325q0 -214 93.5 -310t255.5 -96q91 0 174.5 33zM1008 1253h-143l-197 274l-197 -274h-143l267 363h146z" />
    <glyph glyph-name="Gbreve" unicode="&#x11e;" horiz-adv-x="1542" 
d="M1356 720v-700q-111 -18 -201 -25.5t-189 -7.5q-417 0 -629 188.5t-213 560.5q0 254 99.5 425t281 254.5t428.5 83.5q182 0 379 -49v-146q-102 27 -190 38t-177 11q-304 0 -473 -149t-169 -462q0 -610 656 -610q123 0 235 13v575h162zM577 1687q-90 70 -105 184h114
q14 -74 72.5 -115t177.5 -41q120 0 177 40.5t71 115.5h114q-15 -115 -104 -184.5t-258 -69.5t-259 70z" />
    <glyph glyph-name="gbreve" unicode="&#x11f;" horiz-adv-x="1294" 
d="M371.5 -446q-99.5 14 -186.5 42v139q194 -60 369 -60q140 0 226.5 35.5t128 114.5t41.5 210v89h-9q-65 -65 -156 -100.5t-200 -35.5q-137 0 -243.5 56.5t-168 176t-61.5 299.5q0 287 154.5 434.5t456.5 147.5q209 0 395 -55v-985q0 -184 -61 -299t-183.5 -169t-312.5 -54
q-90 0 -189.5 14zM805.5 162q83.5 33 144.5 101v674q-107 29 -243 29q-212 0 -318.5 -106t-106.5 -325q0 -214 93.5 -310t255.5 -96q91 0 174.5 33zM487.5 1304q-75.5 41 -116 114.5t-45.5 171.5h113q9 -108 64.5 -168.5t165.5 -60.5q209 0 228 229h113
q-8 -150 -95.5 -238.5t-245.5 -88.5q-106 0 -181.5 41z" />
    <glyph glyph-name="Gdotaccent" unicode="&#x120;" horiz-adv-x="1542" 
d="M1356 720v-700q-111 -18 -201 -25.5t-189 -7.5q-417 0 -629 188.5t-213 560.5q0 254 99.5 425t281 254.5t428.5 83.5q182 0 379 -49v-146q-102 27 -190 38t-177 11q-304 0 -473 -149t-169 -462q0 -610 656 -610q123 0 235 13v575h162zM750.5 1684.5
q-29.5 24.5 -29.5 66.5q0 43 29.5 68.5t84.5 25.5t84.5 -25.5t29.5 -68.5q0 -42 -29.5 -66.5t-84.5 -24.5t-84.5 24.5z" />
    <glyph glyph-name="gdotaccent" unicode="&#x121;" horiz-adv-x="1294" 
d="M371.5 -446q-99.5 14 -186.5 42v139q194 -60 369 -60q140 0 226.5 35.5t128 114.5t41.5 210v89h-9q-65 -65 -156 -100.5t-200 -35.5q-137 0 -243.5 56.5t-168 176t-61.5 299.5q0 287 154.5 434.5t456.5 147.5q209 0 395 -55v-985q0 -184 -61 -299t-183.5 -169t-312.5 -54
q-90 0 -189.5 14zM805.5 162q83.5 33 144.5 101v674q-107 29 -243 29q-212 0 -318.5 -106t-106.5 -325q0 -214 93.5 -310t255.5 -96q91 0 174.5 33zM582 1347q-30 26 -30 74t30 74.5t86 26.5t86 -26.5t30 -74.5t-30 -74t-86 -26t-86 26z" />
    <glyph glyph-name="Gcommaaccent" unicode="&#x122;" horiz-adv-x="1542" 
d="M1356 720v-700q-111 -18 -201 -25.5t-189 -7.5q-417 0 -629 188.5t-213 560.5q0 254 99.5 425t281 254.5t428.5 83.5q182 0 379 -49v-146q-102 27 -190 38t-177 11q-304 0 -473 -149t-169 -462q0 -610 656 -610q123 0 235 13v575h162zM944 -273q0 -44 -15 -96t-42 -97
h-104q34 74 42 140q-49 2 -74 23.5t-25 58.5t27.5 58.5t78.5 21.5q112 0 112 -109z" />
    <glyph glyph-name="gcommaaccent" unicode="&#x123;" horiz-adv-x="1294" 
d="M371.5 -446q-99.5 14 -186.5 42v139q194 -60 369 -60q140 0 226.5 35.5t128 114.5t41.5 210v89h-9q-65 -65 -156 -100.5t-200 -35.5q-137 0 -243.5 56.5t-168 176t-61.5 299.5q0 287 154.5 434.5t456.5 147.5q209 0 395 -55v-985q0 -184 -61 -299t-183.5 -169t-312.5 -54
q-90 0 -189.5 14zM805.5 162q83.5 33 144.5 101v674q-107 29 -243 29q-212 0 -318.5 -106t-106.5 -325q0 -214 93.5 -310t255.5 -96q91 0 174.5 33zM752 1461q25 -22 25 -58q0 -37 -27.5 -58.5t-78.5 -21.5q-112 0 -112 109q0 44 15 96.5t42 96.5h104q-34 -74 -42 -140
q49 -2 74 -24z" />
    <glyph glyph-name="Hcircumflex" unicode="&#x124;" horiz-adv-x="1631" 
d="M194 0v1480h171v-645h901v645h171v-1480h-171v684h-901v-684h-171zM1189 1608h-161l-212 208l-212 -208h-161l296 284h154z" />
    <glyph glyph-name="hcircumflex" unicode="&#x125;" horiz-adv-x="1299" 
d="M176 1616h168v-652h9q77 68 176.5 103t210.5 35q186 0 292.5 -101.5t106.5 -317.5v-683h-168v675q0 149 -71 214t-202 65q-99 0 -192 -37t-162 -109v-808h-168v1616zM1031 1704h-161l-212 208l-212 -208h-161l296 284h154z" />
    <glyph glyph-name="Hbar" unicode="&#x126;" horiz-adv-x="1631" 
d="M1623 1219v-116h-186v-1103h-171v684h-901v-684h-171v1103h-186v116h186v261h171v-261h901v261h171v-261h186zM1266 835v268h-901v-268h901z" />
    <glyph glyph-name="hbar" unicode="&#x127;" horiz-adv-x="1299" 
d="M1032.5 1000.5q106.5 -101.5 106.5 -317.5v-683h-168v675q0 149 -71 214t-202 65q-99 0 -192 -37t-162 -109v-808h-168v1299h-163v110h163v207h168v-207h427v-110h-427v-335h9q77 68 176.5 103t210.5 35q186 0 292.5 -101.5z" />
    <glyph glyph-name="Itilde" unicode="&#x128;" horiz-adv-x="560" 
d="M194 0v1480h171v-1480h-171zM363 1680q-41 10 -99 29q-53 17 -87 25.5t-70 8.5q-59 0 -103.5 -16t-86.5 -52v109q35 33 81.5 48.5t111.5 15.5q46 0 87 -10t99 -29q50 -17 85.5 -26t71.5 -9q59 0 103.5 16.5t86.5 52.5v-110q-35 -32 -81.5 -47.5t-111.5 -15.5
q-46 0 -87 10z" />
    <glyph glyph-name="itilde" unicode="&#x129;" horiz-adv-x="520" 
d="M176 0v1085h168v-1085h-168zM337 1356q-38 11 -93 32q-46 19 -79 28.5t-65 9.5q-53 0 -96.5 -18t-84.5 -58v117q68 67 184 67q42 0 80 -11t93 -32q46 -19 79 -28.5t65 -9.5q53 0 96.5 18t84.5 57v-117q-67 -66 -184 -66q-42 0 -80 11z" />
    <glyph glyph-name="Imacron" unicode="&#x12a;" horiz-adv-x="560" 
d="M194 0v1480h171v-1480h-171zM-56 1696v108h672v-108h-672z" />
    <glyph glyph-name="imacron" unicode="&#x12b;" horiz-adv-x="520" 
d="M176 0v1085h168v-1085h-168zM-81 1369v108h682v-108h-682z" />
    <glyph glyph-name="Ibreve" unicode="&#x12c;" horiz-adv-x="560" 
d="M194 0v1480h171v-1480h-171zM22 1687q-90 70 -105 184h114q14 -74 72.5 -115t177.5 -41q120 0 177 40.5t71 115.5h114q-15 -115 -104 -184.5t-258 -69.5t-259 70z" />
    <glyph glyph-name="ibreve" unicode="&#x12d;" horiz-adv-x="520" 
d="M176 0v1085h168v-1085h-168zM79.5 1304q-75.5 41 -116 114.5t-45.5 171.5h113q9 -108 64.5 -168.5t165.5 -60.5q209 0 228 229h113q-8 -150 -95.5 -238.5t-245.5 -88.5q-106 0 -181.5 41z" />
    <glyph glyph-name="Iogonek" unicode="&#x12e;" horiz-adv-x="560" 
d="M379.5 -325.5q40.5 8.5 97.5 28.5v-81q-94 -37 -193 -37q-121 0 -184.5 48.5t-63.5 135.5q0 67 37.5 124t123.5 107h-3v1480h171v-1480q-124 -54 -173 -105.5t-49 -114.5q0 -55 40 -84.5t117 -29.5q39 0 79.5 8.5z" />
    <glyph glyph-name="iogonek" unicode="&#x12f;" horiz-adv-x="520" 
d="M174 1347q-30 26 -30 74t30 74.5t86 26.5t86 -26.5t30 -74.5t-30 -74t-86 -26t-86 26zM437 -294v-82q-83 -39 -174 -39q-108 0 -168 49.5t-60 134.5q0 68 36.5 125.5t114.5 105.5h-10v1085h168v-1085q-109 -52 -155.5 -104t-46.5 -117q0 -52 36.5 -82.5t100.5 -30.5
q78 0 158 40z" />
    <glyph glyph-name="Idotaccent" unicode="&#x130;" horiz-adv-x="560" 
d="M194 0v1480h171v-1480h-171zM195.5 1684.5q-29.5 24.5 -29.5 66.5q0 43 29.5 68.5t84.5 25.5t84.5 -25.5t29.5 -68.5q0 -42 -29.5 -66.5t-84.5 -24.5t-84.5 24.5z" />
    <glyph glyph-name="dotlessi" unicode="&#x131;" horiz-adv-x="520" 
d="M176 0v1085h168v-1085h-168z" />
    <glyph glyph-name="Jcircumflex" unicode="&#x134;" horiz-adv-x="560" 
d="M0 -268q102 123 148.5 256t46.5 302v1190h170v-1213q-8 -181 -65.5 -324t-189.5 -288zM653 1608h-161l-212 208l-212 -208h-161l296 284h154z" />
    <glyph glyph-name="jcircumflex" unicode="&#x135;" horiz-adv-x="520" 
d="M-20 -389q103 124 149.5 257.5t46.5 301.5v915h168v-908q0 -188 -60.5 -340t-194.5 -301zM597 1262h-143l-197 274l-197 -274h-143l267 363h146z" />
    <glyph glyph-name="Kcommaaccent" unicode="&#x136;" horiz-adv-x="1382" 
d="M1185 0l-555 684h-265v-684h-171v1480h171v-645h268l514 645h190l-572 -717l616 -763h-196zM820 -273q0 -44 -15 -96t-42 -97h-104q34 74 42 140q-49 2 -74 23.5t-25 58.5t27.5 58.5t78.5 21.5q112 0 112 -109z" />
    <glyph glyph-name="kcommaaccent" unicode="&#x137;" horiz-adv-x="1176" 
d="M999 0l-426 485h-229v-485h-168v1616h168v-990h227l397 459h189l-448 -526l482 -559h-192zM728 -273q0 -44 -15 -96t-42 -97h-104q34 74 42 140q-49 2 -74 23.5t-25 58.5t27.5 58.5t78.5 21.5q112 0 112 -109z" />
    <glyph glyph-name="kgreenlandic" unicode="&#x138;" horiz-adv-x="1176" 
d="M999 0l-426 485h-229v-485h-168v1085h168v-459h227l397 459h189l-448 -526l482 -559h-192z" />
    <glyph glyph-name="Lacute" unicode="&#x139;" horiz-adv-x="1214" 
d="M194 0v1480h171v-1338h830v-142h-1001zM199 1608l218 284h187l-245 -284h-160z" />
    <glyph glyph-name="lacute" unicode="&#x13a;" horiz-adv-x="520" 
d="M176 0v1616h168v-1616h-168zM179 1704l218 284h187l-245 -284h-160z" />
    <glyph glyph-name="Lcommaaccent" unicode="&#x13b;" horiz-adv-x="1214" 
d="M194 0v1480h171v-1338h830v-142h-1001zM804 -273q0 -44 -15 -96t-42 -97h-104q34 74 42 140q-49 2 -74 23.5t-25 58.5t27.5 58.5t78.5 21.5q112 0 112 -109z" />
    <glyph glyph-name="lcommaaccent" unicode="&#x13c;" horiz-adv-x="520" 
d="M176 0v1616h168v-1616h-168zM368 -273q0 -44 -15 -96t-42 -97h-104q34 74 42 140q-49 2 -74 23.5t-25 58.5t27.5 58.5t78.5 21.5q112 0 112 -109z" />
    <glyph glyph-name="Lcaron" unicode="&#x13d;" horiz-adv-x="1214" 
d="M194 0v1480h171v-1338h830v-142h-1001zM790.5 1355.5q4.5 114.5 4.5 260.5h122q0 -283 -49 -476h-95q13 101 17.5 215.5z" />
    <glyph glyph-name="lcaron" unicode="&#x13e;" horiz-adv-x="520" 
d="M176 0v1616h168v-1616h-168zM474 1616h122q0 -111 -12.5 -225.5t-37.5 -210.5h-95q23 174 23 436z" />
    <glyph glyph-name="Ldot" unicode="&#x13f;" horiz-adv-x="1214" 
d="M194 0v1480h171v-1338h830v-142h-1001zM785 738q-30 26 -30 74t30 74.5t86 26.5t85.5 -26.5t29.5 -74.5t-29.5 -74t-85.5 -26t-86 26z" />
    <glyph glyph-name="ldot" unicode="&#x140;" horiz-adv-x="633" 
d="M176 0v1616h168v-1616h-168zM478 719q-30 26 -30 74t30 74.5t86 26.5t85.5 -26.5t29.5 -74.5t-29.5 -74t-85.5 -26t-86 26z" />
    <glyph glyph-name="Lslash" unicode="&#x141;" horiz-adv-x="1214" 
d="M365 142h830v-142h-1001v662l-146 -98l-59 99l205 138v679h171v-564l311 210l59 -99l-370 -249v-636z" />
    <glyph glyph-name="lslash" unicode="&#x142;" horiz-adv-x="540" 
d="M540 824l-186 -123v-701h-168v590l-125 -83l-58 97l183 121v891h168v-780l128 85z" />
    <glyph glyph-name="Nacute" unicode="&#x143;" horiz-adv-x="1656" 
d="M1299 1480h163v-1480h-176l-929 1242v-1242h-163v1480h176l929 -1242v1242zM748 1608l218 284h187l-245 -284h-160z" />
    <glyph glyph-name="nacute" unicode="&#x144;" horiz-adv-x="1299" 
d="M176 1085h140l12 -124h11q79 68 181 104.5t213 36.5q191 0 298.5 -103t107.5 -322v-677h-168v672q0 150 -69.5 216.5t-203.5 66.5q-95 0 -190 -36t-164 -110v-809h-168v1085zM576 1253l265 363h191l-292 -363h-164z" />
    <glyph glyph-name="Ncommaaccent" unicode="&#x145;" horiz-adv-x="1656" 
d="M1299 1480h163v-1480h-176l-929 1242v-1242h-163v1480h176l929 -1242v1242zM938 -273q0 -44 -15 -96t-42 -97h-104q34 74 42 140q-49 2 -74 23.5t-25 58.5t27.5 58.5t78.5 21.5q112 0 112 -109z" />
    <glyph glyph-name="ncommaaccent" unicode="&#x146;" horiz-adv-x="1299" 
d="M176 1085h140l12 -124h11q79 68 181 104.5t213 36.5q191 0 298.5 -103t107.5 -322v-677h-168v672q0 150 -69.5 216.5t-203.5 66.5q-95 0 -190 -36t-164 -110v-809h-168v1085zM767 -273q0 -44 -15 -96t-42 -97h-104q34 74 42 140q-49 2 -74 23.5t-25 58.5t27.5 58.5
t78.5 21.5q112 0 112 -109z" />
    <glyph glyph-name="Ncaron" unicode="&#x147;" horiz-adv-x="1656" 
d="M1299 1480h163v-1480h-176l-929 1242v-1242h-163v1480h176l929 -1242v1242zM1041 1892h161l-296 -284h-154l-296 284h161l212 -208z" />
    <glyph glyph-name="ncaron" unicode="&#x148;" horiz-adv-x="1299" 
d="M176 1085h140l12 -124h11q79 68 181 104.5t213 36.5q191 0 298.5 -103t107.5 -322v-677h-168v672q0 150 -69.5 216.5t-203.5 66.5q-95 0 -190 -36t-164 -110v-809h-168v1085zM861 1616h143l-273 -363h-146l-273 363h143l203 -276z" />
    <glyph glyph-name="napostrophe" unicode="&#x149;" horiz-adv-x="1299" 
d="M176 1085h140l12 -124h11q79 68 181 104.5t213 36.5q191 0 298.5 -103t107.5 -322v-677h-168v672q0 150 -69.5 216.5t-203.5 66.5q-95 0 -190 -36t-164 -110v-809h-168v1085zM204.5 1597q28.5 -28 28.5 -81q0 -44 -15 -96t-42 -97h-104q34 74 42 140q-49 2 -74 23.5
t-25 57.5q0 38 27.5 59.5t78.5 21.5q55 0 83.5 -28z" />
    <glyph glyph-name="Eng" unicode="&#x14a;" horiz-adv-x="1656" 
d="M1462 1480v-1293q0 -195 -60 -348.5t-195 -302.5l-109 75q77 92 122.5 187.5t64.5 203.5l-928 1238v-1240h-163v1480h176l929 -1240v1240h163z" />
    <glyph glyph-name="eng" unicode="&#x14b;" horiz-adv-x="1299" 
d="M775 -389q103 124 149.5 257.5t46.5 301.5v505q0 149 -71 214.5t-202 65.5q-98 0 -191.5 -37t-162.5 -110v-808h-168v1085h140l12 -124h11q77 69 178.5 105t216.5 36q190 0 297.5 -101.5t107.5 -317.5v-536q-9 -181 -66.5 -323.5t-188.5 -287.5z" />
    <glyph glyph-name="Omacron" unicode="&#x14c;" horiz-adv-x="1653" 
d="M454.5 64.5q-157.5 83.5 -244 253.5t-86.5 422t87.5 422t245 253.5t369.5 83.5q214 0 371.5 -83.5t244 -253.5t86.5 -422q0 -251 -87.5 -421.5t-245 -254t-369.5 -83.5q-214 0 -371.5 83.5zM1213 274q139 149 139 461q0 318 -139 469t-387 151q-247 0 -386.5 -149
t-139.5 -461q0 -320 138.5 -470t387.5 -150q248 0 387 149zM490 1696v108h672v-108h-672z" />
    <glyph glyph-name="omacron" unicode="&#x14d;" horiz-adv-x="1270" 
d="M358 42q-117 61 -181.5 187t-64.5 314q0 185 64 310t181 187t278 62q247 0 384.5 -139.5t137.5 -419.5q0 -185 -64.5 -311t-182 -188.5t-275.5 -62.5q-160 0 -277 61zM988 541q0 222 -91.5 322.5t-261.5 100.5t-261.5 -100t-91.5 -320q0 -426 353 -426t353 423zM294 1369
v108h682v-108h-682z" />
    <glyph glyph-name="Obreve" unicode="&#x14e;" horiz-adv-x="1653" 
d="M454.5 64.5q-157.5 83.5 -244 253.5t-86.5 422t87.5 422t245 253.5t369.5 83.5q214 0 371.5 -83.5t244 -253.5t86.5 -422q0 -251 -87.5 -421.5t-245 -254t-369.5 -83.5q-214 0 -371.5 83.5zM1213 274q139 149 139 461q0 318 -139 469t-387 151q-247 0 -386.5 -149
t-139.5 -461q0 -320 138.5 -470t387.5 -150q248 0 387 149zM568 1687q-90 70 -105 184h114q14 -74 72.5 -115t177.5 -41q120 0 177 40.5t71 115.5h114q-15 -115 -104 -184.5t-258 -69.5t-259 70z" />
    <glyph glyph-name="obreve" unicode="&#x14f;" horiz-adv-x="1270" 
d="M358 42q-117 61 -181.5 187t-64.5 314q0 185 64 310t181 187t278 62q247 0 384.5 -139.5t137.5 -419.5q0 -185 -64.5 -311t-182 -188.5t-275.5 -62.5q-160 0 -277 61zM988 541q0 222 -91.5 322.5t-261.5 100.5t-261.5 -100t-91.5 -320q0 -426 353 -426t353 423z
M454.5 1304q-75.5 41 -116 114.5t-45.5 171.5h113q9 -108 64.5 -168.5t165.5 -60.5q209 0 228 229h113q-8 -150 -95.5 -238.5t-245.5 -88.5q-106 0 -181.5 41z" />
    <glyph glyph-name="Ohungarumlaut" unicode="&#x150;" horiz-adv-x="1653" 
d="M454.5 64.5q-157.5 83.5 -244 253.5t-86.5 422t87.5 422t245 253.5t369.5 83.5q214 0 371.5 -83.5t244 -253.5t86.5 -422q0 -251 -87.5 -421.5t-245 -254t-369.5 -83.5q-214 0 -371.5 83.5zM1213 274q139 149 139 461q0 318 -139 469t-387 151q-247 0 -386.5 -149
t-139.5 -461q0 -320 138.5 -470t387.5 -150q248 0 387 149zM575 1608l161 284h141l-170 -284h-132zM945 1608l161 284h142l-171 -284h-132z" />
    <glyph glyph-name="ohungarumlaut" unicode="&#x151;" horiz-adv-x="1270" 
d="M358 42q-117 61 -181.5 187t-64.5 314q0 185 64 310t181 187t278 62q247 0 384.5 -139.5t137.5 -419.5q0 -185 -64.5 -311t-182 -188.5t-275.5 -62.5q-160 0 -277 61zM988 541q0 222 -91.5 322.5t-261.5 100.5t-261.5 -100t-91.5 -320q0 -426 353 -426t353 423zM386 1253
l178 363h140l-188 -363h-130zM754 1253l177 363h141l-188 -363h-130z" />
    <glyph glyph-name="OE" unicode="&#x152;" horiz-adv-x="2303" 
d="M2200 138v-138h-858q-37 0 -95 -2l-87 -3q-134 -6 -190 -6q-424 0 -635 185t-211 566q0 377 211.5 565.5t623.5 188.5q72 0 182 -7l80 -4t106 -3h863v-138h-822v-514h721v-137h-721v-553h832zM1199 1338q-138 13 -264 13q-317 0 -476 -150.5t-159 -461.5q0 -309 159 -458
t476 -149q175 0 264 10v1196z" />
    <glyph glyph-name="oe" unicode="&#x153;" horiz-adv-x="2034" 
d="M1941 489h-789q7 -197 111 -287t313 -90q137 0 307 48v-131q-167 -48 -329 -48q-368 0 -493 242q-60 -120 -170.5 -181t-263.5 -61q-156 0 -271.5 61.5t-179.5 187t-64 313.5q0 185 63.5 310t179 187t272.5 62q158 0 269 -60.5t169 -182.5q56 119 161 181t250 62
q148 0 252 -64.5t158.5 -190.5t54.5 -307v-51zM1151 599h630q-5 196 -83.5 290.5t-228.5 94.5q-308 0 -318 -385zM982 541q0 222 -91 322.5t-259 100.5t-259 -100t-91 -320q0 -426 350 -426t350 423z" />
    <glyph glyph-name="Racute" unicode="&#x154;" horiz-adv-x="1452" 
d="M1186 0l-499 611q-23 -1 -71 -1q-104 0 -253 12v-622h-169v1448q229 48 447 48q215 0 353 -45.5t206.5 -142.5t68.5 -252q0 -174 -102 -280.5t-302 -144.5l517 -631h-196zM363 755q75 -7 128.5 -10t130.5 -3q254 0 369.5 76t115.5 235q0 115 -47.5 183t-146.5 98t-262 30
q-87 0 -152 -6.5t-136 -19.5v-583zM627 1608l218 284h187l-245 -284h-160z" />
    <glyph glyph-name="racute" unicode="&#x155;" horiz-adv-x="825" 
d="M176 1085h140l13 -142h11q63 71 160 112t199 41q57 0 111 -10v-153q-49 8 -118 8q-92 0 -189 -37.5t-159 -110.5v-793h-168v1085zM411 1253l265 363h191l-292 -363h-164z" />
    <glyph glyph-name="Rcommaaccent" unicode="&#x156;" horiz-adv-x="1452" 
d="M1186 0l-499 611q-23 -1 -71 -1q-104 0 -253 12v-622h-169v1448q229 48 447 48q215 0 353 -45.5t206.5 -142.5t68.5 -252q0 -174 -102 -280.5t-302 -144.5l517 -631h-196zM363 755q75 -7 128.5 -10t130.5 -3q254 0 369.5 76t115.5 235q0 115 -47.5 183t-146.5 98t-262 30
q-87 0 -152 -6.5t-136 -19.5v-583zM857 -273q0 -44 -15 -96t-42 -97h-104q34 74 42 140q-49 2 -74 23.5t-25 58.5t27.5 58.5t78.5 21.5q112 0 112 -109z" />
    <glyph glyph-name="rcommaaccent" unicode="&#x157;" horiz-adv-x="825" 
d="M176 1085h140l13 -142h11q63 71 160 112t199 41q57 0 111 -10v-153q-49 8 -118 8q-92 0 -189 -37.5t-159 -110.5v-793h-168v1085zM369 -273q0 -44 -15 -96t-42 -97h-104q34 74 42 140q-49 2 -74 23.5t-25 58.5t27.5 58.5t78.5 21.5q112 0 112 -109z" />
    <glyph glyph-name="Rcaron" unicode="&#x158;" horiz-adv-x="1452" 
d="M1186 0l-499 611q-23 -1 -71 -1q-104 0 -253 12v-622h-169v1448q229 48 447 48q215 0 353 -45.5t206.5 -142.5t68.5 -252q0 -174 -102 -280.5t-302 -144.5l517 -631h-196zM363 755q75 -7 128.5 -10t130.5 -3q254 0 369.5 76t115.5 235q0 115 -47.5 183t-146.5 98t-262 30
q-87 0 -152 -6.5t-136 -19.5v-583zM920 1892h161l-296 -284h-154l-296 284h161l212 -208z" />
    <glyph glyph-name="rcaron" unicode="&#x159;" horiz-adv-x="825" 
d="M176 1085h140l13 -142h11q63 71 160 112t199 41q57 0 111 -10v-153q-49 8 -118 8q-92 0 -189 -37.5t-159 -110.5v-793h-168v1085zM696 1616h143l-273 -363h-146l-273 363h143l203 -276z" />
    <glyph glyph-name="Sacute" unicode="&#x15a;" horiz-adv-x="1211" 
d="M323 -2q-108 17 -207 49v144q103 -34 214.5 -51.5t210.5 -17.5q406 0 406 275q0 76 -33 125.5t-104.5 82t-194.5 56.5l-90 17q-225 44 -329 142.5t-104 262.5q0 130 65 223t194.5 143t319.5 50q203 0 379 -52v-144q-180 55 -378 55q-207 0 -307.5 -69t-100.5 -199
q0 -75 29 -125t95 -83t179 -56l90 -17q165 -32 266.5 -86t148 -132t46.5 -186q0 -134 -68 -229.5t-198.5 -145t-313.5 -49.5q-107 0 -215 17zM533 1608l218 284h187l-245 -284h-160z" />
    <glyph glyph-name="sacute" unicode="&#x15b;" horiz-adv-x="1044" 
d="M132 28v128q91 -26 177 -37.5t179 -11.5q162 0 234 46.5t72 136.5q0 48 -17 80t-58 53.5t-113 34.5l-184 30q-163 27 -235.5 100t-72.5 196q0 146 119 232t362 86q159 0 301 -40v-128q-144 41 -300 41q-172 0 -245 -49t-73 -136q0 -66 40.5 -108t141.5 -60l184 -30
q164 -27 239 -95.5t75 -195.5q0 -151 -119 -235.5t-353 -84.5q-200 0 -354 47zM446 1253l265 363h191l-292 -363h-164z" />
    <glyph glyph-name="Scircumflex" unicode="&#x15c;" horiz-adv-x="1211" 
d="M323 -2q-108 17 -207 49v144q103 -34 214.5 -51.5t210.5 -17.5q406 0 406 275q0 76 -33 125.5t-104.5 82t-194.5 56.5l-90 17q-225 44 -329 142.5t-104 262.5q0 130 65 223t194.5 143t319.5 50q203 0 379 -52v-144q-180 55 -378 55q-207 0 -307.5 -69t-100.5 -199
q0 -75 29 -125t95 -83t179 -56l90 -17q165 -32 266.5 -86t148 -132t46.5 -186q0 -134 -68 -229.5t-198.5 -145t-313.5 -49.5q-107 0 -215 17zM987 1608h-161l-212 208l-212 -208h-161l296 284h154z" />
    <glyph glyph-name="scircumflex" unicode="&#x15d;" horiz-adv-x="1044" 
d="M132 28v128q91 -26 177 -37.5t179 -11.5q162 0 234 46.5t72 136.5q0 48 -17 80t-58 53.5t-113 34.5l-184 30q-163 27 -235.5 100t-72.5 196q0 146 119 232t362 86q159 0 301 -40v-128q-144 41 -300 41q-172 0 -245 -49t-73 -136q0 -66 40.5 -108t141.5 -60l184 -30
q164 -27 239 -95.5t75 -195.5q0 -151 -119 -235.5t-353 -84.5q-200 0 -354 47zM868 1253h-143l-197 274l-197 -274h-143l267 363h146z" />
    <glyph glyph-name="Scedilla" unicode="&#x15e;" horiz-adv-x="1211" 
d="M997.5 117q-120.5 -108 -343.5 -130v-88q92 -6 142 -45.5t50 -110.5q0 -77 -61.5 -117.5t-173.5 -40.5q-55 0 -109.5 10t-98.5 28v81q105 -41 203 -41q70 0 105.5 20.5t35.5 63.5t-36 63.5t-106 20.5h-44v150h-23q-107 0 -215 17t-207 49v144q103 -34 214.5 -51.5
t210.5 -17.5q406 0 406 275q0 76 -33 125.5t-104.5 82t-194.5 56.5l-90 17q-225 44 -329 142.5t-104 262.5q0 130 65 223t194.5 143t319.5 50q203 0 379 -52v-144q-180 55 -378 55q-207 0 -307.5 -69t-100.5 -199q0 -75 29 -125t95 -83t179 -56l90 -17q165 -32 266.5 -86
t148 -132t46.5 -186q0 -180 -120.5 -288z" />
    <glyph glyph-name="scedilla" unicode="&#x15f;" horiz-adv-x="1044" 
d="M862.5 83.5q-95.5 -82.5 -283.5 -98.5v-86q84 -7 128 -48t44 -110q0 -75 -56 -115.5t-158 -40.5q-51 0 -102 10t-87 28v81q86 -41 183 -41q61 0 91.5 20t30.5 64t-30.5 64t-92.5 20h-44v150q-200 0 -354 47v128q91 -26 177 -37.5t179 -11.5q162 0 234 46.5t72 136.5
q0 48 -17 80t-58 53.5t-113 34.5l-184 30q-163 27 -235.5 100t-72.5 196q0 146 119 232t362 86q159 0 301 -40v-128q-144 41 -300 41q-172 0 -245 -49t-73 -136q0 -66 40.5 -108t141.5 -60l184 -30q164 -27 239 -95.5t75 -195.5q0 -135 -95.5 -217.5z" />
    <glyph glyph-name="Scaron" unicode="&#x160;" horiz-adv-x="1211" 
d="M323 -2q-108 17 -207 49v144q103 -34 214.5 -51.5t210.5 -17.5q406 0 406 275q0 76 -33 125.5t-104.5 82t-194.5 56.5l-90 17q-225 44 -329 142.5t-104 262.5q0 130 65 223t194.5 143t319.5 50q203 0 379 -52v-144q-180 55 -378 55q-207 0 -307.5 -69t-100.5 -199
q0 -75 29 -125t95 -83t179 -56l90 -17q165 -32 266.5 -86t148 -132t46.5 -186q0 -134 -68 -229.5t-198.5 -145t-313.5 -49.5q-107 0 -215 17zM826 1892h161l-296 -284h-154l-296 284h161l212 -208z" />
    <glyph glyph-name="scaron" unicode="&#x161;" horiz-adv-x="1044" 
d="M132 28v128q91 -26 177 -37.5t179 -11.5q162 0 234 46.5t72 136.5q0 48 -17 80t-58 53.5t-113 34.5l-184 30q-163 27 -235.5 100t-72.5 196q0 146 119 232t362 86q159 0 301 -40v-128q-144 41 -300 41q-172 0 -245 -49t-73 -136q0 -66 40.5 -108t141.5 -60l184 -30
q164 -27 239 -95.5t75 -195.5q0 -151 -119 -235.5t-353 -84.5q-200 0 -354 47zM731 1616h143l-273 -363h-146l-273 363h143l203 -276z" />
    <glyph glyph-name="uni0162" unicode="&#x162;" horiz-adv-x="1317" 
d="M698 0v-101q92 -6 142 -45.5t50 -110.5q0 -77 -61.5 -117.5t-173.5 -40.5q-55 0 -109.5 10t-98.5 28v81q105 -41 203 -41q70 0 105.5 20.5t35.5 63.5t-36 63.5t-106 20.5h-44v169h-32v1338h-552v142h1275v-142h-552v-1338h-46z" />
    <glyph glyph-name="uni0163" unicode="&#x163;" horiz-adv-x="854" 
d="M591 -17v-84q84 -7 128 -48t44 -110q0 -75 -56 -115.5t-158 -40.5q-51 0 -102 10t-87 28v81q86 -41 183 -41q61 0 91.5 20t30.5 64t-30.5 64t-92.5 20h-44v166q-123 30 -187.5 121.5t-64.5 244.5v583h-225v139h225l28 395h140v-395h400v-139h-400v-552
q0 -145 65.5 -208.5t198.5 -63.5q63 0 154 20v-139q-100 -22 -192 -22q-17 0 -49 2z" />
    <glyph glyph-name="Tcaron" unicode="&#x164;" horiz-adv-x="1317" 
d="M573 0v1338h-552v142h1275v-142h-552v-1338h-171zM870 1892h161l-296 -284h-154l-296 284h161l212 -208z" />
    <glyph glyph-name="tcaron" unicode="&#x165;" horiz-adv-x="854" 
d="M832 142v-139q-100 -22 -192 -22q-192 0 -293 94.5t-101 287.5v583h-225v139h225l28 395h140v-395h400v-139h-400v-552q0 -145 65.5 -208.5t198.5 -63.5q63 0 154 20zM591 1616h122q0 -111 -12.5 -225.5t-37.5 -210.5h-95q23 174 23 436z" />
    <glyph glyph-name="Tbar" unicode="&#x166;" horiz-adv-x="1317" 
d="M1296 1338h-552v-505h364v-116h-364v-717h-171v717h-366v116h366v505h-552v142h1275v-142z" />
    <glyph glyph-name="tbar" unicode="&#x167;" horiz-adv-x="854" 
d="M832 142v-139q-100 -22 -192 -22q-192 0 -293 94.5t-101 287.5v216h-163v106h163v261h-225v139h225l28 395h140v-395h400v-139h-400v-261h343v-106h-343v-185q0 -145 65.5 -208.5t198.5 -63.5q63 0 154 20z" />
    <glyph glyph-name="Utilde" unicode="&#x168;" horiz-adv-x="1599" 
d="M336 131.5q-149 150.5 -149 466.5v882h171v-899q0 -237 107.5 -346t335.5 -109t336 109t108 346v899h167v-882q0 -316 -148.5 -466.5t-462.5 -150.5q-316 0 -465 150.5zM884 1680q-41 10 -99 29q-53 17 -87 25.5t-70 8.5q-59 0 -103.5 -16t-86.5 -52v109q35 33 81.5 48.5
t111.5 15.5q46 0 87 -10t99 -29q50 -17 85.5 -26t71.5 -9q59 0 103.5 16.5t86.5 52.5v-110q-35 -32 -81.5 -47.5t-111.5 -15.5q-46 0 -87 10z" />
    <glyph glyph-name="utilde" unicode="&#x169;" horiz-adv-x="1289" 
d="M267.5 83.5q-107.5 101.5 -107.5 317.5v684h168v-676q0 -149 70 -215t197 -66q96 0 188.5 37.5t161.5 110.5v809h168v-1085h-140l-12 120h-10q-78 -67 -177.5 -102.5t-208.5 -35.5q-190 0 -297.5 101.5zM714 1356q-38 11 -93 32q-46 19 -79 28.5t-65 9.5q-53 0 -96.5 -18
t-84.5 -58v117q68 67 184 67q42 0 80 -11t93 -32q46 -19 79 -28.5t65 -9.5q53 0 96.5 18t84.5 57v-117q-67 -66 -184 -66q-42 0 -80 11z" />
    <glyph glyph-name="Umacron" unicode="&#x16a;" horiz-adv-x="1599" 
d="M336 131.5q-149 150.5 -149 466.5v882h171v-899q0 -237 107.5 -346t335.5 -109t336 109t108 346v899h167v-882q0 -316 -148.5 -466.5t-462.5 -150.5q-316 0 -465 150.5zM465 1696v108h672v-108h-672z" />
    <glyph glyph-name="umacron" unicode="&#x16b;" horiz-adv-x="1289" 
d="M267.5 83.5q-107.5 101.5 -107.5 317.5v684h168v-676q0 -149 70 -215t197 -66q96 0 188.5 37.5t161.5 110.5v809h168v-1085h-140l-12 120h-10q-78 -67 -177.5 -102.5t-208.5 -35.5q-190 0 -297.5 101.5zM296 1369v108h682v-108h-682z" />
    <glyph glyph-name="Ubreve" unicode="&#x16c;" horiz-adv-x="1599" 
d="M336 131.5q-149 150.5 -149 466.5v882h171v-899q0 -237 107.5 -346t335.5 -109t336 109t108 346v899h167v-882q0 -316 -148.5 -466.5t-462.5 -150.5q-316 0 -465 150.5zM543 1687q-90 70 -105 184h114q14 -74 72.5 -115t177.5 -41q120 0 177 40.5t71 115.5h114
q-15 -115 -104 -184.5t-258 -69.5t-259 70z" />
    <glyph glyph-name="ubreve" unicode="&#x16d;" horiz-adv-x="1289" 
d="M267.5 83.5q-107.5 101.5 -107.5 317.5v684h168v-676q0 -149 70 -215t197 -66q96 0 188.5 37.5t161.5 110.5v809h168v-1085h-140l-12 120h-10q-78 -67 -177.5 -102.5t-208.5 -35.5q-190 0 -297.5 101.5zM456.5 1304q-75.5 41 -116 114.5t-45.5 171.5h113
q9 -108 64.5 -168.5t165.5 -60.5q209 0 228 229h113q-8 -150 -95.5 -238.5t-245.5 -88.5q-106 0 -181.5 41z" />
    <glyph glyph-name="Uring" unicode="&#x16e;" horiz-adv-x="1599" 
d="M336 131.5q-149 150.5 -149 466.5v882h171v-899q0 -237 107.5 -346t335.5 -109t336 109t108 346v899h167v-882q0 -316 -148.5 -466.5t-462.5 -150.5q-316 0 -465 150.5zM700.5 1626q-44.5 25 -69.5 69t-25 99t25 99.5t69.5 69.5t100.5 25t100.5 -25t69.5 -69.5t25 -99.5
t-25 -99t-69.5 -69t-100.5 -25t-100.5 25zM885.5 1707.5q32.5 32.5 32.5 86.5q0 55 -32.5 87.5t-84.5 32.5t-84.5 -32.5t-32.5 -87.5q0 -54 32.5 -86.5t84.5 -32.5t84.5 32.5z" />
    <glyph glyph-name="uring" unicode="&#x16f;" horiz-adv-x="1289" 
d="M267.5 83.5q-107.5 101.5 -107.5 317.5v684h168v-676q0 -149 70 -215t197 -66q96 0 188.5 37.5t161.5 110.5v809h168v-1085h-140l-12 120h-10q-78 -67 -177.5 -102.5t-208.5 -35.5q-190 0 -297.5 101.5zM536.5 1273q-44.5 25 -69.5 69t-25 99t25 99.5t69.5 69.5t100.5 25
t100.5 -25t69.5 -69.5t25 -99.5t-25 -99t-69.5 -69t-100.5 -25t-100.5 25zM721.5 1354.5q32.5 32.5 32.5 86.5q0 55 -32.5 87.5t-84.5 32.5t-84.5 -32.5t-32.5 -87.5q0 -54 32.5 -86.5t84.5 -32.5t84.5 32.5z" />
    <glyph glyph-name="Uhungarumlaut" unicode="&#x170;" horiz-adv-x="1599" 
d="M336 131.5q-149 150.5 -149 466.5v882h171v-899q0 -237 107.5 -346t335.5 -109t336 109t108 346v899h167v-882q0 -316 -148.5 -466.5t-462.5 -150.5q-316 0 -465 150.5zM550 1608l161 284h141l-170 -284h-132zM920 1608l161 284h142l-171 -284h-132z" />
    <glyph glyph-name="uhungarumlaut" unicode="&#x171;" horiz-adv-x="1289" 
d="M267.5 83.5q-107.5 101.5 -107.5 317.5v684h168v-676q0 -149 70 -215t197 -66q96 0 188.5 37.5t161.5 110.5v809h168v-1085h-140l-12 120h-10q-78 -67 -177.5 -102.5t-208.5 -35.5q-190 0 -297.5 101.5zM388 1253l178 363h140l-188 -363h-130zM756 1253l177 363h141
l-188 -363h-130z" />
    <glyph glyph-name="Uogonek" unicode="&#x172;" horiz-adv-x="1599" 
d="M1412 1480v-882q0 -250 -90.5 -394t-281.5 -195q-150 -41 -216 -96t-66 -127q0 -57 40 -87t117 -30q39 0 79.5 8.5t97.5 28.5v-81q-94 -37 -192 -37q-123 0 -186 49.5t-63 140.5q0 59 32.5 111.5t103.5 91.5q-308 3 -454 153.5t-146 463.5v882h171v-899
q0 -237 107.5 -346t335.5 -109t336 109t108 346v899h167z" />
    <glyph glyph-name="uogonek" unicode="&#x173;" horiz-adv-x="1289" 
d="M1206 -294v-82q-83 -39 -174 -39q-108 0 -168 49.5t-60 134.5q0 72 40.5 131.5t127.5 109.5l-11 110h-10q-78 -67 -177.5 -102.5t-208.5 -35.5q-190 0 -297.5 101.5t-107.5 317.5v684h168v-676q0 -149 70 -215t197 -66q96 0 188.5 37.5t161.5 110.5v809h168v-1085
q-109 -52 -155.5 -104t-46.5 -117q0 -52 36.5 -82.5t100.5 -30.5q78 0 158 40z" />
    <glyph glyph-name="Wcircumflex" unicode="&#x174;" horiz-adv-x="2391" 
d="M2155 1480h167l-475 -1480h-222l-429 1311l-430 -1311h-222l-477 1480h177l420 -1330l434 1330h201l432 -1336zM1569 1608h-161l-212 208l-212 -208h-161l296 284h154z" />
    <glyph glyph-name="wcircumflex" unicode="&#x175;" horiz-adv-x="1891" 
d="M1650 1085h160l-354 -1085h-200l-309 931l-310 -931h-200l-356 1085h167l297 -921l304 921h200l303 -919zM1287 1253h-143l-197 274l-197 -274h-143l267 363h146z" />
    <glyph glyph-name="Ycircumflex" unicode="&#x176;" horiz-adv-x="1317" 
d="M1333 1480l-588 -822v-658h-171v657l-601 823h192l498 -681l489 681h181zM1031 1608h-161l-212 208l-212 -208h-161l296 284h154z" />
    <glyph glyph-name="ycircumflex" unicode="&#x177;" horiz-adv-x="1206" 
d="M1014 1085h167l-666 -1525h-167l192 440h-42l-473 1085h180l401 -951zM944 1253h-143l-197 274l-197 -274h-143l267 363h146z" />
    <glyph glyph-name="Ydieresis" unicode="&#x178;" horiz-adv-x="1317" 
d="M1333 1480l-588 -822v-658h-171v657l-601 823h192l498 -681l489 681h181zM312 1684.5q-27 24.5 -27 66.5q0 43 27 68.5t77 25.5t77 -25.5t27 -68.5q0 -42 -27 -66.5t-77 -24.5t-77 24.5zM850 1684.5q-27 24.5 -27 66.5q0 43 27 68.5t77 25.5t77 -25.5t27 -68.5
q0 -42 -27 -66.5t-77 -24.5t-77 24.5z" />
    <glyph glyph-name="Zacute" unicode="&#x179;" horiz-adv-x="1313" 
d="M302 141h938v-141h-1166v94l924 1245h-911v141h1140v-94zM576 1608l218 284h187l-245 -284h-160z" />
    <glyph glyph-name="zacute" unicode="&#x17a;" horiz-adv-x="1060" 
d="M302 139h693v-139h-921v106l680 840h-667v139h895v-106zM453 1253l265 363h191l-292 -363h-164z" />
    <glyph glyph-name="Zdotaccent" unicode="&#x17b;" horiz-adv-x="1313" 
d="M302 141h938v-141h-1166v94l924 1245h-911v141h1140v-94zM572.5 1684.5q-29.5 24.5 -29.5 66.5q0 43 29.5 68.5t84.5 25.5t84.5 -25.5t29.5 -68.5q0 -42 -29.5 -66.5t-84.5 -24.5t-84.5 24.5z" />
    <glyph glyph-name="zdotaccent" unicode="&#x17c;" horiz-adv-x="1060" 
d="M302 139h693v-139h-921v106l680 840h-667v139h895v-106zM449 1347q-30 26 -30 74t30 74.5t86 26.5t86 -26.5t30 -74.5t-30 -74t-86 -26t-86 26z" />
    <glyph glyph-name="Zcaron" unicode="&#x17d;" horiz-adv-x="1313" 
d="M302 141h938v-141h-1166v94l924 1245h-911v141h1140v-94zM869 1892h161l-296 -284h-154l-296 284h161l212 -208z" />
    <glyph glyph-name="zcaron" unicode="&#x17e;" horiz-adv-x="1060" 
d="M302 139h693v-139h-921v106l680 840h-667v139h895v-106zM738 1616h143l-273 -363h-146l-273 363h143l203 -276z" />
    <glyph glyph-name="uni018F" unicode="&#x18f;" horiz-adv-x="1646" 
d="M1298.5 1312q222.5 -187 222.5 -579q0 -253 -85 -421t-239 -249.5t-365 -81.5q-220 0 -381 81t-249 247.5t-88 415.5v78h1235q-20 291 -198 422.5t-503 131.5q-107 0 -224 -13t-221 -40v144q208 51 452 51q421 0 643.5 -187zM1202.5 252q135.5 133 147.5 421h-1060
q13 -289 152 -421.5t391 -132.5q234 0 369.5 133z" />
    <glyph glyph-name="florin" unicode="&#x192;" horiz-adv-x="825" 
d="M493.5 1434.5q-71.5 -62.5 -71.5 -200.5v-149h400v-140h-400v-995q0 -201 -114 -305.5t-331 -104.5q-83 0 -170 13v139q85 -13 153 -13q151 0 222.5 62.5t71.5 200.5v1003h-225v140h225v141q0 201 114 305.5t330 104.5q84 0 171 -13v-139q-85 13 -153 13
q-151 0 -222.5 -62.5z" />
    <glyph glyph-name="Ohorn" unicode="&#x1a0;" horiz-adv-x="1653" 
d="M1459.5 1126q68.5 -159 68.5 -386q0 -256 -86.5 -425.5t-243.5 -251.5t-372 -82q-214 0 -371.5 83.5t-244 253.5t-86.5 422t87.5 422t245 253.5t369.5 83.5q38 0 81 -3.5t85 -8.5q46 -5 97.5 -9t99.5 -4q109 0 164 39.5t55 121.5q0 35 -5.5 67.5t-16.5 73.5h123
q13 -38 18 -71t5 -75q0 -113 -69 -179t-199 -76q127 -90 195.5 -249zM1213 274q139 149 139 461q0 318 -139 469t-387 151q-247 0 -386.5 -149t-139.5 -461q0 -320 138.5 -470t387.5 -150q248 0 387 149z" />
    <glyph glyph-name="ohorn" unicode="&#x1a1;" horiz-adv-x="1270" 
d="M1157 543q0 -185 -64.5 -311t-182 -188.5t-275.5 -62.5q-160 0 -277 61t-181.5 187t-64.5 314q0 185 64 310.5t182.5 187t281.5 61.5q43 0 134 -7q48 -5 80 -5q106 0 160 40t54 125q0 35 -5.5 67.5t-16.5 73.5h118q13 -39 18.5 -72t5.5 -74q0 -103 -54 -167.5t-155 -84.5
q178 -139 178 -455zM988 541q0 222 -91.5 322.5t-261.5 100.5t-261.5 -100t-91.5 -320q0 -426 353 -426t353 423z" />
    <glyph glyph-name="Uhorn" unicode="&#x1af;" horiz-adv-x="1599" 
d="M336 131.5q-149 150.5 -149 466.5v882h171v-899q0 -237 107.5 -346t335.5 -109t336 109t108 346v899h59q111 0 165.5 37t54.5 118q0 35 -5.5 67.5t-16.5 73.5h122q13 -38 18.5 -71t5.5 -75q0 -104 -61 -166t-175 -74v-792q0 -316 -148.5 -466.5t-462.5 -150.5
q-316 0 -465 150.5z" />
    <glyph glyph-name="uhorn" unicode="&#x1b0;" horiz-adv-x="1314" 
d="M1289.5 1069.5q-61.5 -66.5 -176.5 -81.5v-988h-140l-12 120h-10q-78 -67 -177.5 -102.5t-208.5 -35.5q-190 0 -297.5 101.5t-107.5 317.5v684h168v-676q0 -149 70 -215t197 -66q96 0 188.5 37.5t161.5 110.5v809h72q106 0 160.5 40t54.5 125q0 36 -5.5 68t-17.5 73h118
q13 -37 18.5 -70t5.5 -76q0 -109 -61.5 -175.5z" />
    <glyph glyph-name="uni01C4" unicode="&#x1c4;" horiz-adv-x="2853" 
d="M194 15v1433q102 22 222.5 34t230.5 12q409 0 618 -188.5t209 -565.5q0 -382 -215.5 -566.5t-648.5 -184.5q-213 0 -416 26zM1136.5 280.5q161.5 148.5 161.5 460.5q0 311 -161.5 461t-488.5 150q-127 0 -283 -25v-1178q119 -17 279 -17q331 0 492.5 148.5zM1842 141h938
v-141h-1166v94l924 1245h-911v141h1140v-94zM2409 1892h161l-296 -284h-154l-296 284h161l212 -208z" />
    <glyph glyph-name="uni01C5" unicode="&#x1c5;" horiz-adv-x="2658" 
d="M194 15v1433q102 22 222.5 34t230.5 12q409 0 618 -188.5t209 -565.5q0 -382 -215.5 -566.5t-648.5 -184.5q-213 0 -416 26zM1136.5 280.5q161.5 148.5 161.5 460.5q0 311 -161.5 461t-488.5 150q-127 0 -283 -25v-1178q119 -17 279 -17q331 0 492.5 148.5zM1900 139h693
v-139h-921v106l680 840h-667v139h895v-106zM2345 1572h161l-296 -284h-154l-296 284h161l212 -208z" />
    <glyph glyph-name="uni01C6" unicode="&#x1c6;" horiz-adv-x="2354" 
d="M346.5 39.5q-109.5 57.5 -172 177.5t-62.5 303q0 287 154 435t449 148q114 0 235 -22v535h168v-1616h-142l-11 125h-11q-63 -68 -154 -105.5t-199 -37.5q-145 0 -254.5 57.5zM809 158q81 35 141 110v672q-106 27 -230 27q-222 0 -330 -106t-108 -327q0 -411 354 -411
q92 0 173 35zM1596 139h693v-139h-921v106l680 840h-667v139h895v-106zM2032 1616h143l-273 -363h-146l-273 363h143l203 -276z" />
    <glyph glyph-name="uni01C7" unicode="&#x1c7;" horiz-adv-x="1774" 
d="M194 0v1480h171v-1338h830v-142h-1001zM1214 -268q102 123 148.5 256t46.5 302v1190h170v-1213q-8 -181 -65.5 -324t-189.5 -288z" />
    <glyph glyph-name="uni01C8" unicode="&#x1c8;" horiz-adv-x="1734" 
d="M194 0v1480h171v-1338h830v-142h-1001zM1194 -389q103 124 149.5 257.5t46.5 301.5v915h168v-908q0 -188 -60.5 -340t-194.5 -301zM1385 1356q-30 26 -30 74t30 74.5t86 26.5t86 -26.5t30 -74.5t-30 -74t-86 -26t-86 26z" />
    <glyph glyph-name="uni01C9" unicode="&#x1c9;" horiz-adv-x="1040" 
d="M176 0v1616h168v-1616h-168zM500 -389q103 124 149.5 257.5t46.5 301.5v915h168v-908q0 -188 -60.5 -340t-194.5 -301zM691 1356q-30 26 -30 74t30 74.5t86 26.5t86 -26.5t30 -74.5t-30 -74t-86 -26t-86 26z" />
    <glyph glyph-name="uni01CA" unicode="&#x1ca;" horiz-adv-x="2216" 
d="M1299 1480h163v-1480h-176l-929 1242v-1242h-163v1480h176l929 -1242v1242zM1656 -268q102 123 148.5 256t46.5 302v1190h170v-1213q-8 -181 -65.5 -324t-189.5 -288z" />
    <glyph glyph-name="uni01CB" unicode="&#x1cb;" horiz-adv-x="2176" 
d="M1299 1480h163v-1480h-176l-929 1242v-1242h-163v1480h176l929 -1242v1242zM1636 -389q103 124 149.5 257.5t46.5 301.5v915h168v-908q0 -188 -60.5 -340t-194.5 -301zM1827 1356q-30 26 -30 74t30 74.5t86 26.5t86 -26.5t30 -74.5t-30 -74t-86 -26t-86 26z" />
    <glyph glyph-name="uni01CC" unicode="&#x1cc;" horiz-adv-x="1819" 
d="M176 1085h140l12 -124h11q79 68 181 104.5t213 36.5q191 0 298.5 -103t107.5 -322v-677h-168v672q0 150 -69.5 216.5t-203.5 66.5q-95 0 -190 -36t-164 -110v-809h-168v1085zM1279 -389q103 124 149.5 257.5t46.5 301.5v915h168v-908q0 -188 -60.5 -340t-194.5 -301z
M1470 1356q-30 26 -30 74t30 74.5t86 26.5t86 -26.5t30 -74.5t-30 -74t-86 -26t-86 26z" />
    <glyph glyph-name="Gcaron" unicode="&#x1e6;" horiz-adv-x="1542" 
d="M1356 720v-700q-111 -18 -201 -25.5t-189 -7.5q-417 0 -629 188.5t-213 560.5q0 254 99.5 425t281 254.5t428.5 83.5q182 0 379 -49v-146q-102 27 -190 38t-177 11q-304 0 -473 -149t-169 -462q0 -610 656 -610q123 0 235 13v575h162zM1047 1892h161l-296 -284h-154
l-296 284h161l212 -208z" />
    <glyph glyph-name="gcaron" unicode="&#x1e7;" horiz-adv-x="1294" 
d="M371.5 -446q-99.5 14 -186.5 42v139q194 -60 369 -60q140 0 226.5 35.5t128 114.5t41.5 210v89h-9q-65 -65 -156 -100.5t-200 -35.5q-137 0 -243.5 56.5t-168 176t-61.5 299.5q0 287 154.5 434.5t456.5 147.5q209 0 395 -55v-985q0 -184 -61 -299t-183.5 -169t-312.5 -54
q-90 0 -189.5 14zM805.5 162q83.5 33 144.5 101v674q-107 29 -243 29q-212 0 -318.5 -106t-106.5 -325q0 -214 93.5 -310t255.5 -96q91 0 174.5 33zM871 1616h143l-273 -363h-146l-273 363h143l203 -276z" />
    <glyph glyph-name="uni01EA" unicode="&#x1ea;" horiz-adv-x="1653" 
d="M856 -91.5q-62 -58.5 -62 -128.5q0 -55 40 -84.5t117 -29.5q40 0 80.5 8.5t96.5 28.5v-81q-94 -37 -192 -37q-121 0 -185.5 48.5t-64.5 135.5q0 64 32.5 116.5t106.5 95.5q-216 2 -373 85.5t-242.5 252.5t-85.5 421t87.5 422t245 253.5t369.5 83.5q213 0 370.5 -82
t244.5 -252t87 -425q0 -306 -122.5 -484.5t-326.5 -239.5q-161 -49 -223 -107.5zM438.5 275q138.5 -150 387.5 -150q248 0 387 149t139 461q0 318 -139 469t-387 151q-247 0 -386.5 -149t-139.5 -461q0 -320 138.5 -470z" />
    <glyph glyph-name="uni01EB" unicode="&#x1eb;" horiz-adv-x="1270" 
d="M560 -219q0 -54 36.5 -84.5t100.5 -30.5q74 0 143 33l15 -77q-80 -37 -173 -37q-107 0 -167.5 49t-60.5 135q0 133 132 213q-223 14 -348.5 154.5t-125.5 406.5q0 185 64 310t181 187t278 62q247 0 384.5 -139.5t137.5 -419.5q0 -222 -90.5 -357.5t-253.5 -180.5
q-253 -72 -253 -224zM635 118q353 0 353 423q0 222 -91.5 322.5t-261.5 100.5t-261.5 -100t-91.5 -320q0 -426 353 -426z" />
    <glyph glyph-name="uni01F1" unicode="&#x1f1;" horiz-adv-x="2853" 
d="M194 15v1433q102 22 222.5 34t230.5 12q409 0 618 -188.5t209 -565.5q0 -382 -215.5 -566.5t-648.5 -184.5q-213 0 -416 26zM1136.5 280.5q161.5 148.5 161.5 460.5q0 311 -161.5 461t-488.5 150q-127 0 -283 -25v-1178q119 -17 279 -17q331 0 492.5 148.5zM1842 141h938
v-141h-1166v94l924 1245h-911v141h1140v-94z" />
    <glyph glyph-name="uni01F2" unicode="&#x1f2;" horiz-adv-x="2658" 
d="M194 15v1433q102 22 222.5 34t230.5 12q409 0 618 -188.5t209 -565.5q0 -382 -215.5 -566.5t-648.5 -184.5q-213 0 -416 26zM1136.5 280.5q161.5 148.5 161.5 460.5q0 311 -161.5 461t-488.5 150q-127 0 -283 -25v-1178q119 -17 279 -17q331 0 492.5 148.5zM1900 139h693
v-139h-921v106l680 840h-667v139h895v-106z" />
    <glyph glyph-name="uni01F3" unicode="&#x1f3;" horiz-adv-x="2354" 
d="M346.5 39.5q-109.5 57.5 -172 177.5t-62.5 303q0 287 154 435t449 148q114 0 235 -22v535h168v-1616h-142l-11 125h-11q-63 -68 -154 -105.5t-199 -37.5q-145 0 -254.5 57.5zM809 158q81 35 141 110v672q-106 27 -230 27q-222 0 -330 -106t-108 -327q0 -411 354 -411
q92 0 173 35zM1596 139h693v-139h-921v106l680 840h-667v139h895v-106z" />
    <glyph glyph-name="uni01F4" unicode="&#x1f4;" horiz-adv-x="1542" 
d="M1356 720v-700q-111 -18 -201 -25.5t-189 -7.5q-417 0 -629 188.5t-213 560.5q0 254 99.5 425t281 254.5t428.5 83.5q182 0 379 -49v-146q-102 27 -190 38t-177 11q-304 0 -473 -149t-169 -462q0 -610 656 -610q123 0 235 13v575h162zM754 1608l218 284h187l-245 -284
h-160z" />
    <glyph glyph-name="uni01F5" unicode="&#x1f5;" horiz-adv-x="1294" 
d="M371.5 -446q-99.5 14 -186.5 42v139q194 -60 369 -60q140 0 226.5 35.5t128 114.5t41.5 210v89h-9q-65 -65 -156 -100.5t-200 -35.5q-137 0 -243.5 56.5t-168 176t-61.5 299.5q0 287 154.5 434.5t456.5 147.5q209 0 395 -55v-985q0 -184 -61 -299t-183.5 -169t-312.5 -54
q-90 0 -189.5 14zM805.5 162q83.5 33 144.5 101v674q-107 29 -243 29q-212 0 -318.5 -106t-106.5 -325q0 -214 93.5 -310t255.5 -96q91 0 174.5 33zM586 1253l265 363h191l-292 -363h-164z" />
    <glyph glyph-name="Aringacute" unicode="&#x1fa;" horiz-adv-x="1522" 
d="M1308 0l-192 479h-713l-192 -479h-171l602 1480h238l602 -1480h-174zM459 617h601l-300 749zM921 1909q35 -49 35 -115q0 -55 -25 -99t-69.5 -69t-100.5 -25t-100.5 25t-69.5 69t-25 99t25 99.5t69.5 69.5t100.5 25q44 0 87 -18l124 130h134zM845.5 1707.5
q32.5 32.5 32.5 86.5q0 55 -32.5 87.5t-84.5 32.5t-84.5 -32.5t-32.5 -87.5q0 -54 32.5 -86.5t84.5 -32.5t84.5 32.5z" />
    <glyph glyph-name="aringacute" unicode="&#x1fb;" horiz-adv-x="1166" 
d="M801.5 1064q101.5 -38 153 -127t51.5 -240v-697h-142l-12 123h-11q-61 -65 -157.5 -103t-202.5 -38q-116 0 -198.5 36.5t-125 103.5t-42.5 157q0 141 102.5 218.5t328.5 99.5l294 32v76q0 103 -35 160.5t-103.5 80.5t-179.5 23q-77 0 -164 -13t-168 -40v132q76 26 170 40
t182 14q158 0 259.5 -38zM692 139.5q83 33.5 148 99.5v281l-284 -31q-145 -17 -207.5 -64t-62.5 -133q0 -89 58 -137.5t175 -48.5q90 0 173 33.5zM739 1557q36 -50 36 -116q0 -55 -25 -99t-69.5 -69t-100.5 -25t-100.5 25t-69.5 69t-25 99t25 99.5t69.5 69.5t100.5 25
q48 0 87 -18l139 163h134zM664.5 1354.5q32.5 32.5 32.5 86.5q0 55 -32.5 87.5t-84.5 32.5t-84.5 -32.5t-32.5 -87.5q0 -54 32.5 -86.5t84.5 -32.5t84.5 32.5z" />
    <glyph glyph-name="AEacute" unicode="&#x1fc;" horiz-adv-x="2070" 
d="M1203 138h764v-138h-924l-40 479h-596l-196 -479h-171l610 1480h1307v-138h-860l45 -514h714v-137h-702zM463 617h528l-61 725h-171zM926 1608l218 284h187l-245 -284h-160z" />
    <glyph glyph-name="aeacute" unicode="&#x1fd;" horiz-adv-x="1889" 
d="M1796 489h-789q7 -198 111 -287.5t313 -89.5q137 0 307 48v-131q-169 -48 -329 -48q-337 0 -473 195q-104 -105 -214.5 -149.5t-229.5 -44.5q-120 0 -204.5 36.5t-128.5 104t-44 158.5q0 148 110.5 233t346.5 85h268v106q0 103 -35 160.5t-103.5 80.5t-179.5 23
q-77 0 -164 -13t-168 -40v132q77 26 168.5 40t178.5 14q163 0 264 -44t147 -146q60 94 157.5 142t225.5 48q148 0 252 -64.5t158.5 -190.5t54.5 -307v-51zM1006 599h630q-5 196 -83.5 290.5t-228.5 94.5q-308 0 -318 -385zM711.5 146.5q92.5 40.5 170.5 132.5
q-33 87 -41 211h-264q-154 0 -222.5 -53t-68.5 -144q0 -90 59 -138.5t176 -48.5q98 0 190.5 40.5zM844 1253l265 363h191l-292 -363h-164z" />
    <glyph glyph-name="Oslashacute" unicode="&#x1fe;" horiz-adv-x="1653" 
d="M1528 740q0 -251 -87.5 -421.5t-245 -254t-369.5 -83.5q-140 0 -257.5 36t-205.5 109l-133 -154l-78 69l137 158q-165 196 -165 541q0 252 87.5 422t245 253.5t369.5 83.5q287 0 463 -145l133 154l79 -69l-137 -158q164 -195 164 -541zM400 327l784 906
q-131 122 -358 122q-247 0 -386.5 -149t-139.5 -461q0 -265 100 -418zM1213 274q139 149 139 461q0 262 -100 417l-785 -906q131 -121 359 -121q248 0 387 149zM737 1608l218 284h187l-245 -284h-160z" />
    <glyph glyph-name="oslashacute" unicode="&#x1ff;" horiz-adv-x="1270" 
d="M1157 543q0 -185 -64.5 -311t-182 -188.5t-275.5 -62.5q-188 0 -313 82l-78 -98l-76 63l78 99q-134 147 -134 416q0 185 64 310t181 187t278 62q190 0 314 -81l78 99l76 -63l-79 -100q133 -142 133 -414zM372.5 864.5q-91.5 -100.5 -91.5 -320.5q0 -188 68 -293l510 650
q-86 64 -224 64q-171 0 -262.5 -100.5zM989 541q0 187 -68 292l-510 -650q83 -66 224 -66q354 0 354 424zM543 1253l265 363h191l-292 -363h-164z" />
    <glyph glyph-name="uni0200" unicode="&#x200;" horiz-adv-x="1522" 
d="M1308 0l-192 479h-713l-192 -479h-171l602 1480h238l602 -1480h-174zM459 617h601l-300 749zM510 1608l-171 284h142l161 -284h-132zM880 1608l-170 284h141l161 -284h-132z" />
    <glyph glyph-name="uni0201" unicode="&#x201;" horiz-adv-x="1166" 
d="M801.5 1064q101.5 -38 153 -127t51.5 -240v-697h-142l-12 123h-11q-61 -65 -157.5 -103t-202.5 -38q-116 0 -198.5 36.5t-125 103.5t-42.5 157q0 141 102.5 218.5t328.5 99.5l294 32v76q0 103 -35 160.5t-103.5 80.5t-179.5 23q-77 0 -164 -13t-168 -40v132q76 26 170 40
t182 14q158 0 259.5 -38zM692 139.5q83 33.5 148 99.5v281l-284 -31q-145 -17 -207.5 -64t-62.5 -133q0 -89 58 -137.5t175 -48.5q90 0 173 33.5zM329 1253l-188 363h143l177 -363h-132zM699 1253l-188 363h143l177 -363h-132z" />
    <glyph glyph-name="uni0202" unicode="&#x202;" horiz-adv-x="1522" 
d="M1308 0l-192 479h-713l-192 -479h-171l602 1480h238l602 -1480h-174zM459 617h601l-300 749zM502 1813.5q89 69.5 258 69.5q168 0 258.5 -70.5t105.5 -183.5h-114q-14 74 -72.5 115t-177.5 41q-120 0 -177 -40.5t-71 -115.5h-114q15 115 104 184.5z" />
    <glyph glyph-name="uni0203" unicode="&#x203;" horiz-adv-x="1166" 
d="M801.5 1064q101.5 -38 153 -127t51.5 -240v-697h-142l-12 123h-11q-61 -65 -157.5 -103t-202.5 -38q-116 0 -198.5 36.5t-125 103.5t-42.5 157q0 141 102.5 218.5t328.5 99.5l294 32v76q0 103 -35 160.5t-103.5 80.5t-179.5 23q-77 0 -164 -13t-168 -40v132q76 26 170 40
t182 14q158 0 259.5 -38zM692 139.5q83 33.5 148 99.5v281l-284 -31q-145 -17 -207.5 -64t-62.5 -133q0 -89 58 -137.5t175 -48.5q90 0 173 33.5zM332.5 1520q86.5 88 246.5 88q106 0 181.5 -41t116 -114.5t45.5 -171.5h-113q-9 107 -65 167t-165 60t-164 -60t-64 -167h-113
q8 151 94.5 239z" />
    <glyph glyph-name="uni0204" unicode="&#x204;" horiz-adv-x="1338" 
d="M364 138h872v-138h-1042v1480h1032v-138h-862v-514h760v-137h-760v-553zM480 1608l-171 284h142l161 -284h-132zM850 1608l-170 284h141l161 -284h-132z" />
    <glyph glyph-name="uni0205" unicode="&#x205;" horiz-adv-x="1172" 
d="M1079 489h-797q7 -198 112 -287.5t317 -89.5q136 0 310 48v-131q-172 -48 -332 -48q-285 0 -431 137.5t-146 423.5q0 181 58.5 306.5t169 189.5t265.5 64q229 0 351.5 -145t122.5 -420v-48zM367.5 889.5q-81.5 -94.5 -86.5 -290.5h638q-5 197 -84 291t-232 94
q-154 0 -235.5 -94.5zM356 1253l-188 363h143l177 -363h-132zM726 1253l-188 363h143l177 -363h-132z" />
    <glyph glyph-name="uni0206" unicode="&#x206;" horiz-adv-x="1338" 
d="M364 138h872v-138h-1042v1480h1032v-138h-862v-514h760v-137h-760v-553zM472 1813.5q89 69.5 258 69.5q168 0 258.5 -70.5t105.5 -183.5h-114q-14 74 -72.5 115t-177.5 41q-120 0 -177 -40.5t-71 -115.5h-114q15 115 104 184.5z" />
    <glyph glyph-name="uni0207" unicode="&#x207;" horiz-adv-x="1172" 
d="M1079 489h-797q7 -198 112 -287.5t317 -89.5q136 0 310 48v-131q-172 -48 -332 -48q-285 0 -431 137.5t-146 423.5q0 181 58.5 306.5t169 189.5t265.5 64q229 0 351.5 -145t122.5 -420v-48zM367.5 889.5q-81.5 -94.5 -86.5 -290.5h638q-5 197 -84 291t-232 94
q-154 0 -235.5 -94.5zM359.5 1520q86.5 88 246.5 88q106 0 181.5 -41t116 -114.5t45.5 -171.5h-113q-9 107 -65 167t-165 60t-164 -60t-64 -167h-113q8 151 94.5 239z" />
    <glyph glyph-name="uni0208" unicode="&#x208;" horiz-adv-x="560" 
d="M194 0v1480h171v-1480h-171zM29 1608l-171 284h142l161 -284h-132zM399 1608l-170 284h141l161 -284h-132z" />
    <glyph glyph-name="uni0209" unicode="&#x209;" horiz-adv-x="520" 
d="M176 0v1085h168v-1085h-168zM9 1253l-188 363h143l177 -363h-132zM379 1253l-188 363h143l177 -363h-132z" />
    <glyph glyph-name="uni020A" unicode="&#x20a;" horiz-adv-x="560" 
d="M194 0v1480h171v-1480h-171zM21 1813.5q89 69.5 258 69.5q168 0 258.5 -70.5t105.5 -183.5h-114q-14 74 -72.5 115t-177.5 41q-120 0 -177 -40.5t-71 -115.5h-114q15 115 104 184.5z" />
    <glyph glyph-name="uni020B" unicode="&#x20b;" horiz-adv-x="520" 
d="M176 0v1085h168v-1085h-168zM12.5 1520q86.5 88 246.5 88q106 0 181.5 -41t116 -114.5t45.5 -171.5h-113q-9 107 -65 167t-165 60t-164 -60t-64 -167h-113q8 151 94.5 239z" />
    <glyph glyph-name="uni020C" unicode="&#x20c;" horiz-adv-x="1653" 
d="M454.5 64.5q-157.5 83.5 -244 253.5t-86.5 422t87.5 422t245 253.5t369.5 83.5q214 0 371.5 -83.5t244 -253.5t86.5 -422q0 -251 -87.5 -421.5t-245 -254t-369.5 -83.5q-214 0 -371.5 83.5zM1213 274q139 149 139 461q0 318 -139 469t-387 151q-247 0 -386.5 -149
t-139.5 -461q0 -320 138.5 -470t387.5 -150q248 0 387 149zM575 1608l-171 284h142l161 -284h-132zM945 1608l-170 284h141l161 -284h-132z" />
    <glyph glyph-name="uni020D" unicode="&#x20d;" horiz-adv-x="1270" 
d="M358 42q-117 61 -181.5 187t-64.5 314q0 185 64 310t181 187t278 62q247 0 384.5 -139.5t137.5 -419.5q0 -185 -64.5 -311t-182 -188.5t-275.5 -62.5q-160 0 -277 61zM988 541q0 222 -91.5 322.5t-261.5 100.5t-261.5 -100t-91.5 -320q0 -426 353 -426t353 423zM384 1253
l-188 363h143l177 -363h-132zM754 1253l-188 363h143l177 -363h-132z" />
    <glyph glyph-name="uni020E" unicode="&#x20e;" horiz-adv-x="1653" 
d="M454.5 64.5q-157.5 83.5 -244 253.5t-86.5 422t87.5 422t245 253.5t369.5 83.5q214 0 371.5 -83.5t244 -253.5t86.5 -422q0 -251 -87.5 -421.5t-245 -254t-369.5 -83.5q-214 0 -371.5 83.5zM1213 274q139 149 139 461q0 318 -139 469t-387 151q-247 0 -386.5 -149
t-139.5 -461q0 -320 138.5 -470t387.5 -150q248 0 387 149zM567 1813.5q89 69.5 258 69.5q168 0 258.5 -70.5t105.5 -183.5h-114q-14 74 -72.5 115t-177.5 41q-120 0 -177 -40.5t-71 -115.5h-114q15 115 104 184.5z" />
    <glyph glyph-name="uni020F" unicode="&#x20f;" horiz-adv-x="1270" 
d="M358 42q-117 61 -181.5 187t-64.5 314q0 185 64 310t181 187t278 62q247 0 384.5 -139.5t137.5 -419.5q0 -185 -64.5 -311t-182 -188.5t-275.5 -62.5q-160 0 -277 61zM988 541q0 222 -91.5 322.5t-261.5 100.5t-261.5 -100t-91.5 -320q0 -426 353 -426t353 423z
M387.5 1520q86.5 88 246.5 88q106 0 181.5 -41t116 -114.5t45.5 -171.5h-113q-9 107 -65 167t-165 60t-164 -60t-64 -167h-113q8 151 94.5 239z" />
    <glyph glyph-name="uni0210" unicode="&#x210;" horiz-adv-x="1452" 
d="M1186 0l-499 611q-23 -1 -71 -1q-104 0 -253 12v-622h-169v1448q229 48 447 48q215 0 353 -45.5t206.5 -142.5t68.5 -252q0 -174 -102 -280.5t-302 -144.5l517 -631h-196zM363 755q75 -7 128.5 -10t130.5 -3q254 0 369.5 76t115.5 235q0 115 -47.5 183t-146.5 98t-262 30
q-87 0 -152 -6.5t-136 -19.5v-583zM457 1608l-171 284h142l161 -284h-132zM827 1608l-170 284h141l161 -284h-132z" />
    <glyph glyph-name="uni0211" unicode="&#x211;" horiz-adv-x="825" 
d="M176 1085h140l13 -142h11q63 71 160 112t199 41q57 0 111 -10v-153q-49 8 -118 8q-92 0 -189 -37.5t-159 -110.5v-793h-168v1085zM242 1253l-188 363h143l177 -363h-132zM612 1253l-188 363h143l177 -363h-132z" />
    <glyph glyph-name="uni0212" unicode="&#x212;" horiz-adv-x="1452" 
d="M1186 0l-499 611q-23 -1 -71 -1q-104 0 -253 12v-622h-169v1448q229 48 447 48q215 0 353 -45.5t206.5 -142.5t68.5 -252q0 -174 -102 -280.5t-302 -144.5l517 -631h-196zM363 755q75 -7 128.5 -10t130.5 -3q254 0 369.5 76t115.5 235q0 115 -47.5 183t-146.5 98t-262 30
q-87 0 -152 -6.5t-136 -19.5v-583zM449 1813.5q89 69.5 258 69.5q168 0 258.5 -70.5t105.5 -183.5h-114q-14 74 -72.5 115t-177.5 41q-120 0 -177 -40.5t-71 -115.5h-114q15 115 104 184.5z" />
    <glyph glyph-name="uni0213" unicode="&#x213;" horiz-adv-x="825" 
d="M176 1085h140l13 -142h11q63 71 160 112t199 41q57 0 111 -10v-153q-49 8 -118 8q-92 0 -189 -37.5t-159 -110.5v-793h-168v1085zM245.5 1520q86.5 88 246.5 88q106 0 181.5 -41t116 -114.5t45.5 -171.5h-113q-9 107 -65 167t-165 60t-164 -60t-64 -167h-113
q8 151 94.5 239z" />
    <glyph glyph-name="uni0214" unicode="&#x214;" horiz-adv-x="1599" 
d="M336 131.5q-149 150.5 -149 466.5v882h171v-899q0 -237 107.5 -346t335.5 -109t336 109t108 346v899h167v-882q0 -316 -148.5 -466.5t-462.5 -150.5q-316 0 -465 150.5zM550 1608l-171 284h142l161 -284h-132zM920 1608l-170 284h141l161 -284h-132z" />
    <glyph glyph-name="uni0215" unicode="&#x215;" horiz-adv-x="1289" 
d="M267.5 83.5q-107.5 101.5 -107.5 317.5v684h168v-676q0 -149 70 -215t197 -66q96 0 188.5 37.5t161.5 110.5v809h168v-1085h-140l-12 120h-10q-78 -67 -177.5 -102.5t-208.5 -35.5q-190 0 -297.5 101.5zM386 1253l-188 363h143l177 -363h-132zM756 1253l-188 363h143
l177 -363h-132z" />
    <glyph glyph-name="uni0216" unicode="&#x216;" horiz-adv-x="1599" 
d="M336 131.5q-149 150.5 -149 466.5v882h171v-899q0 -237 107.5 -346t335.5 -109t336 109t108 346v899h167v-882q0 -316 -148.5 -466.5t-462.5 -150.5q-316 0 -465 150.5zM542 1813.5q89 69.5 258 69.5q168 0 258.5 -70.5t105.5 -183.5h-114q-14 74 -72.5 115t-177.5 41
q-120 0 -177 -40.5t-71 -115.5h-114q15 115 104 184.5z" />
    <glyph glyph-name="uni0217" unicode="&#x217;" horiz-adv-x="1289" 
d="M267.5 83.5q-107.5 101.5 -107.5 317.5v684h168v-676q0 -149 70 -215t197 -66q96 0 188.5 37.5t161.5 110.5v809h168v-1085h-140l-12 120h-10q-78 -67 -177.5 -102.5t-208.5 -35.5q-190 0 -297.5 101.5zM389.5 1520q86.5 88 246.5 88q106 0 181.5 -41t116 -114.5
t45.5 -171.5h-113q-9 107 -65 167t-165 60t-164 -60t-64 -167h-113q8 151 94.5 239z" />
    <glyph glyph-name="Scommaaccent" unicode="&#x218;" horiz-adv-x="1211" 
d="M323 -2q-108 17 -207 49v144q103 -34 214.5 -51.5t210.5 -17.5q406 0 406 275q0 76 -33 125.5t-104.5 82t-194.5 56.5l-90 17q-225 44 -329 142.5t-104 262.5q0 130 65 223t194.5 143t319.5 50q203 0 379 -52v-144q-180 55 -378 55q-207 0 -307.5 -69t-100.5 -199
q0 -75 29 -125t95 -83t179 -56l90 -17q165 -32 266.5 -86t148 -132t46.5 -186q0 -134 -68 -229.5t-198.5 -145t-313.5 -49.5q-107 0 -215 17zM723 -273q0 -44 -15 -96t-42 -97h-104q34 74 42 140q-49 2 -74 23.5t-25 58.5t27.5 58.5t78.5 21.5q112 0 112 -109z" />
    <glyph glyph-name="scommaaccent" unicode="&#x219;" horiz-adv-x="1044" 
d="M132 28v128q91 -26 177 -37.5t179 -11.5q162 0 234 46.5t72 136.5q0 48 -17 80t-58 53.5t-113 34.5l-184 30q-163 27 -235.5 100t-72.5 196q0 146 119 232t362 86q159 0 301 -40v-128q-144 41 -300 41q-172 0 -245 -49t-73 -136q0 -66 40.5 -108t141.5 -60l184 -30
q164 -27 239 -95.5t75 -195.5q0 -151 -119 -235.5t-353 -84.5q-200 0 -354 47zM637 -273q0 -44 -15 -96t-42 -97h-104q34 74 42 140q-49 2 -74 23.5t-25 58.5t27.5 58.5t78.5 21.5q112 0 112 -109z" />
    <glyph glyph-name="uni021A" unicode="&#x21a;" horiz-adv-x="1317" 
d="M573 0v1338h-552v142h1275v-142h-552v-1338h-171zM767 -273q0 -44 -15 -96t-42 -97h-104q34 74 42 140q-49 2 -74 23.5t-25 58.5t27.5 58.5t78.5 21.5q112 0 112 -109z" />
    <glyph glyph-name="uni021B" unicode="&#x21b;" horiz-adv-x="854" 
d="M832 142v-139q-100 -22 -192 -22q-192 0 -293 94.5t-101 287.5v583h-225v139h225l28 395h140v-395h400v-139h-400v-552q0 -145 65.5 -208.5t198.5 -63.5q63 0 154 20zM649 -273q0 -44 -15 -96t-42 -97h-104q34 74 42 140q-49 2 -74 23.5t-25 58.5t27.5 58.5t78.5 21.5
q112 0 112 -109z" />
    <glyph glyph-name="uni022A" unicode="&#x22a;" horiz-adv-x="1653" 
d="M454.5 64.5q-157.5 83.5 -244 253.5t-86.5 422t87.5 422t245 253.5t369.5 83.5q214 0 371.5 -83.5t244 -253.5t86.5 -422q0 -251 -87.5 -421.5t-245 -254t-369.5 -83.5q-214 0 -371.5 83.5zM1213 274q139 149 139 461q0 318 -139 469t-387 151q-247 0 -386.5 -149
t-139.5 -461q0 -320 138.5 -470t387.5 -150q248 0 387 149zM480 1684.5q-27 24.5 -27 66.5q0 43 27 68.5t77 25.5t77 -25.5t27 -68.5q0 -42 -27 -66.5t-77 -24.5t-77 24.5zM1018 1684.5q-27 24.5 -27 66.5q0 43 27 68.5t77 25.5t77 -25.5t27 -68.5q0 -42 -27 -66.5
t-77 -24.5t-77 24.5zM490 1997v108h672v-108h-672z" />
    <glyph glyph-name="uni022B" unicode="&#x22b;" horiz-adv-x="1270" 
d="M358 42q-117 61 -181.5 187t-64.5 314q0 185 64 310t181 187t278 62q247 0 384.5 -139.5t137.5 -419.5q0 -185 -64.5 -311t-182 -188.5t-275.5 -62.5q-160 0 -277 61zM988 541q0 222 -91.5 322.5t-261.5 100.5t-261.5 -100t-91.5 -320q0 -426 353 -426t353 423z
M305.5 1348.5q-27.5 26.5 -27.5 72.5t27.5 73t77.5 27t78 -27t28 -73t-27.5 -72.5t-78.5 -26.5q-50 0 -77.5 26.5zM808.5 1348.5q-27.5 26.5 -27.5 72.5t28 73t78 27t77.5 -27t27.5 -73t-27.5 -72.5t-77.5 -26.5q-51 0 -78.5 26.5zM294 1740v108h682v-108h-682z" />
    <glyph glyph-name="uni022C" unicode="&#x22c;" horiz-adv-x="1653" 
d="M454.5 64.5q-157.5 83.5 -244 253.5t-86.5 422t87.5 422t245 253.5t369.5 83.5q214 0 371.5 -83.5t244 -253.5t86.5 -422q0 -251 -87.5 -421.5t-245 -254t-369.5 -83.5q-214 0 -371.5 83.5zM1213 274q139 149 139 461q0 318 -139 469t-387 151q-247 0 -386.5 -149
t-139.5 -461q0 -320 138.5 -470t387.5 -150q248 0 387 149zM909 1680q-41 10 -99 29q-53 17 -87 25.5t-70 8.5q-59 0 -103.5 -16t-86.5 -52v109q35 33 81.5 48.5t111.5 15.5q46 0 87 -10t99 -29q50 -17 85.5 -26t71.5 -9q59 0 103.5 16.5t86.5 52.5v-110
q-35 -32 -81.5 -47.5t-111.5 -15.5q-46 0 -87 10zM490 1997v108h672v-108h-672z" />
    <glyph glyph-name="uni022D" unicode="&#x22d;" horiz-adv-x="1270" 
d="M358 42q-117 61 -181.5 187t-64.5 314q0 185 64 310t181 187t278 62q247 0 384.5 -139.5t137.5 -419.5q0 -185 -64.5 -311t-182 -188.5t-275.5 -62.5q-160 0 -277 61zM988 541q0 222 -91.5 322.5t-261.5 100.5t-261.5 -100t-91.5 -320q0 -426 353 -426t353 423zM712 1356
q-38 11 -93 32q-46 19 -79 28.5t-65 9.5q-53 0 -96.5 -18t-84.5 -58v117q68 67 184 67q42 0 80 -11t93 -32q46 -19 79 -28.5t65 -9.5q53 0 96.5 18t84.5 57v-117q-67 -66 -184 -66q-42 0 -80 11zM294 1740v108h682v-108h-682z" />
    <glyph glyph-name="uni0230" unicode="&#x230;" horiz-adv-x="1653" 
d="M454.5 64.5q-157.5 83.5 -244 253.5t-86.5 422t87.5 422t245 253.5t369.5 83.5q214 0 371.5 -83.5t244 -253.5t86.5 -422q0 -251 -87.5 -421.5t-245 -254t-369.5 -83.5q-214 0 -371.5 83.5zM1213 274q139 149 139 461q0 318 -139 469t-387 151q-247 0 -386.5 -149
t-139.5 -461q0 -320 138.5 -470t387.5 -150q248 0 387 149zM741.5 1684.5q-29.5 24.5 -29.5 66.5q0 43 29.5 68.5t84.5 25.5t84.5 -25.5t29.5 -68.5q0 -42 -29.5 -66.5t-84.5 -24.5t-84.5 24.5zM490 1997v108h672v-108h-672z" />
    <glyph glyph-name="uni0231" unicode="&#x231;" horiz-adv-x="1270" 
d="M358 42q-117 61 -181.5 187t-64.5 314q0 185 64 310t181 187t278 62q247 0 384.5 -139.5t137.5 -419.5q0 -185 -64.5 -311t-182 -188.5t-275.5 -62.5q-160 0 -277 61zM988 541q0 222 -91.5 322.5t-261.5 100.5t-261.5 -100t-91.5 -320q0 -426 353 -426t353 423zM549 1347
q-30 26 -30 74t30 74.5t86 26.5t86 -26.5t30 -74.5t-30 -74t-86 -26t-86 26zM294 1672v108h682v-108h-682z" />
    <glyph glyph-name="uni0232" unicode="&#x232;" horiz-adv-x="1317" 
d="M1333 1480l-588 -822v-658h-171v657l-601 823h192l498 -681l489 681h181zM322 1696v108h672v-108h-672z" />
    <glyph glyph-name="uni0233" unicode="&#x233;" horiz-adv-x="1206" 
d="M1014 1085h167l-666 -1525h-167l192 440h-42l-473 1085h180l401 -951zM263 1369v108h682v-108h-682z" />
    <glyph glyph-name="uni0237" unicode="&#x237;" horiz-adv-x="520" 
d="M-20 -389q103 124 149.5 257.5t46.5 301.5v915h168v-908q0 -188 -60.5 -340t-194.5 -301z" />
    <glyph glyph-name="uni0259" unicode="&#x259;" horiz-adv-x="1172" 
d="M914 966.5q146 -137.5 146 -423.5q0 -181 -58.5 -306.5t-169 -189.5t-265.5 -64q-229 0 -351.5 145t-122.5 420v48h797q-7 198 -112 287.5t-317 89.5q-136 0 -310 -48v131q172 48 332 48q285 0 431 -137.5zM804.5 195.5q81.5 94.5 86.5 290.5h-638q5 -197 84 -291
t232 -94q154 0 235.5 94.5z" />
    <glyph glyph-name="uni02BB" unicode="&#x2bb;" horiz-adv-x="1200" 
d="M684 1461q25 -22 25 -58q0 -37 -27.5 -58.5t-78.5 -21.5q-112 0 -112 109q0 44 15 96.5t42 96.5h104q-34 -74 -42 -140q49 -2 74 -24z" />
    <glyph glyph-name="uni02BC" unicode="&#x2bc;" horiz-adv-x="1200" 
d="M789.5 1597q28.5 -28 28.5 -81q0 -44 -15 -96t-42 -97h-104q34 74 42 140q-49 2 -74 23.5t-25 57.5q0 38 27.5 59.5t78.5 21.5q55 0 83.5 -28z" />
    <glyph glyph-name="uni02BE" unicode="&#x2be;" horiz-adv-x="1200" 
d="M600 1322q52 0 84.5 32.5t32.5 86.5q0 55 -32.5 87.5t-84.5 32.5v74q56 0 100.5 -25t69.5 -69.5t25 -99.5t-25 -99t-69.5 -69t-100.5 -25v74z" />
    <glyph glyph-name="uni02BF" unicode="&#x2bf;" horiz-adv-x="1200" 
d="M499.5 1273q-44.5 25 -69.5 69t-25 99t25 99.5t69.5 69.5t100.5 25v-74q-52 0 -84.5 -32.5t-32.5 -87.5q0 -54 32.5 -86.5t84.5 -32.5v-74q-56 0 -100.5 25z" />
    <glyph glyph-name="circumflex" unicode="&#x2c6;" horiz-adv-x="1200" 
d="M940 1253h-143l-197 274l-197 -274h-143l267 363h146z" />
    <glyph glyph-name="caron" unicode="&#x2c7;" horiz-adv-x="1200" 
d="M803 1616h143l-273 -363h-146l-273 363h143l203 -276z" />
    <glyph glyph-name="uni02C8" unicode="&#x2c8;" horiz-adv-x="1200" 
d="M555 1218v400h90v-400h-90z" />
    <glyph glyph-name="uni02C9" unicode="&#x2c9;" horiz-adv-x="1200" 
d="M259 1369v108h682v-108h-682z" />
    <glyph glyph-name="uni02CA" unicode="&#x2ca;" horiz-adv-x="1200" 
d="M515 1253l265 363h197l-292 -363h-170z" />
    <glyph glyph-name="uni02CB" unicode="&#x2cb;" horiz-adv-x="1200" 
d="M515 1253l-292 363h197l265 -363h-170z" />
    <glyph glyph-name="uni02CC" unicode="&#x2cc;" horiz-adv-x="1200" 
d="M555 -440v400h90v-400h-90z" />
    <glyph glyph-name="breve" unicode="&#x2d8;" horiz-adv-x="1200" 
d="M419.5 1304q-75.5 41 -116 114.5t-45.5 171.5h113q9 -108 64.5 -168.5t165.5 -60.5q209 0 228 229h113q-8 -150 -95.5 -238.5t-245.5 -88.5q-106 0 -181.5 41z" />
    <glyph glyph-name="dotaccent" unicode="&#x2d9;" horiz-adv-x="1200" 
d="M514 1347q-30 26 -30 74t30 74.5t86 26.5t86 -26.5t30 -74.5t-30 -74t-86 -26t-86 26z" />
    <glyph glyph-name="ring" unicode="&#x2da;" horiz-adv-x="1200" 
d="M499.5 1273q-44.5 25 -69.5 69t-25 99t25 99.5t69.5 69.5t100.5 25t100.5 -25t69.5 -69.5t25 -99.5t-25 -99t-69.5 -69t-100.5 -25t-100.5 25zM684.5 1354.5q32.5 32.5 32.5 86.5q0 55 -32.5 87.5t-84.5 32.5t-84.5 -32.5t-32.5 -87.5q0 -54 32.5 -86.5t84.5 -32.5
t84.5 32.5z" />
    <glyph glyph-name="ogonek" unicode="&#x2db;" horiz-adv-x="1200" 
d="M330 -365.5q-60 49.5 -60 134.5q0 89 62.5 159.5t200.5 127.5l46 -56q-109 -52 -155.5 -104t-46.5 -117q0 -52 36.5 -82.5t100.5 -30.5q78 0 158 40v-82q-83 -39 -174 -39q-108 0 -168 49.5z" />
    <glyph glyph-name="tilde" unicode="&#x2dc;" horiz-adv-x="1200" 
d="M677 1356q-38 11 -93 32q-46 19 -79 28.5t-65 9.5q-53 0 -96.5 -18t-84.5 -58v117q68 67 184 67q42 0 80 -11t93 -32q46 -19 79 -28.5t65 -9.5q53 0 96.5 18t84.5 57v-117q-67 -66 -184 -66q-42 0 -80 11z" />
    <glyph glyph-name="hungarumlaut" unicode="&#x2dd;" horiz-adv-x="1200" 
d="M351 1253l178 363h140l-188 -363h-130zM719 1253l177 363h141l-188 -363h-130z" />
    <glyph glyph-name="gravecomb" unicode="&#x300;" horiz-adv-x="0" 
d="M-682 1253l-292 363h191l265 -363h-164z" />
    <glyph glyph-name="acutecomb" unicode="&#x301;" horiz-adv-x="0" 
d="M-682 1253l265 363h191l-292 -363h-164z" />
    <glyph glyph-name="uni0302" unicode="&#x302;" horiz-adv-x="0" 
d="M-260 1253h-143l-197 274l-197 -274h-143l267 363h146z" />
    <glyph glyph-name="tildecomb" unicode="&#x303;" horiz-adv-x="0" 
d="M-523 1356q-38 11 -93 32q-46 19 -79 28.5t-65 9.5q-53 0 -96.5 -18t-84.5 -58v117q68 67 184 67q42 0 80 -11t93 -32q46 -19 79 -28.5t65 -9.5q53 0 96.5 18t84.5 57v-117q-67 -66 -184 -66q-42 0 -80 11z" />
    <glyph glyph-name="uni0304" unicode="&#x304;" horiz-adv-x="0" 
d="M-941 1369v108h682v-108h-682z" />
    <glyph glyph-name="uni0306" unicode="&#x306;" horiz-adv-x="0" 
d="M-780.5 1304q-75.5 41 -116 114.5t-45.5 171.5h113q9 -108 64.5 -168.5t165.5 -60.5q209 0 228 229h113q-8 -150 -95.5 -238.5t-245.5 -88.5q-106 0 -181.5 41z" />
    <glyph glyph-name="uni0307" unicode="&#x307;" horiz-adv-x="0" 
d="M-686 1347q-30 26 -30 74t30 74.5t86 26.5t86 -26.5t30 -74.5t-30 -74t-86 -26t-86 26z" />
    <glyph glyph-name="uni0308" unicode="&#x308;" horiz-adv-x="0" 
d="M-929.5 1348.5q-27.5 26.5 -27.5 72.5t27.5 73t77.5 27t78 -27t28 -73t-27.5 -72.5t-78.5 -26.5q-50 0 -77.5 26.5zM-426.5 1348.5q-27.5 26.5 -27.5 72.5t28 73t78 27t77.5 -27t27.5 -73t-27.5 -72.5t-77.5 -26.5q-51 0 -78.5 26.5z" />
    <glyph glyph-name="hookabovecomb" unicode="&#x309;" horiz-adv-x="0" 
d="M-632.5 1319.5q15.5 27.5 36.5 44.5t53 37q35 23 51.5 39t16.5 40q0 35 -32 51t-100 16q-41 0 -87 -6t-86 -18v80q34 12 82.5 18.5t94.5 6.5q228 0 228 -141q0 -47 -22.5 -73t-67.5 -54q-41 -26 -61 -48t-23 -59h-101q2 39 17.5 66.5z" />
    <glyph glyph-name="uni030A" unicode="&#x30a;" horiz-adv-x="0" 
d="M-700.5 1273q-44.5 25 -69.5 69t-25 99t25 99.5t69.5 69.5t100.5 25t100.5 -25t69.5 -69.5t25 -99.5t-25 -99t-69.5 -69t-100.5 -25t-100.5 25zM-515.5 1354.5q32.5 32.5 32.5 86.5q0 55 -32.5 87.5t-84.5 32.5t-84.5 -32.5t-32.5 -87.5q0 -54 32.5 -86.5t84.5 -32.5
t84.5 32.5z" />
    <glyph glyph-name="uni030B" unicode="&#x30b;" horiz-adv-x="0" 
d="M-849 1253l178 363h140l-188 -363h-130zM-481 1253l177 363h141l-188 -363h-130z" />
    <glyph glyph-name="uni030C" unicode="&#x30c;" horiz-adv-x="0" 
d="M-397 1616h143l-273 -363h-146l-273 363h143l203 -276z" />
    <glyph glyph-name="uni030F" unicode="&#x30f;" horiz-adv-x="0" 
d="M-851 1253l-188 363h143l177 -363h-132zM-481 1253l-188 363h143l177 -363h-132z" />
    <glyph glyph-name="uni0311" unicode="&#x311;" horiz-adv-x="0" 
d="M-847.5 1520q86.5 88 246.5 88q106 0 181.5 -41t116 -114.5t45.5 -171.5h-113q-9 107 -65 167t-165 60t-164 -60t-64 -167h-113q8 151 94.5 239z" />
    <glyph glyph-name="uni0312" unicode="&#x312;" horiz-adv-x="0" 
d="M-516 1461q25 -22 25 -58q0 -37 -27.5 -58.5t-78.5 -21.5q-112 0 -112 109q0 44 15 96.5t42 96.5h104q-34 -74 -42 -140q49 -2 74 -24z" />
    <glyph glyph-name="uni031B" unicode="&#x31b;" horiz-adv-x="0" 
d="M-651 1480h70q106 0 160 40t54 125q0 36 -5.5 67.5t-16.5 73.5h118q13 -38 18.5 -71t5.5 -75q0 -124 -79.5 -192.5t-226.5 -68.5h-98v101z" />
    <glyph glyph-name="dotbelowcomb" unicode="&#x323;" horiz-adv-x="0" 
d="M-677.5 -332q-27.5 26 -27.5 70q0 45 27.5 71.5t77.5 26.5t77.5 -26.5t27.5 -71.5q0 -44 -27.5 -70t-77.5 -26t-77.5 26z" />
    <glyph glyph-name="uni0324" unicode="&#x324;" horiz-adv-x="0" 
d="M-929.5 -336.5q-27.5 26.5 -27.5 72.5t27.5 73t77.5 27t78 -27t28 -73t-27.5 -72.5t-78.5 -26.5q-50 0 -77.5 26.5zM-426.5 -336.5q-27.5 26.5 -27.5 72.5t28 73t78 27t77.5 -27t27.5 -73t-27.5 -72.5t-77.5 -26.5q-51 0 -78.5 26.5z" />
    <glyph glyph-name="uni0326" unicode="&#x326;" horiz-adv-x="0" 
d="M-491 -273q0 -44 -15 -96t-42 -97h-104q34 74 42 140q-49 2 -74 23.5t-25 58.5t27.5 58.5t78.5 21.5q112 0 112 -109z" />
    <glyph glyph-name="uni0327" unicode="&#x327;" horiz-adv-x="0" 
d="M-421 -149q44 -41 44 -110q0 -75 -56 -115.5t-158 -40.5q-51 0 -102 10t-87 28v81q86 -41 183 -41q61 0 91.5 20t30.5 64t-30.5 64t-92.5 20h-44v189h93v-121q84 -7 128 -48z" />
    <glyph glyph-name="uni0328" unicode="&#x328;" horiz-adv-x="0" 
d="M-870 -365.5q-60 49.5 -60 134.5q0 89 62.5 159.5t200.5 127.5l46 -56q-109 -52 -155.5 -104t-46.5 -117q0 -52 36.5 -82.5t100.5 -30.5q78 0 158 40v-82q-83 -39 -174 -39q-108 0 -168 49.5z" />
    <glyph glyph-name="uni032E" unicode="&#x32e;" horiz-adv-x="0" 
d="M-784 -386.5q-77 34.5 -116.5 94.5t-41.5 138h113q5 -79 61 -123t169 -44q218 0 228 167h113q-2 -79 -41 -139t-115 -94t-185 -34q-108 0 -185 34.5z" />
    <glyph glyph-name="uni0331" unicode="&#x331;" horiz-adv-x="0" 
d="M-914 -316v108h628v-108h-628z" />
    <glyph glyph-name="uni0394" unicode="&#x394;" horiz-adv-x="1522" 
d="M880 1480l602 -1480h-1442l602 1480h238zM760 1366l-495 -1228h989z" />
    <glyph glyph-name="uni03A9" unicode="&#x3a9;" horiz-adv-x="1653" 
d="M1174 136h354v-136h-573v115q200 124 298.5 287t98.5 382q0 180 -60 308t-177.5 195.5t-288.5 67.5q-170 0 -288 -67.5t-178 -195.5t-60 -308q0 -219 99 -382t299 -287v-115h-574v136h355q-355 229 -355 664q0 213 82.5 370.5t241 243t378.5 85.5q221 0 379 -85.5
t240.5 -243t82.5 -370.5q0 -434 -354 -664z" />
    <glyph glyph-name="uni03BC" unicode="&#x3bc;" horiz-adv-x="1289" 
d="M1113 1085v-1085h-140l-12 120h-10q-74 -67 -168 -102.5t-196 -35.5q-169 0 -259 94v-516h-168v1525h168v-676q0 -149 70 -215t197 -66q96 0 188.5 37.5t161.5 110.5v809h168z" />
    <glyph glyph-name="pi" unicode="&#x3c0;" horiz-adv-x="1467" 
d="M1445 137v-138q-34 -8 -75.5 -13t-77.5 -5q-158 0 -240.5 81t-83.5 253l-3 631h-551v-947h-168v947h-225v139h1340v-139h-225v-600q0 -84 21 -133t63 -70t110 -21q47 0 115 15z" />
    <glyph glyph-name="uni1E08" unicode="&#x1e08;" horiz-adv-x="1327" 
d="M1114 1892l-245 -284h-160l218 284h187zM456 1205.5q-152 -147.5 -152 -464.5q0 -326 150.5 -470t435.5 -144q100 0 189.5 14t188.5 46v-146q-176 -60 -387 -60h-36v-82q92 -6 142 -45.5t50 -110.5q0 -77 -61.5 -117.5t-173.5 -40.5q-55 0 -109.5 10t-98.5 28v81
q105 -41 203 -41q70 0 105.5 20.5t35.5 63.5t-36 63.5t-106 20.5h-44v156q-300 30 -464 212t-164 538q0 255 92 425t264.5 253.5t416.5 83.5q102 0 191 -12t180 -37v-146q-175 49 -363 49q-297 0 -449 -147.5z" />
    <glyph glyph-name="uni1E09" unicode="&#x1e09;" horiz-adv-x="1012" 
d="M967 1616l-292 -363h-164l265 363h191zM260 961.5q148 140.5 432 140.5q146 0 265 -35v-139q-65 17 -125 25.5t-127 8.5q-213 0 -316.5 -100.5t-103.5 -316.5q0 -219 97 -322t289 -103q64 0 132 12t154 39v-139q-142 -51 -303 -51h-8v-82q84 -7 128 -48t44 -110
q0 -75 -56 -115.5t-158 -40.5q-51 0 -102 10t-87 28v81q86 -41 183 -41q61 0 91.5 20t30.5 64t-30.5 64t-92.5 20h-44v156q-215 25 -328 164t-113 391q0 279 148 419.5z" />
    <glyph glyph-name="uni1E0C" unicode="&#x1e0c;" horiz-adv-x="1598" 
d="M194 15v1433q102 22 222.5 34t230.5 12q409 0 618 -188.5t209 -565.5q0 -382 -215.5 -566.5t-648.5 -184.5q-213 0 -416 26zM1136.5 280.5q161.5 148.5 161.5 460.5q0 311 -161.5 461t-488.5 150q-127 0 -283 -25v-1178q119 -17 279 -17q331 0 492.5 148.5zM643.5 -324
q-29.5 25 -29.5 67t29.5 67.5t84.5 25.5t84.5 -25.5t29.5 -67.5t-29.5 -67t-84.5 -25t-84.5 25z" />
    <glyph glyph-name="uni1E0D" unicode="&#x1e0d;" horiz-adv-x="1294" 
d="M346.5 39.5q-109.5 57.5 -172 177.5t-62.5 303q0 287 154 435t449 148q114 0 235 -22v535h168v-1616h-142l-11 125h-11q-63 -68 -154 -105.5t-199 -37.5q-145 0 -254.5 57.5zM809 158q81 35 141 110v672q-106 27 -230 27q-222 0 -330 -106t-108 -327q0 -411 354 -411
q92 0 173 35zM571.5 -332q-27.5 26 -27.5 70q0 45 27.5 71.5t77.5 26.5t77.5 -26.5t27.5 -71.5q0 -44 -27.5 -70t-77.5 -26t-77.5 26z" />
    <glyph glyph-name="uni1E0E" unicode="&#x1e0e;" horiz-adv-x="1598" 
d="M194 15v1433q102 22 222.5 34t230.5 12q409 0 618 -188.5t209 -565.5q0 -382 -215.5 -566.5t-648.5 -184.5q-213 0 -416 26zM1136.5 280.5q161.5 148.5 161.5 460.5q0 311 -161.5 461t-488.5 150q-127 0 -283 -25v-1178q119 -17 279 -17q331 0 492.5 148.5zM392 -310v108
h672v-108h-672z" />
    <glyph glyph-name="uni1E0F" unicode="&#x1e0f;" horiz-adv-x="1294" 
d="M346.5 39.5q-109.5 57.5 -172 177.5t-62.5 303q0 287 154 435t449 148q114 0 235 -22v535h168v-1616h-142l-11 125h-11q-63 -68 -154 -105.5t-199 -37.5q-145 0 -254.5 57.5zM809 158q81 35 141 110v672q-106 27 -230 27q-222 0 -330 -106t-108 -327q0 -411 354 -411
q92 0 173 35zM335 -316v108h628v-108h-628z" />
    <glyph glyph-name="uni1E14" unicode="&#x1e14;" horiz-adv-x="1338" 
d="M364 138h872v-138h-1042v1480h1032v-138h-862v-514h760v-137h-760v-553zM643 1910l-245 232h203l218 -232h-176zM395 1696v108h672v-108h-672z" />
    <glyph glyph-name="uni1E15" unicode="&#x1e15;" horiz-adv-x="1172" 
d="M1079 489h-797q7 -198 112 -287.5t317 -89.5q136 0 310 48v-131q-172 -48 -332 -48q-285 0 -431 137.5t-146 423.5q0 181 58.5 306.5t169 189.5t265.5 64q229 0 351.5 -145t122.5 -420v-48zM367.5 889.5q-81.5 -94.5 -86.5 -290.5h638q-5 197 -84 291t-232 94
q-154 0 -235.5 -94.5zM266 1369v108h682v-108h-682zM527 1659l-245 284h187l218 -284h-160z" />
    <glyph glyph-name="uni1E16" unicode="&#x1e16;" horiz-adv-x="1338" 
d="M364 138h872v-138h-1042v1480h1032v-138h-862v-514h760v-137h-760v-553zM643 1910l216 232h205l-244 -232h-177zM395 1696v108h672v-108h-672z" />
    <glyph glyph-name="uni1E17" unicode="&#x1e17;" horiz-adv-x="1172" 
d="M1079 489h-797q7 -198 112 -287.5t317 -89.5q136 0 310 48v-131q-172 -48 -332 -48q-285 0 -431 137.5t-146 423.5q0 181 58.5 306.5t169 189.5t265.5 64q229 0 351.5 -145t122.5 -420v-48zM367.5 889.5q-81.5 -94.5 -86.5 -290.5h638q-5 197 -84 291t-232 94
q-154 0 -235.5 -94.5zM266 1369v108h682v-108h-682zM526 1659l218 284h187l-245 -284h-160z" />
    <glyph glyph-name="uni1E1C" unicode="&#x1e1c;" horiz-adv-x="1338" 
d="M473 1687q-90 70 -105 184h114q14 -74 72.5 -115t177.5 -41q120 0 177 40.5t71 115.5h114q-15 -115 -104 -184.5t-258 -69.5t-259 70zM774 0v-101q92 -6 142 -45.5t50 -110.5q0 -77 -61.5 -117.5t-173.5 -40.5q-55 0 -109.5 10t-98.5 28v81q105 -41 203 -41
q70 0 105.5 20.5t35.5 63.5t-36 63.5t-106 20.5h-44v169h-487v1480h1032v-138h-862v-514h760v-137h-760v-553h872v-138h-462z" />
    <glyph glyph-name="uni1E1D" unicode="&#x1e1d;" horiz-adv-x="1172" 
d="M426.5 1304q-75.5 41 -116 114.5t-45.5 171.5h113q9 -108 64.5 -168.5t165.5 -60.5q209 0 228 229h113q-8 -150 -95.5 -238.5t-245.5 -88.5q-106 0 -181.5 41zM1079 489h-797q7 -198 112 -287.5t317 -89.5q136 0 310 48v-131q-172 -48 -332 -48h-31v-82q84 -7 128 -48
t44 -110q0 -75 -56 -115.5t-158 -40.5q-51 0 -102 10t-87 28v81q86 -41 183 -41q61 0 91.5 20t30.5 64t-30.5 64t-92.5 20h-44v157q-224 28 -338.5 164.5t-114.5 389.5q0 181 58.5 306.5t169 189.5t265.5 64q229 0 351.5 -145t122.5 -420v-48zM367.5 889.5
q-81.5 -94.5 -86.5 -290.5h638q-5 197 -84 291t-232 94q-154 0 -235.5 -94.5z" />
    <glyph glyph-name="uni1E20" unicode="&#x1e20;" horiz-adv-x="1542" 
d="M1356 720v-700q-111 -18 -201 -25.5t-189 -7.5q-417 0 -629 188.5t-213 560.5q0 254 99.5 425t281 254.5t428.5 83.5q182 0 379 -49v-146q-102 27 -190 38t-177 11q-304 0 -473 -149t-169 -462q0 -610 656 -610q123 0 235 13v575h162zM499 1696v108h672v-108h-672z" />
    <glyph glyph-name="uni1E21" unicode="&#x1e21;" horiz-adv-x="1294" 
d="M371.5 -446q-99.5 14 -186.5 42v139q194 -60 369 -60q140 0 226.5 35.5t128 114.5t41.5 210v89h-9q-65 -65 -156 -100.5t-200 -35.5q-137 0 -243.5 56.5t-168 176t-61.5 299.5q0 287 154.5 434.5t456.5 147.5q209 0 395 -55v-985q0 -184 -61 -299t-183.5 -169t-312.5 -54
q-90 0 -189.5 14zM805.5 162q83.5 33 144.5 101v674q-107 29 -243 29q-212 0 -318.5 -106t-106.5 -325q0 -214 93.5 -310t255.5 -96q91 0 174.5 33zM327 1369v108h682v-108h-682z" />
    <glyph glyph-name="uni1E24" unicode="&#x1e24;" horiz-adv-x="1631" 
d="M194 0v1480h171v-645h901v645h171v-1480h-171v684h-901v-684h-171zM731.5 -324q-29.5 25 -29.5 67t29.5 67.5t84.5 25.5t84.5 -25.5t29.5 -67.5t-29.5 -67t-84.5 -25t-84.5 25z" />
    <glyph glyph-name="uni1E25" unicode="&#x1e25;" horiz-adv-x="1299" 
d="M176 1616h168v-652h9q77 68 176.5 103t210.5 35q186 0 292.5 -101.5t106.5 -317.5v-683h-168v675q0 149 -71 214t-202 65q-99 0 -192 -37t-162 -109v-808h-168v1616zM580.5 -332q-27.5 26 -27.5 70q0 45 27.5 71.5t77.5 26.5t77.5 -26.5t27.5 -71.5q0 -44 -27.5 -70
t-77.5 -26t-77.5 26z" />
    <glyph glyph-name="uni1E2A" unicode="&#x1e2a;" horiz-adv-x="1631" 
d="M194 0v1480h171v-645h901v645h171v-1480h-171v684h-901v-684h-171zM619 -379q-80 34 -120.5 92.5t-45.5 132.5h114q17 -162 250 -162q124 0 182 42.5t66 119.5h114q-7 -116 -97 -187.5t-265 -71.5q-118 0 -198 34z" />
    <glyph glyph-name="uni1E2B" unicode="&#x1e2b;" horiz-adv-x="1299" 
d="M176 1616h168v-652h9q77 68 176.5 103t210.5 35q186 0 292.5 -101.5t106.5 -317.5v-683h-168v675q0 149 -71 214t-202 65q-99 0 -192 -37t-162 -109v-808h-168v1616zM474 -386.5q-77 34.5 -116.5 94.5t-41.5 138h113q5 -79 61 -123t169 -44q218 0 228 167h113
q-2 -79 -41 -139t-115 -94t-185 -34q-108 0 -185 34.5z" />
    <glyph glyph-name="uni1E2E" unicode="&#x1e2e;" horiz-adv-x="560" 
d="M194 0v1480h171v-1480h-171zM192 1910l216 232h205l-244 -232h-177zM-66 1684.5q-27 24.5 -27 66.5q0 43 27 68.5t77 25.5t77 -25.5t27 -68.5q0 -42 -27 -66.5t-77 -24.5t-77 24.5zM472 1684.5q-27 24.5 -27 66.5q0 43 27 68.5t77 25.5t77 -25.5t27 -68.5
q0 -42 -27 -66.5t-77 -24.5t-77 24.5z" />
    <glyph glyph-name="uni1E2F" unicode="&#x1e2f;" horiz-adv-x="520" 
d="M176 0v1085h168v-1085h-168zM-69.5 1348.5q-27.5 26.5 -27.5 72.5t27.5 73t77.5 27t78 -27t28 -73t-27.5 -72.5t-78.5 -26.5q-50 0 -77.5 26.5zM433.5 1348.5q-27.5 26.5 -27.5 72.5t28 73t78 27t77.5 -27t27.5 -73t-27.5 -72.5t-77.5 -26.5q-51 0 -78.5 26.5zM179 1659
l218 284h187l-245 -284h-160z" />
    <glyph glyph-name="uni1E36" unicode="&#x1e36;" horiz-adv-x="1214" 
d="M194 0v1480h171v-1338h830v-142h-1001zM610.5 -324q-29.5 25 -29.5 67t29.5 67.5t84.5 25.5t84.5 -25.5t29.5 -67.5t-29.5 -67t-84.5 -25t-84.5 25z" />
    <glyph glyph-name="uni1E37" unicode="&#x1e37;" horiz-adv-x="520" 
d="M176 0v1616h168v-1616h-168zM181.5 -332q-27.5 26 -27.5 70q0 45 27.5 71.5t77.5 26.5t77.5 -26.5t27.5 -71.5q0 -44 -27.5 -70t-77.5 -26t-77.5 26z" />
    <glyph glyph-name="uni1E3A" unicode="&#x1e3a;" horiz-adv-x="1214" 
d="M194 0v1480h171v-1338h830v-142h-1001zM359 -310v108h672v-108h-672z" />
    <glyph glyph-name="uni1E3B" unicode="&#x1e3b;" horiz-adv-x="520" 
d="M176 0v1616h168v-1616h-168zM-55 -316v108h628v-108h-628z" />
    <glyph glyph-name="uni1E42" unicode="&#x1e42;" horiz-adv-x="1946" 
d="M1546 1480h201v-1480h-161v1243l-535 -1038h-156l-535 1024v-1229h-162v1480h202l576 -1115zM896.5 -324q-29.5 25 -29.5 67t29.5 67.5t84.5 25.5t84.5 -25.5t29.5 -67.5t-29.5 -67t-84.5 -25t-84.5 25z" />
    <glyph glyph-name="uni1E43" unicode="&#x1e43;" horiz-adv-x="1893" 
d="M1634.5 1000.5q97.5 -101.5 97.5 -317.5v-683h-167v675q0 149 -62 214.5t-175 65.5q-82 0 -160.5 -34t-136.5 -106q11 -61 11 -131v-684h-166v675q0 149 -59.5 214.5t-170.5 65.5q-85 0 -164 -37.5t-138 -112.5v-805h-168v1085h140l12 -124h11q67 68 157 104.5t191 36.5
q103 0 179.5 -39t121.5 -120q83 83 180.5 121t195.5 38q173 0 270.5 -101.5zM881.5 -332q-27.5 26 -27.5 70q0 45 27.5 71.5t77.5 26.5t77.5 -26.5t27.5 -71.5q0 -44 -27.5 -70t-77.5 -26t-77.5 26z" />
    <glyph glyph-name="uni1E44" unicode="&#x1e44;" horiz-adv-x="1656" 
d="M1299 1480h163v-1480h-176l-929 1242v-1242h-163v1480h176l929 -1242v1242zM744.5 1684.5q-29.5 24.5 -29.5 66.5q0 43 29.5 68.5t84.5 25.5t84.5 -25.5t29.5 -68.5q0 -42 -29.5 -66.5t-84.5 -24.5t-84.5 24.5z" />
    <glyph glyph-name="uni1E45" unicode="&#x1e45;" horiz-adv-x="1299" 
d="M176 1085h140l12 -124h11q79 68 181 104.5t213 36.5q191 0 298.5 -103t107.5 -322v-677h-168v672q0 150 -69.5 216.5t-203.5 66.5q-95 0 -190 -36t-164 -110v-809h-168v1085zM572 1347q-30 26 -30 74t30 74.5t86 26.5t86 -26.5t30 -74.5t-30 -74t-86 -26t-86 26z" />
    <glyph glyph-name="uni1E46" unicode="&#x1e46;" horiz-adv-x="1656" 
d="M1299 1480h163v-1480h-176l-929 1242v-1242h-163v1480h176l929 -1242v1242zM744.5 -324q-29.5 25 -29.5 67t29.5 67.5t84.5 25.5t84.5 -25.5t29.5 -67.5t-29.5 -67t-84.5 -25t-84.5 25z" />
    <glyph glyph-name="uni1E47" unicode="&#x1e47;" horiz-adv-x="1299" 
d="M176 1085h140l12 -124h11q79 68 181 104.5t213 36.5q191 0 298.5 -103t107.5 -322v-677h-168v672q0 150 -69.5 216.5t-203.5 66.5q-95 0 -190 -36t-164 -110v-809h-168v1085zM580.5 -332q-27.5 26 -27.5 70q0 45 27.5 71.5t77.5 26.5t77.5 -26.5t27.5 -71.5
q0 -44 -27.5 -70t-77.5 -26t-77.5 26z" />
    <glyph glyph-name="uni1E48" unicode="&#x1e48;" horiz-adv-x="1656" 
d="M1299 1480h163v-1480h-176l-929 1242v-1242h-163v1480h176l929 -1242v1242zM493 -310v108h672v-108h-672z" />
    <glyph glyph-name="uni1E49" unicode="&#x1e49;" horiz-adv-x="1299" 
d="M176 1085h140l12 -124h11q79 68 181 104.5t213 36.5q191 0 298.5 -103t107.5 -322v-677h-168v672q0 150 -69.5 216.5t-203.5 66.5q-95 0 -190 -36t-164 -110v-809h-168v1085zM344 -316v108h628v-108h-628z" />
    <glyph glyph-name="uni1E4C" unicode="&#x1e4c;" horiz-adv-x="1653" 
d="M454.5 64.5q-157.5 83.5 -244 253.5t-86.5 422t87.5 422t245 253.5t369.5 83.5q214 0 371.5 -83.5t244 -253.5t86.5 -422q0 -251 -87.5 -421.5t-245 -254t-369.5 -83.5q-214 0 -371.5 83.5zM1213 274q139 149 139 461q0 318 -139 469t-387 151q-247 0 -386.5 -149
t-139.5 -461q0 -320 138.5 -470t387.5 -150q248 0 387 149zM738 1910l216 232h205l-244 -232h-177zM909 1680q-41 10 -99 29q-53 17 -87 25.5t-70 8.5q-59 0 -103.5 -16t-86.5 -52v109q35 33 81.5 48.5t111.5 15.5q46 0 87 -10t99 -29q50 -17 85.5 -26t71.5 -9
q59 0 103.5 16.5t86.5 52.5v-110q-35 -32 -81.5 -47.5t-111.5 -15.5q-46 0 -87 10z" />
    <glyph glyph-name="uni1E4D" unicode="&#x1e4d;" horiz-adv-x="1270" 
d="M358 42q-117 61 -181.5 187t-64.5 314q0 185 64 310t181 187t278 62q247 0 384.5 -139.5t137.5 -419.5q0 -185 -64.5 -311t-182 -188.5t-275.5 -62.5q-160 0 -277 61zM988 541q0 222 -91.5 322.5t-261.5 100.5t-261.5 -100t-91.5 -320q0 -426 353 -426t353 423zM712 1356
q-38 11 -93 32q-46 19 -79 28.5t-65 9.5q-53 0 -96.5 -18t-84.5 -58v117q68 67 184 67q42 0 80 -11t93 -32q46 -19 79 -28.5t65 -9.5q53 0 96.5 18t84.5 57v-117q-67 -66 -184 -66q-42 0 -80 11zM554 1659l218 284h187l-245 -284h-160z" />
    <glyph glyph-name="uni1E4E" unicode="&#x1e4e;" horiz-adv-x="1653" 
d="M454.5 64.5q-157.5 83.5 -244 253.5t-86.5 422t87.5 422t245 253.5t369.5 83.5q214 0 371.5 -83.5t244 -253.5t86.5 -422q0 -251 -87.5 -421.5t-245 -254t-369.5 -83.5q-214 0 -371.5 83.5zM1213 274q139 149 139 461q0 318 -139 469t-387 151q-247 0 -386.5 -149
t-139.5 -461q0 -320 138.5 -470t387.5 -150q248 0 387 149zM909 1680q-41 10 -99 29q-53 17 -87 25.5t-70 8.5q-59 0 -103.5 -16t-86.5 -52v109q35 33 81.5 48.5t111.5 15.5q46 0 87 -10t99 -29q50 -17 85.5 -26t71.5 -9q59 0 103.5 16.5t86.5 52.5v-110
q-35 -32 -81.5 -47.5t-111.5 -15.5q-46 0 -87 10zM480 1985.5q-27 24.5 -27 66.5q0 43 27 68.5t77 25.5t77 -25.5t27 -68.5q0 -42 -27 -66.5t-77 -24.5t-77 24.5zM1018 1985.5q-27 24.5 -27 66.5q0 43 27 68.5t77 25.5t77 -25.5t27 -68.5q0 -42 -27 -66.5t-77 -24.5
t-77 24.5z" />
    <glyph glyph-name="uni1E4F" unicode="&#x1e4f;" horiz-adv-x="1270" 
d="M358 42q-117 61 -181.5 187t-64.5 314q0 185 64 310t181 187t278 62q247 0 384.5 -139.5t137.5 -419.5q0 -185 -64.5 -311t-182 -188.5t-275.5 -62.5q-160 0 -277 61zM988 541q0 222 -91.5 322.5t-261.5 100.5t-261.5 -100t-91.5 -320q0 -426 353 -426t353 423zM712 1356
q-38 11 -93 32q-46 19 -79 28.5t-65 9.5q-53 0 -96.5 -18t-84.5 -58v117q68 67 184 67q42 0 80 -11t93 -32q46 -19 79 -28.5t65 -9.5q53 0 96.5 18t84.5 57v-117q-67 -66 -184 -66q-42 0 -80 11zM305.5 1719.5q-27.5 26.5 -27.5 72.5t27.5 73t77.5 27t78 -27t28 -73
t-27.5 -72.5t-78.5 -26.5q-50 0 -77.5 26.5zM808.5 1719.5q-27.5 26.5 -27.5 72.5t28 73t78 27t77.5 -27t27.5 -73t-27.5 -72.5t-77.5 -26.5q-51 0 -78.5 26.5z" />
    <glyph glyph-name="uni1E50" unicode="&#x1e50;" horiz-adv-x="1653" 
d="M454.5 64.5q-157.5 83.5 -244 253.5t-86.5 422t87.5 422t245 253.5t369.5 83.5q214 0 371.5 -83.5t244 -253.5t86.5 -422q0 -251 -87.5 -421.5t-245 -254t-369.5 -83.5q-214 0 -371.5 83.5zM1213 274q139 149 139 461q0 318 -139 469t-387 151q-247 0 -386.5 -149
t-139.5 -461q0 -320 138.5 -470t387.5 -150q248 0 387 149zM738 1910l-245 232h203l218 -232h-176zM490 1696v108h672v-108h-672z" />
    <glyph glyph-name="uni1E51" unicode="&#x1e51;" horiz-adv-x="1270" 
d="M358 42q-117 61 -181.5 187t-64.5 314q0 185 64 310t181 187t278 62q247 0 384.5 -139.5t137.5 -419.5q0 -185 -64.5 -311t-182 -188.5t-275.5 -62.5q-160 0 -277 61zM988 541q0 222 -91.5 322.5t-261.5 100.5t-261.5 -100t-91.5 -320q0 -426 353 -426t353 423zM294 1369
v108h682v-108h-682zM555 1659l-245 284h187l218 -284h-160z" />
    <glyph glyph-name="uni1E52" unicode="&#x1e52;" horiz-adv-x="1653" 
d="M454.5 64.5q-157.5 83.5 -244 253.5t-86.5 422t87.5 422t245 253.5t369.5 83.5q214 0 371.5 -83.5t244 -253.5t86.5 -422q0 -251 -87.5 -421.5t-245 -254t-369.5 -83.5q-214 0 -371.5 83.5zM1213 274q139 149 139 461q0 318 -139 469t-387 151q-247 0 -386.5 -149
t-139.5 -461q0 -320 138.5 -470t387.5 -150q248 0 387 149zM738 1910l216 232h205l-244 -232h-177zM490 1696v108h672v-108h-672z" />
    <glyph glyph-name="uni1E53" unicode="&#x1e53;" horiz-adv-x="1270" 
d="M358 42q-117 61 -181.5 187t-64.5 314q0 185 64 310t181 187t278 62q247 0 384.5 -139.5t137.5 -419.5q0 -185 -64.5 -311t-182 -188.5t-275.5 -62.5q-160 0 -277 61zM988 541q0 222 -91.5 322.5t-261.5 100.5t-261.5 -100t-91.5 -320q0 -426 353 -426t353 423zM294 1369
v108h682v-108h-682zM554 1659l218 284h187l-245 -284h-160z" />
    <glyph glyph-name="uni1E5A" unicode="&#x1e5a;" horiz-adv-x="1452" 
d="M1186 0l-499 611q-23 -1 -71 -1q-104 0 -253 12v-622h-169v1448q229 48 447 48q215 0 353 -45.5t206.5 -142.5t68.5 -252q0 -174 -102 -280.5t-302 -144.5l517 -631h-196zM363 755q75 -7 128.5 -10t130.5 -3q254 0 369.5 76t115.5 235q0 115 -47.5 183t-146.5 98t-262 30
q-87 0 -152 -6.5t-136 -19.5v-583zM663.5 -324q-29.5 25 -29.5 67t29.5 67.5t84.5 25.5t84.5 -25.5t29.5 -67.5t-29.5 -67t-84.5 -25t-84.5 25z" />
    <glyph glyph-name="uni1E5B" unicode="&#x1e5b;" horiz-adv-x="825" 
d="M176 1085h140l13 -142h11q63 71 160 112t199 41q57 0 111 -10v-153q-49 8 -118 8q-92 0 -189 -37.5t-159 -110.5v-793h-168v1085zM182.5 -332q-27.5 26 -27.5 70q0 45 27.5 71.5t77.5 26.5t77.5 -26.5t27.5 -71.5q0 -44 -27.5 -70t-77.5 -26t-77.5 26z" />
    <glyph glyph-name="uni1E5E" unicode="&#x1e5e;" horiz-adv-x="1452" 
d="M1186 0l-499 611q-23 -1 -71 -1q-104 0 -253 12v-622h-169v1448q229 48 447 48q215 0 353 -45.5t206.5 -142.5t68.5 -252q0 -174 -102 -280.5t-302 -144.5l517 -631h-196zM363 755q75 -7 128.5 -10t130.5 -3q254 0 369.5 76t115.5 235q0 115 -47.5 183t-146.5 98t-262 30
q-87 0 -152 -6.5t-136 -19.5v-583zM412 -310v108h672v-108h-672z" />
    <glyph glyph-name="uni1E5F" unicode="&#x1e5f;" horiz-adv-x="825" 
d="M176 1085h140l13 -142h11q63 71 160 112t199 41q57 0 111 -10v-153q-49 8 -118 8q-92 0 -189 -37.5t-159 -110.5v-793h-168v1085zM-54 -316v108h628v-108h-628z" />
    <glyph glyph-name="uni1E60" unicode="&#x1e60;" horiz-adv-x="1211" 
d="M323 -2q-108 17 -207 49v144q103 -34 214.5 -51.5t210.5 -17.5q406 0 406 275q0 76 -33 125.5t-104.5 82t-194.5 56.5l-90 17q-225 44 -329 142.5t-104 262.5q0 130 65 223t194.5 143t319.5 50q203 0 379 -52v-144q-180 55 -378 55q-207 0 -307.5 -69t-100.5 -199
q0 -75 29 -125t95 -83t179 -56l90 -17q165 -32 266.5 -86t148 -132t46.5 -186q0 -134 -68 -229.5t-198.5 -145t-313.5 -49.5q-107 0 -215 17zM529.5 1684.5q-29.5 24.5 -29.5 66.5q0 43 29.5 68.5t84.5 25.5t84.5 -25.5t29.5 -68.5q0 -42 -29.5 -66.5t-84.5 -24.5
t-84.5 24.5z" />
    <glyph glyph-name="uni1E61" unicode="&#x1e61;" horiz-adv-x="1044" 
d="M132 28v128q91 -26 177 -37.5t179 -11.5q162 0 234 46.5t72 136.5q0 48 -17 80t-58 53.5t-113 34.5l-184 30q-163 27 -235.5 100t-72.5 196q0 146 119 232t362 86q159 0 301 -40v-128q-144 41 -300 41q-172 0 -245 -49t-73 -136q0 -66 40.5 -108t141.5 -60l184 -30
q164 -27 239 -95.5t75 -195.5q0 -151 -119 -235.5t-353 -84.5q-200 0 -354 47zM442 1347q-30 26 -30 74t30 74.5t86 26.5t86 -26.5t30 -74.5t-30 -74t-86 -26t-86 26z" />
    <glyph glyph-name="uni1E62" unicode="&#x1e62;" horiz-adv-x="1211" 
d="M323 -2q-108 17 -207 49v144q103 -34 214.5 -51.5t210.5 -17.5q406 0 406 275q0 76 -33 125.5t-104.5 82t-194.5 56.5l-90 17q-225 44 -329 142.5t-104 262.5q0 130 65 223t194.5 143t319.5 50q203 0 379 -52v-144q-180 55 -378 55q-207 0 -307.5 -69t-100.5 -199
q0 -75 29 -125t95 -83t179 -56l90 -17q165 -32 266.5 -86t148 -132t46.5 -186q0 -134 -68 -229.5t-198.5 -145t-313.5 -49.5q-107 0 -215 17zM529.5 -324q-29.5 25 -29.5 67t29.5 67.5t84.5 25.5t84.5 -25.5t29.5 -67.5t-29.5 -67t-84.5 -25t-84.5 25z" />
    <glyph glyph-name="uni1E63" unicode="&#x1e63;" horiz-adv-x="1044" 
d="M132 28v128q91 -26 177 -37.5t179 -11.5q162 0 234 46.5t72 136.5q0 48 -17 80t-58 53.5t-113 34.5l-184 30q-163 27 -235.5 100t-72.5 196q0 146 119 232t362 86q159 0 301 -40v-128q-144 41 -300 41q-172 0 -245 -49t-73 -136q0 -66 40.5 -108t141.5 -60l184 -30
q164 -27 239 -95.5t75 -195.5q0 -151 -119 -235.5t-353 -84.5q-200 0 -354 47zM450.5 -332q-27.5 26 -27.5 70q0 45 27.5 71.5t77.5 26.5t77.5 -26.5t27.5 -71.5q0 -44 -27.5 -70t-77.5 -26t-77.5 26z" />
    <glyph glyph-name="uni1E64" unicode="&#x1e64;" horiz-adv-x="1211" 
d="M323 -2q-108 17 -207 49v144q103 -34 214.5 -51.5t210.5 -17.5q406 0 406 275q0 76 -33 125.5t-104.5 82t-194.5 56.5l-90 17q-225 44 -329 142.5t-104 262.5q0 130 65 223t194.5 143t319.5 50q203 0 379 -52v-144q-180 55 -378 55q-207 0 -307.5 -69t-100.5 -199
q0 -75 29 -125t95 -83t179 -56l90 -17q165 -32 266.5 -86t148 -132t46.5 -186q0 -134 -68 -229.5t-198.5 -145t-313.5 -49.5q-107 0 -215 17zM434 1874q-26 22 -26 60t26 61t74 23t74.5 -23t26.5 -61t-26.5 -60t-74.5 -22t-74 22zM533 1608l218 284h187l-245 -284h-160z" />
    <glyph glyph-name="uni1E65" unicode="&#x1e65;" horiz-adv-x="1044" 
d="M132 28v128q91 -26 177 -37.5t179 -11.5q162 0 234 46.5t72 136.5q0 48 -17 80t-58 53.5t-113 34.5l-184 30q-163 27 -235.5 100t-72.5 196q0 146 119 232t362 86q159 0 301 -40v-128q-144 41 -300 41q-172 0 -245 -49t-73 -136q0 -66 40.5 -108t141.5 -60l184 -30
q164 -27 239 -95.5t75 -195.5q0 -151 -119 -235.5t-353 -84.5q-200 0 -354 47zM363 1598.5q-26 22.5 -26 60.5t26 61t74 23t74.5 -23t26.5 -61t-26 -60.5t-75 -22.5q-48 0 -74 22.5zM446 1253l265 363h191l-292 -363h-164z" />
    <glyph glyph-name="uni1E66" unicode="&#x1e66;" horiz-adv-x="1211" 
d="M323 -2q-108 17 -207 49v144q103 -34 214.5 -51.5t210.5 -17.5q406 0 406 275q0 76 -33 125.5t-104.5 82t-194.5 56.5l-90 17q-225 44 -329 142.5t-104 262.5q0 130 65 223t194.5 143t319.5 50q203 0 379 -52v-144q-180 55 -378 55q-207 0 -307.5 -69t-100.5 -199
q0 -75 29 -125t95 -83t179 -56l90 -17q165 -32 266.5 -86t148 -132t46.5 -186q0 -134 -68 -229.5t-198.5 -145t-313.5 -49.5q-107 0 -215 17zM540 1924q-26 22 -26 60q0 39 26 62t74 23t74 -23t26 -62q0 -38 -26 -60t-74 -22t-74 22zM826 1892h161l-296 -284h-154l-296 284
h161l212 -208z" />
    <glyph glyph-name="uni1E67" unicode="&#x1e67;" horiz-adv-x="1044" 
d="M132 28v128q91 -26 177 -37.5t179 -11.5q162 0 234 46.5t72 136.5q0 48 -17 80t-58 53.5t-113 34.5l-184 30q-163 27 -235.5 100t-72.5 196q0 146 119 232t362 86q159 0 301 -40v-128q-144 41 -300 41q-172 0 -245 -49t-73 -136q0 -66 40.5 -108t141.5 -60l184 -30
q164 -27 239 -95.5t75 -195.5q0 -151 -119 -235.5t-353 -84.5q-200 0 -354 47zM454 1647q-26 22 -26 60q0 39 26 62t74 23t74 -23t26 -62q0 -38 -26 -60t-74 -22t-74 22zM731 1616h143l-273 -363h-146l-273 363h143l203 -276z" />
    <glyph glyph-name="uni1E68" unicode="&#x1e68;" horiz-adv-x="1211" 
d="M323 -2q-108 17 -207 49v144q103 -34 214.5 -51.5t210.5 -17.5q406 0 406 275q0 76 -33 125.5t-104.5 82t-194.5 56.5l-90 17q-225 44 -329 142.5t-104 262.5q0 130 65 223t194.5 143t319.5 50q203 0 379 -52v-144q-180 55 -378 55q-207 0 -307.5 -69t-100.5 -199
q0 -75 29 -125t95 -83t179 -56l90 -17q165 -32 266.5 -86t148 -132t46.5 -186q0 -134 -68 -229.5t-198.5 -145t-313.5 -49.5q-107 0 -215 17zM529.5 -324q-29.5 25 -29.5 67t29.5 67.5t84.5 25.5t84.5 -25.5t29.5 -67.5t-29.5 -67t-84.5 -25t-84.5 25zM529.5 1684.5
q-29.5 24.5 -29.5 66.5q0 43 29.5 68.5t84.5 25.5t84.5 -25.5t29.5 -68.5q0 -42 -29.5 -66.5t-84.5 -24.5t-84.5 24.5z" />
    <glyph glyph-name="uni1E69" unicode="&#x1e69;" horiz-adv-x="1044" 
d="M132 28v128q91 -26 177 -37.5t179 -11.5q162 0 234 46.5t72 136.5q0 48 -17 80t-58 53.5t-113 34.5l-184 30q-163 27 -235.5 100t-72.5 196q0 146 119 232t362 86q159 0 301 -40v-128q-144 41 -300 41q-172 0 -245 -49t-73 -136q0 -66 40.5 -108t141.5 -60l184 -30
q164 -27 239 -95.5t75 -195.5q0 -151 -119 -235.5t-353 -84.5q-200 0 -354 47zM450.5 -332q-27.5 26 -27.5 70q0 45 27.5 71.5t77.5 26.5t77.5 -26.5t27.5 -71.5q0 -44 -27.5 -70t-77.5 -26t-77.5 26zM442 1347q-30 26 -30 74t30 74.5t86 26.5t86 -26.5t30 -74.5t-30 -74
t-86 -26t-86 26z" />
    <glyph glyph-name="uni1E6C" unicode="&#x1e6c;" horiz-adv-x="1317" 
d="M573 0v1338h-552v142h1275v-142h-552v-1338h-171zM573.5 -324q-29.5 25 -29.5 67t29.5 67.5t84.5 25.5t84.5 -25.5t29.5 -67.5t-29.5 -67t-84.5 -25t-84.5 25z" />
    <glyph glyph-name="uni1E6D" unicode="&#x1e6d;" horiz-adv-x="854" 
d="M832 142v-139q-100 -22 -192 -22q-192 0 -293 94.5t-101 287.5v583h-225v139h225l28 395h140v-395h400v-139h-400v-552q0 -145 65.5 -208.5t198.5 -63.5q63 0 154 20zM462.5 -332q-27.5 26 -27.5 70q0 45 27.5 71.5t77.5 26.5t77.5 -26.5t27.5 -71.5q0 -44 -27.5 -70
t-77.5 -26t-77.5 26z" />
    <glyph glyph-name="uni1E6E" unicode="&#x1e6e;" horiz-adv-x="1317" 
d="M573 0v1338h-552v142h1275v-142h-552v-1338h-171zM322 -310v108h672v-108h-672z" />
    <glyph glyph-name="uni1E6F" unicode="&#x1e6f;" horiz-adv-x="854" 
d="M832 142v-139q-100 -22 -192 -22q-192 0 -293 94.5t-101 287.5v583h-225v139h225l28 395h140v-395h400v-139h-400v-552q0 -145 65.5 -208.5t198.5 -63.5q63 0 154 20zM226 -316v108h628v-108h-628z" />
    <glyph glyph-name="uni1E78" unicode="&#x1e78;" horiz-adv-x="1599" 
d="M336 131.5q-149 150.5 -149 466.5v882h171v-899q0 -237 107.5 -346t335.5 -109t336 109t108 346v899h167v-882q0 -316 -148.5 -466.5t-462.5 -150.5q-316 0 -465 150.5zM713 1910l216 232h205l-244 -232h-177zM884 1680q-41 10 -99 29q-53 17 -87 25.5t-70 8.5
q-59 0 -103.5 -16t-86.5 -52v109q35 33 81.5 48.5t111.5 15.5q46 0 87 -10t99 -29q50 -17 85.5 -26t71.5 -9q59 0 103.5 16.5t86.5 52.5v-110q-35 -32 -81.5 -47.5t-111.5 -15.5q-46 0 -87 10z" />
    <glyph glyph-name="uni1E79" unicode="&#x1e79;" horiz-adv-x="1289" 
d="M267.5 83.5q-107.5 101.5 -107.5 317.5v684h168v-676q0 -149 70 -215t197 -66q96 0 188.5 37.5t161.5 110.5v809h168v-1085h-140l-12 120h-10q-78 -67 -177.5 -102.5t-208.5 -35.5q-190 0 -297.5 101.5zM714 1356q-38 11 -93 32q-46 19 -79 28.5t-65 9.5q-53 0 -96.5 -18
t-84.5 -58v117q68 67 184 67q42 0 80 -11t93 -32q46 -19 79 -28.5t65 -9.5q53 0 96.5 18t84.5 57v-117q-67 -66 -184 -66q-42 0 -80 11zM556 1659l218 284h187l-245 -284h-160z" />
    <glyph glyph-name="uni1E7A" unicode="&#x1e7a;" horiz-adv-x="1599" 
d="M336 131.5q-149 150.5 -149 466.5v882h171v-899q0 -237 107.5 -346t335.5 -109t336 109t108 346v899h167v-882q0 -316 -148.5 -466.5t-462.5 -150.5q-316 0 -465 150.5zM465 1696v108h672v-108h-672zM455 1985.5q-27 24.5 -27 66.5q0 43 27 68.5t77 25.5t77 -25.5
t27 -68.5q0 -42 -27 -66.5t-77 -24.5t-77 24.5zM993 1985.5q-27 24.5 -27 66.5q0 43 27 68.5t77 25.5t77 -25.5t27 -68.5q0 -42 -27 -66.5t-77 -24.5t-77 24.5z" />
    <glyph glyph-name="uni1E7B" unicode="&#x1e7b;" horiz-adv-x="1289" 
d="M267.5 83.5q-107.5 101.5 -107.5 317.5v684h168v-676q0 -149 70 -215t197 -66q96 0 188.5 37.5t161.5 110.5v809h168v-1085h-140l-12 120h-10q-78 -67 -177.5 -102.5t-208.5 -35.5q-190 0 -297.5 101.5zM296 1369v108h682v-108h-682zM307.5 1719.5q-27.5 26.5 -27.5 72.5
t27.5 73t77.5 27t78 -27t28 -73t-27.5 -72.5t-78.5 -26.5q-50 0 -77.5 26.5zM810.5 1719.5q-27.5 26.5 -27.5 72.5t28 73t78 27t77.5 -27t27.5 -73t-27.5 -72.5t-77.5 -26.5q-51 0 -78.5 26.5z" />
    <glyph glyph-name="Wgrave" unicode="&#x1e80;" horiz-adv-x="2391" 
d="M2155 1480h167l-475 -1480h-222l-429 1311l-430 -1311h-222l-477 1480h177l420 -1330l434 1330h201l432 -1336zM1116 1608l-245 284h187l218 -284h-160z" />
    <glyph glyph-name="wgrave" unicode="&#x1e81;" horiz-adv-x="1891" 
d="M1650 1085h160l-354 -1085h-200l-309 931l-310 -931h-200l-356 1085h167l297 -921l304 921h200l303 -919zM865 1253l-292 363h191l265 -363h-164z" />
    <glyph glyph-name="Wacute" unicode="&#x1e82;" horiz-adv-x="2391" 
d="M2155 1480h167l-475 -1480h-222l-429 1311l-430 -1311h-222l-477 1480h177l420 -1330l434 1330h201l432 -1336zM1115 1608l218 284h187l-245 -284h-160z" />
    <glyph glyph-name="wacute" unicode="&#x1e83;" horiz-adv-x="1891" 
d="M1650 1085h160l-354 -1085h-200l-309 931l-310 -931h-200l-356 1085h167l297 -921l304 921h200l303 -919zM865 1253l265 363h191l-292 -363h-164z" />
    <glyph glyph-name="Wdieresis" unicode="&#x1e84;" horiz-adv-x="2391" 
d="M2155 1480h167l-475 -1480h-222l-429 1311l-430 -1311h-222l-477 1480h177l420 -1330l434 1330h201l432 -1336zM850 1684.5q-27 24.5 -27 66.5q0 43 27 68.5t77 25.5t77 -25.5t27 -68.5q0 -42 -27 -66.5t-77 -24.5t-77 24.5zM1388 1684.5q-27 24.5 -27 66.5q0 43 27 68.5
t77 25.5t77 -25.5t27 -68.5q0 -42 -27 -66.5t-77 -24.5t-77 24.5z" />
    <glyph glyph-name="wdieresis" unicode="&#x1e85;" horiz-adv-x="1891" 
d="M1650 1085h160l-354 -1085h-200l-309 931l-310 -931h-200l-356 1085h167l297 -921l304 921h200l303 -919zM617.5 1348.5q-27.5 26.5 -27.5 72.5t27.5 73t77.5 27t78 -27t28 -73t-27.5 -72.5t-78.5 -26.5q-50 0 -77.5 26.5zM1120.5 1348.5q-27.5 26.5 -27.5 72.5t28 73
t78 27t77.5 -27t27.5 -73t-27.5 -72.5t-77.5 -26.5q-51 0 -78.5 26.5z" />
    <glyph glyph-name="uni1E8E" unicode="&#x1e8e;" horiz-adv-x="1317" 
d="M1333 1480l-588 -822v-658h-171v657l-601 823h192l498 -681l489 681h181zM573.5 1684.5q-29.5 24.5 -29.5 66.5q0 43 29.5 68.5t84.5 25.5t84.5 -25.5t29.5 -68.5q0 -42 -29.5 -66.5t-84.5 -24.5t-84.5 24.5z" />
    <glyph glyph-name="uni1E8F" unicode="&#x1e8f;" horiz-adv-x="1206" 
d="M1014 1085h167l-666 -1525h-167l192 440h-42l-473 1085h180l401 -951zM518 1347q-30 26 -30 74t30 74.5t86 26.5t86 -26.5t30 -74.5t-30 -74t-86 -26t-86 26z" />
    <glyph glyph-name="uni1E92" unicode="&#x1e92;" horiz-adv-x="1313" 
d="M302 141h938v-141h-1166v94l924 1245h-911v141h1140v-94zM572.5 -324q-29.5 25 -29.5 67t29.5 67.5t84.5 25.5t84.5 -25.5t29.5 -67.5t-29.5 -67t-84.5 -25t-84.5 25z" />
    <glyph glyph-name="uni1E93" unicode="&#x1e93;" horiz-adv-x="1060" 
d="M302 139h693v-139h-921v106l680 840h-667v139h895v-106zM457.5 -332q-27.5 26 -27.5 70q0 45 27.5 71.5t77.5 26.5t77.5 -26.5t27.5 -71.5q0 -44 -27.5 -70t-77.5 -26t-77.5 26z" />
    <glyph glyph-name="uni1E97" unicode="&#x1e97;" horiz-adv-x="854" 
d="M832 142v-139q-100 -22 -192 -22q-192 0 -293 94.5t-101 287.5v583h-225v139h225l28 395h140v-395h400v-139h-400v-552q0 -145 65.5 -208.5t198.5 -63.5q63 0 154 20zM0.5 1638.5q-27.5 26.5 -27.5 72.5t27.5 73t77.5 27t78 -27t28 -73t-27.5 -72.5t-78.5 -26.5
q-50 0 -77.5 26.5zM503.5 1638.5q-27.5 26.5 -27.5 72.5t28 73t78 27t77.5 -27t27.5 -73t-27.5 -72.5t-77.5 -26.5q-51 0 -78.5 26.5z" />
    <glyph glyph-name="uni1E9E" unicode="&#x1e9e;" horiz-adv-x="1922" 
d="M1637 723q100 -54 146 -132t46 -186q0 -134 -67.5 -229.5t-196 -145t-310.5 -49.5q-103 0 -209.5 16.5t-203.5 47.5v144q101 -34 210 -50.5t203 -16.5q207 0 306 69.5t99 205.5q0 76 -32.5 125.5t-103 82t-191.5 56.5l-88 17q-221 44 -323.5 142.5t-102.5 262.5
q0 161 97 264q-53 10 -122 10q-220 0 -324.5 -105.5t-104.5 -333.5v-918h-171v897q0 307 147.5 454.5t452.5 147.5q166 0 286 -48q130 48 311 48q201 0 371 -51v-144q-181 54 -369 54q-205 0 -305 -69t-100 -199q0 -75 29 -125t93.5 -83.5t175.5 -55.5l88 -17
q163 -32 263 -86z" />
    <glyph glyph-name="uni1EA0" unicode="&#x1ea0;" horiz-adv-x="1522" 
d="M1308 0l-192 479h-713l-192 -479h-171l602 1480h238l602 -1480h-174zM459 617h601l-300 749zM677.5 -324q-29.5 25 -29.5 67t29.5 67.5t84.5 25.5t84.5 -25.5t29.5 -67.5t-29.5 -67t-84.5 -25t-84.5 25z" />
    <glyph glyph-name="uni1EA1" unicode="&#x1ea1;" horiz-adv-x="1166" 
d="M801.5 1064q101.5 -38 153 -127t51.5 -240v-697h-142l-12 123h-11q-61 -65 -157.5 -103t-202.5 -38q-116 0 -198.5 36.5t-125 103.5t-42.5 157q0 141 102.5 218.5t328.5 99.5l294 32v76q0 103 -35 160.5t-103.5 80.5t-179.5 23q-77 0 -164 -13t-168 -40v132q76 26 170 40
t182 14q158 0 259.5 -38zM692 139.5q83 33.5 148 99.5v281l-284 -31q-145 -17 -207.5 -64t-62.5 -133q0 -89 58 -137.5t175 -48.5q90 0 173 33.5zM520.5 -332q-27.5 26 -27.5 70q0 45 27.5 71.5t77.5 26.5t77.5 -26.5t27.5 -71.5q0 -44 -27.5 -70t-77.5 -26t-77.5 26z" />
    <glyph glyph-name="uni1EA2" unicode="&#x1ea2;" horiz-adv-x="1522" 
d="M1308 0l-192 479h-713l-192 -479h-171l602 1480h238l602 -1480h-174zM459 617h601l-300 749zM738.5 1670.5q28.5 21.5 80.5 42.5q38 15 55.5 27.5t17.5 31.5q0 23 -29 35.5t-97 12.5q-58 0 -106 -7t-108 -25v78q97 33 222 33q111 0 164.5 -31.5t53.5 -86.5
q0 -41 -26.5 -63.5t-75.5 -43.5q-37 -16 -56 -30t-22 -36h-104q2 41 30.5 62.5z" />
    <glyph glyph-name="uni1EA3" unicode="&#x1ea3;" horiz-adv-x="1166" 
d="M801.5 1064q101.5 -38 153 -127t51.5 -240v-697h-142l-12 123h-11q-61 -65 -157.5 -103t-202.5 -38q-116 0 -198.5 36.5t-125 103.5t-42.5 157q0 141 102.5 218.5t328.5 99.5l294 32v76q0 103 -35 160.5t-103.5 80.5t-179.5 23q-77 0 -164 -13t-168 -40v132q76 26 170 40
t182 14q158 0 259.5 -38zM692 139.5q83 33.5 148 99.5v281l-284 -31q-145 -17 -207.5 -64t-62.5 -133q0 -89 58 -137.5t175 -48.5q90 0 173 33.5zM547.5 1319.5q15.5 27.5 36.5 44.5t53 37q35 23 51.5 39t16.5 40q0 35 -32 51t-100 16q-41 0 -87 -6t-86 -18v80
q34 12 82.5 18.5t94.5 6.5q228 0 228 -141q0 -47 -22.5 -73t-67.5 -54q-41 -26 -61 -48t-23 -59h-101q2 39 17.5 66.5z" />
    <glyph glyph-name="uni1EA4" unicode="&#x1ea4;" horiz-adv-x="1522" 
d="M1308 0l-192 479h-713l-192 -479h-171l602 1480h238l602 -1480h-174zM459 617h601l-300 749zM1213 2064h144l-217 -263h-119zM684 1880h154l296 -272h-161l-212 203l-212 -203h-161z" />
    <glyph glyph-name="uni1EA5" unicode="&#x1ea5;" horiz-adv-x="1166" 
d="M801.5 1064q101.5 -38 153 -127t51.5 -240v-697h-142l-12 123h-11q-61 -65 -157.5 -103t-202.5 -38q-116 0 -198.5 36.5t-125 103.5t-42.5 157q0 141 102.5 218.5t328.5 99.5l294 32v76q0 103 -35 160.5t-103.5 80.5t-179.5 23q-77 0 -164 -13t-168 -40v132q76 26 170 40
t182 14q158 0 259.5 -38zM692 139.5q83 33.5 148 99.5v281l-284 -31q-145 -17 -207.5 -64t-62.5 -133q0 -89 58 -137.5t175 -48.5q90 0 173 33.5zM1028 1868h162l-245 -271h-134zM507 1616h146l267 -363h-143l-197 274l-197 -274h-143z" />
    <glyph glyph-name="uni1EA6" unicode="&#x1ea6;" horiz-adv-x="1522" 
d="M1308 0l-192 479h-713l-192 -479h-171l602 1480h238l602 -1480h-174zM459 617h601l-300 749zM1165 1801h-119l-218 263h144zM684 1880h154l296 -272h-161l-212 203l-212 -203h-161z" />
    <glyph glyph-name="uni1EA7" unicode="&#x1ea7;" horiz-adv-x="1166" 
d="M801.5 1064q101.5 -38 153 -127t51.5 -240v-697h-142l-12 123h-11q-61 -65 -157.5 -103t-202.5 -38q-116 0 -198.5 36.5t-125 103.5t-42.5 157q0 141 102.5 218.5t328.5 99.5l294 32v76q0 103 -35 160.5t-103.5 80.5t-179.5 23q-77 0 -164 -13t-168 -40v132q76 26 170 40
t182 14q158 0 259.5 -38zM692 139.5q83 33.5 148 99.5v281l-284 -31q-145 -17 -207.5 -64t-62.5 -133q0 -89 58 -137.5t175 -48.5q90 0 173 33.5zM975 1597h-135l-245 271h162zM507 1616h146l267 -363h-143l-197 274l-197 -274h-143z" />
    <glyph glyph-name="uni1EA8" unicode="&#x1ea8;" horiz-adv-x="1522" 
d="M1308 0l-192 479h-713l-192 -479h-171l602 1480h238l602 -1480h-174zM459 617h601l-300 749zM1252.5 2049q53.5 -30 53.5 -83q0 -39 -26.5 -60.5t-75.5 -41.5q-38 -16 -57 -29t-22 -34h-103q1 28 17 47t37 30t56 25q38 15 56 26.5t18 30.5q0 46 -127 46q-57 0 -104.5 -7
t-108.5 -24v72q94 32 222 32q111 0 164.5 -30zM684 1880h154l296 -272h-161l-212 203l-212 -203h-161z" />
    <glyph glyph-name="uni1EA9" unicode="&#x1ea9;" horiz-adv-x="1166" 
d="M801.5 1064q101.5 -38 153 -127t51.5 -240v-697h-142l-12 123h-11q-61 -65 -157.5 -103t-202.5 -38q-116 0 -198.5 36.5t-125 103.5t-42.5 157q0 141 102.5 218.5t328.5 99.5l294 32v76q0 103 -35 160.5t-103.5 80.5t-179.5 23q-77 0 -164 -13t-168 -40v132q76 26 170 40
t182 14q158 0 259.5 -38zM692 139.5q83 33.5 148 99.5v281l-284 -31q-145 -17 -207.5 -64t-62.5 -133q0 -89 58 -137.5t175 -48.5q90 0 173 33.5zM1036.5 1845.5q50.5 -29.5 50.5 -83.5q0 -37 -23 -56t-70 -39q-38 -16 -58 -30.5t-23 -39.5h-96q1 29 17 48.5t36 30.5t54 26
q34 13 50.5 24t16.5 29q0 23 -27 35t-93 12q-57 0 -104.5 -7t-101.5 -24v72q93 32 214 32q107 0 157.5 -29.5zM507 1616h146l267 -363h-143l-197 274l-197 -274h-143z" />
    <glyph glyph-name="uni1EAA" unicode="&#x1eaa;" horiz-adv-x="1522" 
d="M1308 0l-192 479h-713l-192 -479h-171l602 1480h238l602 -1480h-174zM459 617h601l-300 749zM1037 2027q47 16 97 53v-94q-43 -32 -91.5 -46.5t-109.5 -14.5q-46 0 -87.5 9.5t-104.5 28.5q-56 17 -88 24.5t-65 7.5q-55 0 -102 -16.5t-98 -52.5v94q43 32 92 46.5t109 14.5
q46 0 87.5 -9.5t104.5 -28.5q56 -17 88 -24.5t65 -7.5q56 0 103 16zM684 1880h154l296 -272h-161l-212 203l-212 -203h-161z" />
    <glyph glyph-name="uni1EAB" unicode="&#x1eab;" horiz-adv-x="1166" 
d="M801.5 1064q101.5 -38 153 -127t51.5 -240v-697h-142l-12 123h-11q-61 -65 -157.5 -103t-202.5 -38q-116 0 -198.5 36.5t-125 103.5t-42.5 157q0 141 102.5 218.5t328.5 99.5l294 32v76q0 103 -35 160.5t-103.5 80.5t-179.5 23q-77 0 -164 -13t-168 -40v132q76 26 170 40
t182 14q158 0 259.5 -38zM692 139.5q83 33.5 148 99.5v281l-284 -31q-145 -17 -207.5 -64t-62.5 -133q0 -89 58 -137.5t175 -48.5q90 0 173 33.5zM657.5 1666q-40.5 10 -93.5 28q-48 16 -81.5 24.5t-67.5 8.5q-54 0 -97.5 -16t-85.5 -50v101q68 61 186 61q44 0 84.5 -10
t93.5 -28q48 -16 81.5 -24.5t67.5 -8.5q55 0 98.5 15.5t84.5 50.5v-101q-68 -61 -186 -61q-44 0 -84.5 10zM935 1253h-150l-205 264l-205 -264h-150l278 343h154z" />
    <glyph glyph-name="uni1EAC" unicode="&#x1eac;" horiz-adv-x="1522" 
d="M1308 0l-192 479h-713l-192 -479h-171l602 1480h238l602 -1480h-174zM459 617h601l-300 749zM677.5 -324q-29.5 25 -29.5 67t29.5 67.5t84.5 25.5t84.5 -25.5t29.5 -67.5t-29.5 -67t-84.5 -25t-84.5 25zM1134 1608h-161l-212 208l-212 -208h-161l296 284h154z" />
    <glyph glyph-name="uni1EAD" unicode="&#x1ead;" horiz-adv-x="1166" 
d="M801.5 1064q101.5 -38 153 -127t51.5 -240v-697h-142l-12 123h-11q-61 -65 -157.5 -103t-202.5 -38q-116 0 -198.5 36.5t-125 103.5t-42.5 157q0 141 102.5 218.5t328.5 99.5l294 32v76q0 103 -35 160.5t-103.5 80.5t-179.5 23q-77 0 -164 -13t-168 -40v132q76 26 170 40
t182 14q158 0 259.5 -38zM692 139.5q83 33.5 148 99.5v281l-284 -31q-145 -17 -207.5 -64t-62.5 -133q0 -89 58 -137.5t175 -48.5q90 0 173 33.5zM520.5 -332q-27.5 26 -27.5 70q0 45 27.5 71.5t77.5 26.5t77.5 -26.5t27.5 -71.5q0 -44 -27.5 -70t-77.5 -26t-77.5 26z
M920 1253h-143l-197 274l-197 -274h-143l267 363h146z" />
    <glyph glyph-name="uni1EAE" unicode="&#x1eae;" horiz-adv-x="1522" 
d="M1308 0l-192 479h-713l-192 -479h-171l602 1480h238l602 -1480h-174zM459 617h601l-300 749zM701 1840l193 248h144l-217 -248h-120zM513 1683.5q-87 66.5 -101 175.5h102q14 -74 70.5 -114t177.5 -40q122 0 177 39.5t72 114.5h99q-14 -110 -100 -176t-248 -66t-249 66.5
z" />
    <glyph glyph-name="uni1EAF" unicode="&#x1eaf;" horiz-adv-x="1166" 
d="M801.5 1064q101.5 -38 153 -127t51.5 -240v-697h-142l-12 123h-11q-61 -65 -157.5 -103t-202.5 -38q-116 0 -198.5 36.5t-125 103.5t-42.5 157q0 141 102.5 218.5t328.5 99.5l294 32v76q0 103 -35 160.5t-103.5 80.5t-179.5 23q-77 0 -164 -13t-168 -40v132q76 26 170 40
t182 14q158 0 259.5 -38zM692 139.5q83 33.5 148 99.5v281l-284 -31q-145 -17 -207.5 -64t-62.5 -133q0 -89 58 -137.5t175 -48.5q90 0 173 33.5zM512 1597l217 271h162l-245 -271h-134zM397 1305q-76 40 -117 110.5t-48 162.5h114q10 -101 67 -159t168 -58q211 0 233 217
h114q-11 -142 -98.5 -227.5t-248.5 -85.5q-108 0 -184 40z" />
    <glyph glyph-name="uni1EB0" unicode="&#x1eb0;" horiz-adv-x="1522" 
d="M1308 0l-192 479h-713l-192 -479h-171l602 1480h238l602 -1480h-174zM459 617h601l-300 749zM701 1840l-217 248h144l193 -248h-120zM512 1683q-86 66 -100 176h99q17 -75 72 -114.5t177 -39.5q121 0 177.5 40t70.5 114h102q-14 -109 -101 -175.5t-249 -66.5t-248 66z
" />
    <glyph glyph-name="uni1EB1" unicode="&#x1eb1;" horiz-adv-x="1166" 
d="M801.5 1064q101.5 -38 153 -127t51.5 -240v-697h-142l-12 123h-11q-61 -65 -157.5 -103t-202.5 -38q-116 0 -198.5 36.5t-125 103.5t-42.5 157q0 141 102.5 218.5t328.5 99.5l294 32v76q0 103 -35 160.5t-103.5 80.5t-179.5 23q-77 0 -164 -13t-168 -40v132q76 26 170 40
t182 14q158 0 259.5 -38zM692 139.5q83 33.5 148 99.5v281l-284 -31q-145 -17 -207.5 -64t-62.5 -133q0 -89 58 -137.5t175 -48.5q90 0 173 33.5zM514 1597l-245 271h162l217 -271h-134zM397 1305q-76 40 -117 110.5t-48 162.5h114q10 -101 67 -159t168 -58q211 0 233 217
h114q-11 -142 -98.5 -227.5t-248.5 -85.5q-108 0 -184 40z" />
    <glyph glyph-name="uni1EB2" unicode="&#x1eb2;" horiz-adv-x="1522" 
d="M1308 0l-192 479h-713l-192 -479h-171l602 1480h238l602 -1480h-174zM459 617h601l-300 749zM725 1886q16 19 37 30t56 25q38 15 56 26.5t18 30.5q0 47 -126 47q-58 0 -106 -7t-108 -25v73q94 32 222 32q111 0 164.5 -30t53.5 -83q0 -39 -26.5 -60.5t-75.5 -41.5
q-38 -16 -56.5 -29t-21.5 -34h-104q1 27 17 46zM512 1683q-86 66 -100 176h102q14 -75 69 -114.5t177 -39.5q121 0 178 39.5t73 114.5h99q-14 -109 -101 -175.5t-249 -66.5t-248 66z" />
    <glyph glyph-name="uni1EB3" unicode="&#x1eb3;" horiz-adv-x="1166" 
d="M801.5 1064q101.5 -38 153 -127t51.5 -240v-697h-142l-12 123h-11q-61 -65 -157.5 -103t-202.5 -38q-116 0 -198.5 36.5t-125 103.5t-42.5 157q0 141 102.5 218.5t328.5 99.5l294 32v76q0 103 -35 160.5t-103.5 80.5t-179.5 23q-77 0 -164 -13t-168 -40v132q76 26 170 40
t182 14q158 0 259.5 -38zM692 139.5q83 33.5 148 99.5v281l-284 -31q-145 -17 -207.5 -64t-62.5 -133q0 -89 58 -137.5t175 -48.5q90 0 173 33.5zM544 1643q16 19 37 30t56 25q38 15 56 26.5t18 30.5q0 22 -29 34t-97 12q-59 0 -107 -7t-107 -24v73q99 32 222 32
q111 0 164.5 -30t53.5 -83q0 -39 -26.5 -60.5t-75.5 -41.5q-38 -16 -56.5 -29t-21.5 -34h-104q1 27 17 46zM397 1305q-76 40 -117 110.5t-48 162.5h114q10 -101 67 -159t168 -58q211 0 233 217h114q-11 -142 -98.5 -227.5t-248.5 -85.5q-108 0 -184 40z" />
    <glyph glyph-name="uni1EB4" unicode="&#x1eb4;" horiz-adv-x="1522" 
d="M1308 0l-192 479h-713l-192 -479h-171l602 1480h238l602 -1480h-174zM459 617h601l-300 749zM839 1934q-37 9 -97 29q-50 17 -79.5 24.5t-59.5 7.5q-52 0 -97 -16.5t-94 -52.5v94q41 32 88 46.5t104 14.5q42 0 79 -9t97 -29q50 -17 79.5 -24.5t59.5 -7.5q53 0 97.5 16
t93.5 53v-94q-41 -32 -87.5 -46.5t-104.5 -14.5q-42 0 -79 9zM512 1683q-86 66 -100 176h102q14 -75 69 -114.5t177 -39.5q121 0 177.5 40t70.5 114h102q-14 -109 -101 -175.5t-249 -66.5t-248 66z" />
    <glyph glyph-name="uni1EB5" unicode="&#x1eb5;" horiz-adv-x="1166" 
d="M801.5 1064q101.5 -38 153 -127t51.5 -240v-697h-142l-12 123h-11q-61 -65 -157.5 -103t-202.5 -38q-116 0 -198.5 36.5t-125 103.5t-42.5 157q0 141 102.5 218.5t328.5 99.5l294 32v76q0 103 -35 160.5t-103.5 80.5t-179.5 23q-77 0 -164 -13t-168 -40v132q76 26 170 40
t182 14q158 0 259.5 -38zM692 139.5q83 33.5 148 99.5v281l-284 -31q-145 -17 -207.5 -64t-62.5 -133q0 -89 58 -137.5t175 -48.5q90 0 173 33.5zM660 1666q-42 10 -97 28q-51 17 -84.5 25t-68.5 8q-56 0 -101 -16t-87 -51v102q71 61 191 61q45 0 87 -10t97 -28
q51 -17 84.5 -25t68.5 -8q56 0 101 16t87 50v-101q-36 -31 -82.5 -46t-108.5 -15q-45 0 -87 10zM397 1305q-76 40 -117 110.5t-48 162.5h114q10 -101 67 -159t168 -58q211 0 233 217h114q-11 -142 -98.5 -227.5t-248.5 -85.5q-108 0 -184 40z" />
    <glyph glyph-name="uni1EB6" unicode="&#x1eb6;" horiz-adv-x="1522" 
d="M1308 0l-192 479h-713l-192 -479h-171l602 1480h238l602 -1480h-174zM459 617h601l-300 749zM677.5 -324q-29.5 25 -29.5 67t29.5 67.5t84.5 25.5t84.5 -25.5t29.5 -67.5t-29.5 -67t-84.5 -25t-84.5 25zM503 1687q-90 70 -105 184h114q14 -74 72.5 -115t177.5 -41
q120 0 177 40.5t71 115.5h114q-15 -115 -104 -184.5t-258 -69.5t-259 70z" />
    <glyph glyph-name="uni1EB7" unicode="&#x1eb7;" horiz-adv-x="1166" 
d="M801.5 1064q101.5 -38 153 -127t51.5 -240v-697h-142l-12 123h-11q-61 -65 -157.5 -103t-202.5 -38q-116 0 -198.5 36.5t-125 103.5t-42.5 157q0 141 102.5 218.5t328.5 99.5l294 32v76q0 103 -35 160.5t-103.5 80.5t-179.5 23q-77 0 -164 -13t-168 -40v132q76 26 170 40
t182 14q158 0 259.5 -38zM692 139.5q83 33.5 148 99.5v281l-284 -31q-145 -17 -207.5 -64t-62.5 -133q0 -89 58 -137.5t175 -48.5q90 0 173 33.5zM520.5 -332q-27.5 26 -27.5 70q0 45 27.5 71.5t77.5 26.5t77.5 -26.5t27.5 -71.5q0 -44 -27.5 -70t-77.5 -26t-77.5 26z
M399.5 1304q-75.5 41 -116 114.5t-45.5 171.5h113q9 -108 64.5 -168.5t165.5 -60.5q209 0 228 229h113q-8 -150 -95.5 -238.5t-245.5 -88.5q-106 0 -181.5 41z" />
    <glyph glyph-name="uni1EB8" unicode="&#x1eb8;" horiz-adv-x="1338" 
d="M364 138h872v-138h-1042v1480h1032v-138h-862v-514h760v-137h-760v-553zM649.5 -324q-29.5 25 -29.5 67t29.5 67.5t84.5 25.5t84.5 -25.5t29.5 -67.5t-29.5 -67t-84.5 -25t-84.5 25z" />
    <glyph glyph-name="uni1EB9" unicode="&#x1eb9;" horiz-adv-x="1172" 
d="M1079 489h-797q7 -198 112 -287.5t317 -89.5q136 0 310 48v-131q-172 -48 -332 -48q-285 0 -431 137.5t-146 423.5q0 181 58.5 306.5t169 189.5t265.5 64q229 0 351.5 -145t122.5 -420v-48zM367.5 889.5q-81.5 -94.5 -86.5 -290.5h638q-5 197 -84 291t-232 94
q-154 0 -235.5 -94.5zM529.5 -332q-27.5 26 -27.5 70q0 45 27.5 71.5t77.5 26.5t77.5 -26.5t27.5 -71.5q0 -44 -27.5 -70t-77.5 -26t-77.5 26z" />
    <glyph glyph-name="uni1EBA" unicode="&#x1eba;" horiz-adv-x="1338" 
d="M364 138h872v-138h-1042v1480h1032v-138h-862v-514h760v-137h-760v-553zM708.5 1670.5q28.5 21.5 80.5 42.5q38 15 55.5 27.5t17.5 31.5q0 23 -29 35.5t-97 12.5q-58 0 -106 -7t-108 -25v78q97 33 222 33q111 0 164.5 -31.5t53.5 -86.5q0 -41 -26.5 -63.5t-75.5 -43.5
q-37 -16 -56 -30t-22 -36h-104q2 41 30.5 62.5z" />
    <glyph glyph-name="uni1EBB" unicode="&#x1ebb;" horiz-adv-x="1172" 
d="M1079 489h-797q7 -198 112 -287.5t317 -89.5q136 0 310 48v-131q-172 -48 -332 -48q-285 0 -431 137.5t-146 423.5q0 181 58.5 306.5t169 189.5t265.5 64q229 0 351.5 -145t122.5 -420v-48zM367.5 889.5q-81.5 -94.5 -86.5 -290.5h638q-5 197 -84 291t-232 94
q-154 0 -235.5 -94.5zM574.5 1319.5q15.5 27.5 36.5 44.5t53 37q35 23 51.5 39t16.5 40q0 35 -32 51t-100 16q-41 0 -87 -6t-86 -18v80q34 12 82.5 18.5t94.5 6.5q228 0 228 -141q0 -47 -22.5 -73t-67.5 -54q-41 -26 -61 -48t-23 -59h-101q2 39 17.5 66.5z" />
    <glyph glyph-name="uni1EBC" unicode="&#x1ebc;" horiz-adv-x="1338" 
d="M364 138h872v-138h-1042v1480h1032v-138h-862v-514h760v-137h-760v-553zM814 1680q-41 10 -99 29q-53 17 -87 25.5t-70 8.5q-59 0 -103.5 -16t-86.5 -52v109q35 33 81.5 48.5t111.5 15.5q46 0 87 -10t99 -29q50 -17 85.5 -26t71.5 -9q59 0 103.5 16.5t86.5 52.5v-110
q-35 -32 -81.5 -47.5t-111.5 -15.5q-46 0 -87 10z" />
    <glyph glyph-name="uni1EBD" unicode="&#x1ebd;" horiz-adv-x="1172" 
d="M1079 489h-797q7 -198 112 -287.5t317 -89.5q136 0 310 48v-131q-172 -48 -332 -48q-285 0 -431 137.5t-146 423.5q0 181 58.5 306.5t169 189.5t265.5 64q229 0 351.5 -145t122.5 -420v-48zM367.5 889.5q-81.5 -94.5 -86.5 -290.5h638q-5 197 -84 291t-232 94
q-154 0 -235.5 -94.5zM684 1356q-38 11 -93 32q-46 19 -79 28.5t-65 9.5q-53 0 -96.5 -18t-84.5 -58v117q68 67 184 67q42 0 80 -11t93 -32q46 -19 79 -28.5t65 -9.5q53 0 96.5 18t84.5 57v-117q-67 -66 -184 -66q-42 0 -80 11z" />
    <glyph glyph-name="uni1EBE" unicode="&#x1ebe;" horiz-adv-x="1338" 
d="M364 138h872v-138h-1042v1480h1032v-138h-862v-514h760v-137h-760v-553zM1183 2064h144l-217 -263h-119zM654 1880h154l296 -272h-161l-212 203l-212 -203h-161z" />
    <glyph glyph-name="uni1EBF" unicode="&#x1ebf;" horiz-adv-x="1172" 
d="M1079 489h-797q7 -198 112 -287.5t317 -89.5q136 0 310 48v-131q-172 -48 -332 -48q-285 0 -431 137.5t-146 423.5q0 181 58.5 306.5t169 189.5t265.5 64q229 0 351.5 -145t122.5 -420v-48zM367.5 889.5q-81.5 -94.5 -86.5 -290.5h638q-5 197 -84 291t-232 94
q-154 0 -235.5 -94.5zM1055 1868h162l-245 -271h-134zM534 1616h146l267 -363h-143l-197 274l-197 -274h-143z" />
    <glyph glyph-name="uni1EC0" unicode="&#x1ec0;" horiz-adv-x="1338" 
d="M364 138h872v-138h-1042v1480h1032v-138h-862v-514h760v-137h-760v-553zM1135 1801h-119l-218 263h144zM654 1880h154l296 -272h-161l-212 203l-212 -203h-161z" />
    <glyph glyph-name="uni1EC1" unicode="&#x1ec1;" horiz-adv-x="1172" 
d="M1079 489h-797q7 -198 112 -287.5t317 -89.5q136 0 310 48v-131q-172 -48 -332 -48q-285 0 -431 137.5t-146 423.5q0 181 58.5 306.5t169 189.5t265.5 64q229 0 351.5 -145t122.5 -420v-48zM367.5 889.5q-81.5 -94.5 -86.5 -290.5h638q-5 197 -84 291t-232 94
q-154 0 -235.5 -94.5zM1002 1597h-135l-245 271h162zM534 1616h146l267 -363h-143l-197 274l-197 -274h-143z" />
    <glyph glyph-name="uni1EC2" unicode="&#x1ec2;" horiz-adv-x="1338" 
d="M364 138h872v-138h-1042v1480h1032v-138h-862v-514h760v-137h-760v-553zM1222.5 2049q53.5 -30 53.5 -83q0 -39 -26.5 -60.5t-75.5 -41.5q-38 -16 -57 -29t-22 -34h-103q1 28 17 47t37 30t56 25q38 15 56 26.5t18 30.5q0 46 -127 46q-57 0 -104.5 -7t-108.5 -24v72
q94 32 222 32q111 0 164.5 -30zM654 1880h154l296 -272h-161l-212 203l-212 -203h-161z" />
    <glyph glyph-name="uni1EC3" unicode="&#x1ec3;" horiz-adv-x="1172" 
d="M1079 489h-797q7 -198 112 -287.5t317 -89.5q136 0 310 48v-131q-172 -48 -332 -48q-285 0 -431 137.5t-146 423.5q0 181 58.5 306.5t169 189.5t265.5 64q229 0 351.5 -145t122.5 -420v-48zM367.5 889.5q-81.5 -94.5 -86.5 -290.5h638q-5 197 -84 291t-232 94
q-154 0 -235.5 -94.5zM1063.5 1845.5q50.5 -29.5 50.5 -83.5q0 -37 -23 -56t-70 -39q-38 -16 -58 -30.5t-23 -39.5h-96q1 29 17 48.5t36 30.5t54 26q34 13 50.5 24t16.5 29q0 23 -27 35t-93 12q-57 0 -104.5 -7t-101.5 -24v72q93 32 214 32q107 0 157.5 -29.5zM534 1616h146
l267 -363h-143l-197 274l-197 -274h-143z" />
    <glyph glyph-name="uni1EC4" unicode="&#x1ec4;" horiz-adv-x="1338" 
d="M364 138h872v-138h-1042v1480h1032v-138h-862v-514h760v-137h-760v-553zM1007 2027q47 16 97 53v-94q-43 -32 -91.5 -46.5t-109.5 -14.5q-46 0 -87.5 9.5t-104.5 28.5q-56 17 -88 24.5t-65 7.5q-55 0 -102 -16.5t-98 -52.5v94q43 32 92 46.5t109 14.5q46 0 87.5 -9.5
t104.5 -28.5q56 -17 88 -24.5t65 -7.5q56 0 103 16zM654 1880h154l296 -272h-161l-212 203l-212 -203h-161z" />
    <glyph glyph-name="uni1EC5" unicode="&#x1ec5;" horiz-adv-x="1172" 
d="M1079 489h-797q7 -198 112 -287.5t317 -89.5q136 0 310 48v-131q-172 -48 -332 -48q-285 0 -431 137.5t-146 423.5q0 181 58.5 306.5t169 189.5t265.5 64q229 0 351.5 -145t122.5 -420v-48zM367.5 889.5q-81.5 -94.5 -86.5 -290.5h638q-5 197 -84 291t-232 94
q-154 0 -235.5 -94.5zM684.5 1666q-40.5 10 -93.5 28q-48 16 -81.5 24.5t-67.5 8.5q-54 0 -97.5 -16t-85.5 -50v101q68 61 186 61q44 0 84.5 -10t93.5 -28q48 -16 81.5 -24.5t67.5 -8.5q55 0 98.5 15.5t84.5 50.5v-101q-68 -61 -186 -61q-44 0 -84.5 10zM962 1253h-150
l-205 264l-205 -264h-150l278 343h154z" />
    <glyph glyph-name="uni1EC6" unicode="&#x1ec6;" horiz-adv-x="1338" 
d="M364 138h872v-138h-1042v1480h1032v-138h-862v-514h760v-137h-760v-553zM649.5 -324q-29.5 25 -29.5 67t29.5 67.5t84.5 25.5t84.5 -25.5t29.5 -67.5t-29.5 -67t-84.5 -25t-84.5 25zM1104 1608h-161l-212 208l-212 -208h-161l296 284h154z" />
    <glyph glyph-name="uni1EC7" unicode="&#x1ec7;" horiz-adv-x="1172" 
d="M1079 489h-797q7 -198 112 -287.5t317 -89.5q136 0 310 48v-131q-172 -48 -332 -48q-285 0 -431 137.5t-146 423.5q0 181 58.5 306.5t169 189.5t265.5 64q229 0 351.5 -145t122.5 -420v-48zM367.5 889.5q-81.5 -94.5 -86.5 -290.5h638q-5 197 -84 291t-232 94
q-154 0 -235.5 -94.5zM529.5 -332q-27.5 26 -27.5 70q0 45 27.5 71.5t77.5 26.5t77.5 -26.5t27.5 -71.5q0 -44 -27.5 -70t-77.5 -26t-77.5 26zM947 1253h-143l-197 274l-197 -274h-143l267 363h146z" />
    <glyph glyph-name="uni1EC8" unicode="&#x1ec8;" horiz-adv-x="560" 
d="M194 0v1480h171v-1480h-171zM257.5 1670.5q28.5 21.5 80.5 42.5q38 15 55.5 27.5t17.5 31.5q0 23 -29 35.5t-97 12.5q-58 0 -106 -7t-108 -25v78q97 33 222 33q111 0 164.5 -31.5t53.5 -86.5q0 -41 -26.5 -63.5t-75.5 -43.5q-37 -16 -56 -30t-22 -36h-104q2 41 30.5 62.5
z" />
    <glyph glyph-name="uni1EC9" unicode="&#x1ec9;" horiz-adv-x="520" 
d="M176 0v1085h168v-1085h-168zM227.5 1319.5q15.5 27.5 36.5 44.5t53 37q35 23 51.5 39t16.5 40q0 35 -32 51t-100 16q-41 0 -87 -6t-86 -18v80q34 12 82.5 18.5t94.5 6.5q228 0 228 -141q0 -47 -22.5 -73t-67.5 -54q-41 -26 -61 -48t-23 -59h-101q2 39 17.5 66.5z" />
    <glyph glyph-name="uni1ECA" unicode="&#x1eca;" horiz-adv-x="560" 
d="M194 0v1480h171v-1480h-171zM194.5 -324q-29.5 25 -29.5 67t29.5 67.5t84.5 25.5t84.5 -25.5t29.5 -67.5t-29.5 -67t-84.5 -25t-84.5 25z" />
    <glyph glyph-name="uni1ECB" unicode="&#x1ecb;" horiz-adv-x="520" 
d="M176 0v1085h168v-1085h-168zM174 1347q-30 26 -30 74t30 74.5t86 26.5t86 -26.5t30 -74.5t-30 -74t-86 -26t-86 26zM182.5 -332q-27.5 26 -27.5 70q0 45 27.5 71.5t77.5 26.5t77.5 -26.5t27.5 -71.5q0 -44 -27.5 -70t-77.5 -26t-77.5 26z" />
    <glyph glyph-name="uni1ECC" unicode="&#x1ecc;" horiz-adv-x="1653" 
d="M454.5 64.5q-157.5 83.5 -244 253.5t-86.5 422t87.5 422t245 253.5t369.5 83.5q214 0 371.5 -83.5t244 -253.5t86.5 -422q0 -251 -87.5 -421.5t-245 -254t-369.5 -83.5q-214 0 -371.5 83.5zM1213 274q139 149 139 461q0 318 -139 469t-387 151q-247 0 -386.5 -149
t-139.5 -461q0 -320 138.5 -470t387.5 -150q248 0 387 149zM741.5 -324q-29.5 25 -29.5 67t29.5 67.5t84.5 25.5t84.5 -25.5t29.5 -67.5t-29.5 -67t-84.5 -25t-84.5 25z" />
    <glyph glyph-name="uni1ECD" unicode="&#x1ecd;" horiz-adv-x="1270" 
d="M358 42q-117 61 -181.5 187t-64.5 314q0 185 64 310t181 187t278 62q247 0 384.5 -139.5t137.5 -419.5q0 -185 -64.5 -311t-182 -188.5t-275.5 -62.5q-160 0 -277 61zM988 541q0 222 -91.5 322.5t-261.5 100.5t-261.5 -100t-91.5 -320q0 -426 353 -426t353 423z
M557.5 -332q-27.5 26 -27.5 70q0 45 27.5 71.5t77.5 26.5t77.5 -26.5t27.5 -71.5q0 -44 -27.5 -70t-77.5 -26t-77.5 26z" />
    <glyph glyph-name="uni1ECE" unicode="&#x1ece;" horiz-adv-x="1653" 
d="M454.5 64.5q-157.5 83.5 -244 253.5t-86.5 422t87.5 422t245 253.5t369.5 83.5q214 0 371.5 -83.5t244 -253.5t86.5 -422q0 -251 -87.5 -421.5t-245 -254t-369.5 -83.5q-214 0 -371.5 83.5zM1213 274q139 149 139 461q0 318 -139 469t-387 151q-247 0 -386.5 -149
t-139.5 -461q0 -320 138.5 -470t387.5 -150q248 0 387 149zM803.5 1670.5q28.5 21.5 80.5 42.5q38 15 55.5 27.5t17.5 31.5q0 23 -29 35.5t-97 12.5q-58 0 -106 -7t-108 -25v78q97 33 222 33q111 0 164.5 -31.5t53.5 -86.5q0 -41 -26.5 -63.5t-75.5 -43.5q-37 -16 -56 -30
t-22 -36h-104q2 41 30.5 62.5z" />
    <glyph glyph-name="uni1ECF" unicode="&#x1ecf;" horiz-adv-x="1270" 
d="M358 42q-117 61 -181.5 187t-64.5 314q0 185 64 310t181 187t278 62q247 0 384.5 -139.5t137.5 -419.5q0 -185 -64.5 -311t-182 -188.5t-275.5 -62.5q-160 0 -277 61zM988 541q0 222 -91.5 322.5t-261.5 100.5t-261.5 -100t-91.5 -320q0 -426 353 -426t353 423z
M602.5 1319.5q15.5 27.5 36.5 44.5t53 37q35 23 51.5 39t16.5 40q0 35 -32 51t-100 16q-41 0 -87 -6t-86 -18v80q34 12 82.5 18.5t94.5 6.5q228 0 228 -141q0 -47 -22.5 -73t-67.5 -54q-41 -26 -61 -48t-23 -59h-101q2 39 17.5 66.5z" />
    <glyph glyph-name="uni1ED0" unicode="&#x1ed0;" horiz-adv-x="1653" 
d="M454.5 64.5q-157.5 83.5 -244 253.5t-86.5 422t87.5 422t245 253.5t369.5 83.5q214 0 371.5 -83.5t244 -253.5t86.5 -422q0 -251 -87.5 -421.5t-245 -254t-369.5 -83.5q-214 0 -371.5 83.5zM1213 274q139 149 139 461q0 318 -139 469t-387 151q-247 0 -386.5 -149
t-139.5 -461q0 -320 138.5 -470t387.5 -150q248 0 387 149zM1278 2064h144l-217 -263h-119zM749 1880h154l296 -272h-161l-212 203l-212 -203h-161z" />
    <glyph glyph-name="uni1ED1" unicode="&#x1ed1;" horiz-adv-x="1270" 
d="M358 42q-117 61 -181.5 187t-64.5 314q0 185 64 310t181 187t278 62q247 0 384.5 -139.5t137.5 -419.5q0 -185 -64.5 -311t-182 -188.5t-275.5 -62.5q-160 0 -277 61zM988 541q0 222 -91.5 322.5t-261.5 100.5t-261.5 -100t-91.5 -320q0 -426 353 -426t353 423z
M1083 1868h162l-245 -271h-134zM562 1616h146l267 -363h-143l-197 274l-197 -274h-143z" />
    <glyph glyph-name="uni1ED2" unicode="&#x1ed2;" horiz-adv-x="1653" 
d="M454.5 64.5q-157.5 83.5 -244 253.5t-86.5 422t87.5 422t245 253.5t369.5 83.5q214 0 371.5 -83.5t244 -253.5t86.5 -422q0 -251 -87.5 -421.5t-245 -254t-369.5 -83.5q-214 0 -371.5 83.5zM1213 274q139 149 139 461q0 318 -139 469t-387 151q-247 0 -386.5 -149
t-139.5 -461q0 -320 138.5 -470t387.5 -150q248 0 387 149zM1230 1801h-119l-218 263h144zM749 1880h154l296 -272h-161l-212 203l-212 -203h-161z" />
    <glyph glyph-name="uni1ED3" unicode="&#x1ed3;" horiz-adv-x="1270" 
d="M358 42q-117 61 -181.5 187t-64.5 314q0 185 64 310t181 187t278 62q247 0 384.5 -139.5t137.5 -419.5q0 -185 -64.5 -311t-182 -188.5t-275.5 -62.5q-160 0 -277 61zM988 541q0 222 -91.5 322.5t-261.5 100.5t-261.5 -100t-91.5 -320q0 -426 353 -426t353 423z
M1030 1597h-135l-245 271h162zM562 1616h146l267 -363h-143l-197 274l-197 -274h-143z" />
    <glyph glyph-name="uni1ED4" unicode="&#x1ed4;" horiz-adv-x="1653" 
d="M454.5 64.5q-157.5 83.5 -244 253.5t-86.5 422t87.5 422t245 253.5t369.5 83.5q214 0 371.5 -83.5t244 -253.5t86.5 -422q0 -251 -87.5 -421.5t-245 -254t-369.5 -83.5q-214 0 -371.5 83.5zM1213 274q139 149 139 461q0 318 -139 469t-387 151q-247 0 -386.5 -149
t-139.5 -461q0 -320 138.5 -470t387.5 -150q248 0 387 149zM1317.5 2049q53.5 -30 53.5 -83q0 -39 -26.5 -60.5t-75.5 -41.5q-38 -16 -57 -29t-22 -34h-103q1 28 17 47t37 30t56 25q38 15 56 26.5t18 30.5q0 46 -127 46q-57 0 -104.5 -7t-108.5 -24v72q94 32 222 32
q111 0 164.5 -30zM749 1880h154l296 -272h-161l-212 203l-212 -203h-161z" />
    <glyph glyph-name="uni1ED5" unicode="&#x1ed5;" horiz-adv-x="1270" 
d="M358 42q-117 61 -181.5 187t-64.5 314q0 185 64 310t181 187t278 62q247 0 384.5 -139.5t137.5 -419.5q0 -185 -64.5 -311t-182 -188.5t-275.5 -62.5q-160 0 -277 61zM988 541q0 222 -91.5 322.5t-261.5 100.5t-261.5 -100t-91.5 -320q0 -426 353 -426t353 423z
M1091.5 1845.5q50.5 -29.5 50.5 -83.5q0 -37 -23 -56t-70 -39q-38 -16 -58 -30.5t-23 -39.5h-96q1 29 17 48.5t36 30.5t54 26q34 13 50.5 24t16.5 29q0 23 -27 35t-93 12q-57 0 -104.5 -7t-101.5 -24v72q93 32 214 32q107 0 157.5 -29.5zM562 1616h146l267 -363h-143
l-197 274l-197 -274h-143z" />
    <glyph glyph-name="uni1ED6" unicode="&#x1ed6;" horiz-adv-x="1653" 
d="M454.5 64.5q-157.5 83.5 -244 253.5t-86.5 422t87.5 422t245 253.5t369.5 83.5q214 0 371.5 -83.5t244 -253.5t86.5 -422q0 -251 -87.5 -421.5t-245 -254t-369.5 -83.5q-214 0 -371.5 83.5zM1213 274q139 149 139 461q0 318 -139 469t-387 151q-247 0 -386.5 -149
t-139.5 -461q0 -320 138.5 -470t387.5 -150q248 0 387 149zM1102 2027q47 16 97 53v-94q-43 -32 -91.5 -46.5t-109.5 -14.5q-46 0 -87.5 9.5t-104.5 28.5q-56 17 -88 24.5t-65 7.5q-55 0 -102 -16.5t-98 -52.5v94q43 32 92 46.5t109 14.5q46 0 87.5 -9.5t104.5 -28.5
q56 -17 88 -24.5t65 -7.5q56 0 103 16zM749 1880h154l296 -272h-161l-212 203l-212 -203h-161z" />
    <glyph glyph-name="uni1ED7" unicode="&#x1ed7;" horiz-adv-x="1270" 
d="M358 42q-117 61 -181.5 187t-64.5 314q0 185 64 310t181 187t278 62q247 0 384.5 -139.5t137.5 -419.5q0 -185 -64.5 -311t-182 -188.5t-275.5 -62.5q-160 0 -277 61zM988 541q0 222 -91.5 322.5t-261.5 100.5t-261.5 -100t-91.5 -320q0 -426 353 -426t353 423z
M712.5 1666q-40.5 10 -93.5 28q-48 16 -81.5 24.5t-67.5 8.5q-54 0 -97.5 -16t-85.5 -50v101q68 61 186 61q44 0 84.5 -10t93.5 -28q48 -16 81.5 -24.5t67.5 -8.5q55 0 98.5 15.5t84.5 50.5v-101q-68 -61 -186 -61q-44 0 -84.5 10zM990 1253h-150l-205 264l-205 -264h-150
l278 343h154z" />
    <glyph glyph-name="uni1ED8" unicode="&#x1ed8;" horiz-adv-x="1653" 
d="M454.5 64.5q-157.5 83.5 -244 253.5t-86.5 422t87.5 422t245 253.5t369.5 83.5q214 0 371.5 -83.5t244 -253.5t86.5 -422q0 -251 -87.5 -421.5t-245 -254t-369.5 -83.5q-214 0 -371.5 83.5zM1213 274q139 149 139 461q0 318 -139 469t-387 151q-247 0 -386.5 -149
t-139.5 -461q0 -320 138.5 -470t387.5 -150q248 0 387 149zM741.5 -324q-29.5 25 -29.5 67t29.5 67.5t84.5 25.5t84.5 -25.5t29.5 -67.5t-29.5 -67t-84.5 -25t-84.5 25zM1199 1608h-161l-212 208l-212 -208h-161l296 284h154z" />
    <glyph glyph-name="uni1ED9" unicode="&#x1ed9;" horiz-adv-x="1270" 
d="M358 42q-117 61 -181.5 187t-64.5 314q0 185 64 310t181 187t278 62q247 0 384.5 -139.5t137.5 -419.5q0 -185 -64.5 -311t-182 -188.5t-275.5 -62.5q-160 0 -277 61zM988 541q0 222 -91.5 322.5t-261.5 100.5t-261.5 -100t-91.5 -320q0 -426 353 -426t353 423z
M557.5 -332q-27.5 26 -27.5 70q0 45 27.5 71.5t77.5 26.5t77.5 -26.5t27.5 -71.5q0 -44 -27.5 -70t-77.5 -26t-77.5 26zM975 1253h-143l-197 274l-197 -274h-143l267 363h146z" />
    <glyph glyph-name="uni1EDA" unicode="&#x1eda;" horiz-adv-x="1653" 
d="M1459.5 1126q68.5 -159 68.5 -386q0 -256 -86.5 -425.5t-243.5 -251.5t-372 -82q-214 0 -371.5 83.5t-244 253.5t-86.5 422t87.5 422t245 253.5t369.5 83.5q38 0 81 -3.5t85 -8.5q46 -5 97.5 -9t99.5 -4q109 0 164 39.5t55 121.5q0 35 -5.5 67.5t-16.5 73.5h123
q13 -38 18 -71t5 -75q0 -113 -69 -179t-199 -76q127 -90 195.5 -249zM1213 274q139 149 139 461q0 318 -139 469t-387 151q-247 0 -386.5 -149t-139.5 -461q0 -320 138.5 -470t387.5 -150q248 0 387 149zM745 1608l218 284h187l-245 -284h-160z" />
    <glyph glyph-name="uni1EDB" unicode="&#x1edb;" horiz-adv-x="1270" 
d="M1157 543q0 -185 -64.5 -311t-182 -188.5t-275.5 -62.5q-160 0 -277 61t-181.5 187t-64.5 314q0 185 64 310.5t182.5 187t281.5 61.5q43 0 134 -7q48 -5 80 -5q106 0 160 40t54 125q0 35 -5.5 67.5t-16.5 73.5h118q13 -39 18.5 -72t5.5 -74q0 -103 -54 -167.5t-155 -84.5
q178 -139 178 -455zM988 541q0 222 -91.5 322.5t-261.5 100.5t-261.5 -100t-91.5 -320q0 -426 353 -426t353 423zM548 1253l265 363h191l-292 -363h-164z" />
    <glyph glyph-name="uni1EDC" unicode="&#x1edc;" horiz-adv-x="1653" 
d="M1459.5 1126q68.5 -159 68.5 -386q0 -256 -86.5 -425.5t-243.5 -251.5t-372 -82q-214 0 -371.5 83.5t-244 253.5t-86.5 422t87.5 422t245 253.5t369.5 83.5q38 0 81 -3.5t85 -8.5q46 -5 97.5 -9t99.5 -4q109 0 164 39.5t55 121.5q0 35 -5.5 67.5t-16.5 73.5h123
q13 -38 18 -71t5 -75q0 -113 -69 -179t-199 -76q127 -90 195.5 -249zM1213 274q139 149 139 461q0 318 -139 469t-387 151q-247 0 -386.5 -149t-139.5 -461q0 -320 138.5 -470t387.5 -150q248 0 387 149zM746 1608l-245 284h187l218 -284h-160z" />
    <glyph glyph-name="uni1EDD" unicode="&#x1edd;" horiz-adv-x="1270" 
d="M1157 543q0 -185 -64.5 -311t-182 -188.5t-275.5 -62.5q-160 0 -277 61t-181.5 187t-64.5 314q0 185 64 310.5t182.5 187t281.5 61.5q43 0 134 -7q48 -5 80 -5q106 0 160 40t54 125q0 35 -5.5 67.5t-16.5 73.5h118q13 -39 18.5 -72t5.5 -74q0 -103 -54 -167.5t-155 -84.5
q178 -139 178 -455zM988 541q0 222 -91.5 322.5t-261.5 100.5t-261.5 -100t-91.5 -320q0 -426 353 -426t353 423zM548 1253l-292 363h191l265 -363h-164z" />
    <glyph glyph-name="uni1EDE" unicode="&#x1ede;" horiz-adv-x="1653" 
d="M1459.5 1126q68.5 -159 68.5 -386q0 -256 -86.5 -425.5t-243.5 -251.5t-372 -82q-214 0 -371.5 83.5t-244 253.5t-86.5 422t87.5 422t245 253.5t369.5 83.5q38 0 81 -3.5t85 -8.5q46 -5 97.5 -9t99.5 -4q109 0 164 39.5t55 121.5q0 35 -5.5 67.5t-16.5 73.5h123
q13 -38 18 -71t5 -75q0 -113 -69 -179t-199 -76q127 -90 195.5 -249zM1213 274q139 149 139 461q0 318 -139 469t-387 151q-247 0 -386.5 -149t-139.5 -461q0 -320 138.5 -470t387.5 -150q248 0 387 149zM803.5 1670.5q28.5 21.5 80.5 42.5q38 15 55.5 27.5t17.5 31.5
q0 23 -29 35.5t-97 12.5q-58 0 -106 -7t-108 -25v78q97 33 222 33q111 0 164.5 -31.5t53.5 -86.5q0 -41 -26.5 -63.5t-75.5 -43.5q-37 -16 -56 -30t-22 -36h-104q2 41 30.5 62.5z" />
    <glyph glyph-name="uni1EDF" unicode="&#x1edf;" horiz-adv-x="1270" 
d="M1157 543q0 -185 -64.5 -311t-182 -188.5t-275.5 -62.5q-160 0 -277 61t-181.5 187t-64.5 314q0 185 64 310.5t182.5 187t281.5 61.5q43 0 134 -7q48 -5 80 -5q106 0 160 40t54 125q0 35 -5.5 67.5t-16.5 73.5h118q13 -39 18.5 -72t5.5 -74q0 -103 -54 -167.5t-155 -84.5
q178 -139 178 -455zM988 541q0 222 -91.5 322.5t-261.5 100.5t-261.5 -100t-91.5 -320q0 -426 353 -426t353 423zM597.5 1319.5q15.5 27.5 36.5 44.5t53 37q35 23 51.5 39t16.5 40q0 35 -32 51t-100 16q-41 0 -87 -6t-86 -18v80q34 12 82.5 18.5t94.5 6.5q228 0 228 -141
q0 -47 -22.5 -73t-67.5 -54q-41 -26 -61 -48t-23 -59h-101q2 39 17.5 66.5z" />
    <glyph glyph-name="uni1EE0" unicode="&#x1ee0;" horiz-adv-x="1653" 
d="M909 1680q-41 10 -99 29q-54 18 -87 26t-69 8q-60 0 -104.5 -16t-86.5 -52v109q36 33 82.5 48.5t111.5 15.5q46 0 86.5 -10t98.5 -29q52 -18 86.5 -26.5t70.5 -8.5q60 0 104.5 16.5t86.5 52.5v-110q-35 -32 -82 -47.5t-112 -15.5q-46 0 -87 10zM1459.5 1126
q68.5 -159 68.5 -386q0 -256 -86.5 -425.5t-243.5 -251.5t-372 -82q-214 0 -371.5 83.5t-244 253.5t-86.5 422t87.5 422t245 253.5t369.5 83.5q38 0 81 -3.5t85 -8.5q46 -5 97.5 -9t99.5 -4q109 0 164 39.5t55 121.5q0 35 -5.5 67.5t-16.5 73.5h123q13 -38 18 -71t5 -75
q0 -113 -69 -179t-199 -76q127 -90 195.5 -249zM1213 274q139 149 139 461q0 318 -139 469t-387 151q-247 0 -386.5 -149t-139.5 -461q0 -320 138.5 -470t387.5 -150q248 0 387 149z" />
    <glyph glyph-name="uni1EE1" unicode="&#x1ee1;" horiz-adv-x="1270" 
d="M705.5 1356q-38.5 11 -91.5 32q-45 19 -77 28.5t-64 9.5q-52 0 -95 -18t-84 -58v117q68 67 181 67q41 0 79.5 -11t91.5 -32q44 -19 77 -28.5t65 -9.5q52 0 95 18t84 57v-117q-69 -66 -182 -66q-41 0 -79.5 11zM1157 543q0 -185 -64.5 -311t-182 -188.5t-275.5 -62.5
q-160 0 -277 61t-181.5 187t-64.5 314q0 185 64 310.5t182.5 187t281.5 61.5q43 0 134 -7q48 -5 80 -5q106 0 160 40t54 125q0 35 -5.5 67.5t-16.5 73.5h118q13 -39 18.5 -72t5.5 -74q0 -103 -54 -167.5t-155 -84.5q178 -139 178 -455zM988 541q0 222 -91.5 322.5
t-261.5 100.5t-261.5 -100t-91.5 -320q0 -426 353 -426t353 423z" />
    <glyph glyph-name="uni1EE2" unicode="&#x1ee2;" horiz-adv-x="1653" 
d="M1459.5 1126q68.5 -159 68.5 -386q0 -256 -86.5 -425.5t-243.5 -251.5t-372 -82q-214 0 -371.5 83.5t-244 253.5t-86.5 422t87.5 422t245 253.5t369.5 83.5q38 0 81 -3.5t85 -8.5q46 -5 97.5 -9t99.5 -4q109 0 164 39.5t55 121.5q0 35 -5.5 67.5t-16.5 73.5h123
q13 -38 18 -71t5 -75q0 -113 -69 -179t-199 -76q127 -90 195.5 -249zM1213 274q139 149 139 461q0 318 -139 469t-387 151q-247 0 -386.5 -149t-139.5 -461q0 -320 138.5 -470t387.5 -150q248 0 387 149zM741.5 -324q-29.5 25 -29.5 67t29.5 67.5t84.5 25.5t84.5 -25.5
t29.5 -67.5t-29.5 -67t-84.5 -25t-84.5 25z" />
    <glyph glyph-name="uni1EE3" unicode="&#x1ee3;" horiz-adv-x="1270" 
d="M1157 543q0 -185 -64.5 -311t-182 -188.5t-275.5 -62.5q-160 0 -277 61t-181.5 187t-64.5 314q0 185 64 310.5t182.5 187t281.5 61.5q43 0 134 -7q48 -5 80 -5q106 0 160 40t54 125q0 35 -5.5 67.5t-16.5 73.5h118q13 -39 18.5 -72t5.5 -74q0 -103 -54 -167.5t-155 -84.5
q178 -139 178 -455zM988 541q0 222 -91.5 322.5t-261.5 100.5t-261.5 -100t-91.5 -320q0 -426 353 -426t353 423zM552.5 -332q-27.5 26 -27.5 70q0 45 27.5 71.5t77.5 26.5t77.5 -26.5t27.5 -71.5q0 -44 -27.5 -70t-77.5 -26t-77.5 26z" />
    <glyph glyph-name="uni1EE4" unicode="&#x1ee4;" horiz-adv-x="1599" 
d="M336 131.5q-149 150.5 -149 466.5v882h171v-899q0 -237 107.5 -346t335.5 -109t336 109t108 346v899h167v-882q0 -316 -148.5 -466.5t-462.5 -150.5q-316 0 -465 150.5zM716.5 -324q-29.5 25 -29.5 67t29.5 67.5t84.5 25.5t84.5 -25.5t29.5 -67.5t-29.5 -67t-84.5 -25
t-84.5 25z" />
    <glyph glyph-name="uni1EE5" unicode="&#x1ee5;" horiz-adv-x="1289" 
d="M267.5 83.5q-107.5 101.5 -107.5 317.5v684h168v-676q0 -149 70 -215t197 -66q96 0 188.5 37.5t161.5 110.5v809h168v-1085h-140l-12 120h-10q-78 -67 -177.5 -102.5t-208.5 -35.5q-190 0 -297.5 101.5zM559.5 -332q-27.5 26 -27.5 70q0 45 27.5 71.5t77.5 26.5
t77.5 -26.5t27.5 -71.5q0 -44 -27.5 -70t-77.5 -26t-77.5 26z" />
    <glyph glyph-name="uni1EE6" unicode="&#x1ee6;" horiz-adv-x="1599" 
d="M336 131.5q-149 150.5 -149 466.5v882h171v-899q0 -237 107.5 -346t335.5 -109t336 109t108 346v899h167v-882q0 -316 -148.5 -466.5t-462.5 -150.5q-316 0 -465 150.5zM778.5 1670.5q28.5 21.5 80.5 42.5q38 15 55.5 27.5t17.5 31.5q0 23 -29 35.5t-97 12.5
q-58 0 -106 -7t-108 -25v78q97 33 222 33q111 0 164.5 -31.5t53.5 -86.5q0 -41 -26.5 -63.5t-75.5 -43.5q-37 -16 -56 -30t-22 -36h-104q2 41 30.5 62.5z" />
    <glyph glyph-name="uni1EE7" unicode="&#x1ee7;" horiz-adv-x="1289" 
d="M267.5 83.5q-107.5 101.5 -107.5 317.5v684h168v-676q0 -149 70 -215t197 -66q96 0 188.5 37.5t161.5 110.5v809h168v-1085h-140l-12 120h-10q-78 -67 -177.5 -102.5t-208.5 -35.5q-190 0 -297.5 101.5zM604.5 1319.5q15.5 27.5 36.5 44.5t53 37q35 23 51.5 39t16.5 40
q0 35 -32 51t-100 16q-41 0 -87 -6t-86 -18v80q34 12 82.5 18.5t94.5 6.5q228 0 228 -141q0 -47 -22.5 -73t-67.5 -54q-41 -26 -61 -48t-23 -59h-101q2 39 17.5 66.5z" />
    <glyph glyph-name="uni1EE8" unicode="&#x1ee8;" horiz-adv-x="1599" 
d="M336 131.5q-149 150.5 -149 466.5v882h171v-899q0 -237 107.5 -346t335.5 -109t336 109t108 346v899h59q111 0 165.5 37t54.5 118q0 35 -5.5 67.5t-16.5 73.5h122q13 -38 18.5 -71t5.5 -75q0 -104 -61 -166t-175 -74v-792q0 -316 -148.5 -466.5t-462.5 -150.5
q-316 0 -465 150.5zM719 1608l218 284h187l-245 -284h-160z" />
    </font>
</defs>
</svg>
