<svg width="31" height="24" fill="none" xmlns="http://www.w3.org/2000/svg"><path d="M17.157 20.25H9.892a5.631 5.631 0 0 1-5.625-5.625V8.86A8.529 8.529 0 0 0 .423 1.72.937.937 0 1 1 1.455.155 10.42 10.42 0 0 1 4.74 3.632c.172.193 1.561 1.665 3.838 1.665h10.796c2.945-.055 5.25 2.9 4.48 5.744l-1.242 4.953a5.618 5.618 0 0 1-5.456 4.256ZM5.905 6.642c.156.72.237 1.463.237 2.217v5.766a3.754 3.754 0 0 0 3.75 3.75h7.265a3.745 3.745 0 0 0 3.637-2.837l1.243-4.954c.457-1.689-.913-3.445-2.662-3.412H8.579a6.99 6.99 0 0 1-2.674-.53Zm3.518 16.186c0-.647-.525-1.172-1.172-1.172-1.555.062-1.554 2.283 0 2.344.647 0 1.172-.525 1.172-1.172Zm9.328 0c0-.647-.525-1.172-1.172-1.172-1.555.062-1.553 2.283 0 2.344.647 0 1.172-.525 1.172-1.172Zm1.561-12.844a.938.938 0 0 0-.937-.937H8.955c-1.245.05-1.244 1.826 0 1.875h10.42c.517 0 .937-.42.937-.938Z" fill="#3D3D3D"/><circle cx="23.001" cy="8" r="7" fill="#46A358" stroke="#fff" stroke-width="2"/><path d="M25.121 8.83c0-1.25-1.02-2.21-2.17-2.21-.11 0-.2.01-.29.03l1.59-2.25h-1.25l-1.65 2.33c-.23.33-.4.58-.51.76-.11.18-.2.38-.28.61-.07.22-.11.46-.11.72-.03 1.3 1.08 2.31 2.33 2.29 1.26 0 2.34-.99 2.34-2.28Zm-1.05 0c0 .37-.13.69-.38.94s-.55.37-.91.37c-.37 0-.67-.12-.92-.37s-.37-.57-.37-.94.12-.68.37-.93.55-.38.92-.38c.36 0 .66.13.91.38s.38.56.38.93Z" fill="#fff"/></svg>