<svg width="61" height="93" fill="none" xmlns="http://www.w3.org/2000/svg"><g clip-path="url(#a)" fill="#727272"><path d="M12.13 46.357a170.977 170.977 0 0 0 37.893.78c.857-.077.866-1.43 0-1.353a170.977 170.977 0 0 1-37.894-.78c-.851-.112-.847 1.245 0 1.353ZM15.03 92.03c5.435.695 10.905 1.033 16.385.956 4.82-.067 10.51.145 15.03-1.762.785-.334.44-1.641-.359-1.303-4.636 1.956-10.578 1.69-15.537 1.722-5.192.036-10.371-.307-15.523-.965-.852-.108-.848 1.244.004 1.353Z"/><path d="M11.605 45.316C5.332 51.167 2.408 59.89 3.099 68.398c.354 4.396 1.591 8.67 3.452 12.655 1.695 3.634 4.193 8.84 7.941 10.73.772.388 1.453-.776.677-1.168-3.488-1.758-5.86-6.82-7.456-10.243-1.857-3.99-3.072-8.322-3.323-12.727-.448-7.939 2.323-15.923 8.17-21.374.636-.59-.319-1.546-.955-.955ZM49.548 46.952c6.618 4.17 7.241 13.164 7.08 20.247-.18 7.898-1.153 20.413-10.542 22.722-.838.207-.484 1.51.359 1.303 9.802-2.408 11.21-14.828 11.506-23.187.273-7.822-.417-17.65-7.726-22.253-.736-.46-1.408.708-.677 1.168Z"/><path d="M16.577 46.366c-4.936 5.342-7.116 14.264-6.282 21.419.485 4.161 1.794 8.29 2.767 12.353.978 4.07 1.986 8.11 4.201 11.703.458.74 1.62.059 1.162-.68-2.08-3.373-3.05-7.142-3.969-10.96-.887-3.679-1.923-7.362-2.61-11.082-1.3-7.082.736-16.441 5.682-21.797.587-.64-.363-1.596-.95-.956Z"/><path d="M23.24 46.93c-3.676 6.51-5.609 13.903-5.51 21.396.049 3.598.56 7.2 1.538 10.662 1.215 4.297 3.062 8.372 3.87 12.786.156.856 1.452.491 1.295-.36-.704-3.865-2.197-7.462-3.385-11.186-1.153-3.616-1.843-7.344-1.96-11.145a41.085 41.085 0 0 1 5.314-21.473c.43-.757-.731-1.438-1.162-.68ZM27.204 48.223c1.279 7.511-.273 15.036-.143 22.578.058 3.444.825 6.65 1.273 10.04.467 3.521-.331 7.141-.766 10.635-.108.861 1.237.852 1.345 0 .44-3.525 1.233-7.173.767-10.725-.476-3.634-1.278-7.078-1.283-10.775-.009-7.398 1.354-14.742.103-22.109-.148-.856-1.443-.496-1.296.356ZM32.249 47.597c2.363 6.785 2.65 13.944 2.887 21.063.26 7.731-.125 15.341-1.56 22.951-.162.852 1.134 1.218 1.296.361 1.457-7.727 1.874-15.463 1.61-23.312-.243-7.236-.539-14.53-2.938-21.424-.282-.811-1.582-.46-1.295.36ZM37.908 47.628c.497 1.529 1.573 2.548 2.399 3.891.941 1.533 1.457 3.269 1.735 5.036.605 3.859.318 7.898.31 11.79-.01 4.232.313 8.71-.776 12.843-.96 3.63-3.162 6.758-3.897 10.464-.17.852 1.125 1.213 1.296.36.789-3.967 3.228-7.325 4.09-11.275.883-4.039.623-8.286.631-12.393.01-3.796.238-7.678-.26-11.451-.22-1.668-.596-3.318-1.313-4.842-.799-1.7-2.337-2.994-2.915-4.779-.273-.825-1.574-.473-1.3.356ZM44.45 47.416c2.672 2.525 3.96 6.555 4.923 10.036 1.005 3.625.668 7.493.444 11.203-.453 7.529-1.717 15.049-5.309 21.757-.412.766.749 1.452 1.161.68 3.83-7.154 5.108-15.197 5.534-23.221.215-4.04.39-7.985-.87-11.875-1.094-3.377-2.3-7.047-4.933-9.54-.627-.59-1.582.365-.95.96ZM16.47 50.798c-.14.356-.292.707-.458 1.055-.21.437.036 1.036.583 1.018.39-.013.7-.189.978-.455.09-.085.18-.176.264-.261.112-.113-.035.067.05-.036-.018.027-.112.018-.027.027-.215-.284-.43-.573-.65-.857-.059.302-.122.604-.18.91-.072.357.103.731.471.835.332.09.758-.113.83-.474.058-.302.12-.604.179-.91.09-.46-.193-.812-.65-.857-.372-.036-.709.163-.973.406-.094.086-.175.176-.27.261l-.089.082c.014-.014.027-.023.04-.037-.067.037-.067.041.01.01-.077.017-.072.022.013 0 .193.338.385.676.583 1.018.215-.45.412-.91.592-1.375.13-.342-.144-.744-.471-.834-.377-.103-.69.131-.825.474ZM13.139 58.89l-.189 1.132c-.05.302.032.6.31.762.246.144.618.117.816-.104l.39-.446c.085-.1.206-.284.31-.339a7.53 7.53 0 0 1-.342.09c.023-.004.05-.004.072-.008a7.4 7.4 0 0 0-.34-.09l.053.04c-.112-.194-.224-.388-.332-.586.036.388-.072.82-.116 1.213-.063.563.605.77 1.013.586.53-.248.883-.703 1.072-1.249l-1.126.298a270.97 270.97 0 0 1-.04-.257c-.22.843 1.08 1.203 1.296.36.098-.383.009-.802-.305-1.06-.404-.328-.946-.211-1.126.298-.08.226-.246.343-.453.442l1.014.586c.067-.604.39-1.677-.435-1.907-.695-.194-1.184.636-1.56 1.073l1.125.658.188-1.131c.059-.36-.094-.73-.47-.834-.319-.086-.767.112-.825.473ZM12.56 67.037c.045.532.094 1.063.139 1.591.067.753 1.076.929 1.323.18.134-.414.323-.789.56-1.158l-1.228-.163c.157.393.264.794.323 1.218.067.478.645.559.986.405a.9.9 0 0 0 .399-.387c.04-.072.072-.158.099-.235.013-.04.022-.08.036-.121.022-.068.013-.064-.018.013l-.296.176c.022-.01.049-.014.071-.023h-.358c-.01-.004-.018-.009-.023-.018l-.242-.243c.014.018.023.036.036.054l-.067-.523c-.005.023-.005.045-.01.063-.048.36.086.726.472.834.313.086.78-.108.83-.473.04-.293.017-.56-.198-.78a.88.88 0 0 0-.704-.24.87.87 0 0 0-.628.407c-.058.094-.139.225-.143.333-.005.158-.072.045.071-.018.328.135.66.27.987.406a5.25 5.25 0 0 0-.323-1.217c-.215-.532-.897-.685-1.229-.163-.296.465-.524.96-.695 1.48.44.058.88.12 1.323.18-.045-.532-.094-1.064-.139-1.592-.031-.365-.287-.676-.672-.676-.346.013-.713.324-.682.69ZM14.179 76.576c.044.78.434 1.46 1.112 1.858.448.257 1.004-.072 1.013-.587.004-.396.094-.761.247-1.127l-1.126.298c.184.225.381.424.601.609.359.302 1.013.243 1.125-.298a2.67 2.67 0 0 1 .1-.338l-1.126.297c.04-.022.062.005.058.077.143.338.637.41.92.244.344-.203.385-.587.241-.925a.934.934 0 0 0-.269-.351c-.417-.33-.928-.208-1.125.297a1.82 1.82 0 0 0-.099.338l1.126-.297a4.792 4.792 0 0 1-.601-.609c-.359-.442-.95-.112-1.126.298a4.018 4.018 0 0 0-.296 1.487c.337-.193.673-.387 1.014-.586-.26-.148-.43-.383-.449-.69-.045-.856-1.39-.865-1.34.005ZM16.95 85.85c.157.406.345.78.6 1.136.4.55 1.193.347 1.256-.343.005-.04.076-.54.05-.563-.194.121-.382.243-.575.365.045.063.086.122.135.18.17.217.381.401.655.478.21.054.457.027.64-.09a.739.739 0 0 0 .27-.307l.067-.162c.103-.325-.094-.379-.587-.162.269.82 1.57.469 1.296-.36-.189-.569-.736-.939-1.332-.713a1.07 1.07 0 0 0-.57.51c-.035.071-.166.382-.12.473.26-.15.515-.302.775-.451-.036-.045-.072-.086-.103-.131-.215-.437-.839-.685-1.287-.523-.632.225-.605.902-.655 1.46.417-.112.834-.225 1.256-.342a3.732 3.732 0 0 1-.466-.811c-.323-.803-1.624-.456-1.305.356Z"/><path d="M24.137 50.982c-.484.366-.887.798-1.152 1.353-.345.721.457 1.29 1.058.82l.43-.338c.064-.05.126-.099.194-.148.03-.027.062-.05.094-.077.112-.081.053-.068-.175.036a7.561 7.561 0 0 0-.34-.09l.04.027-.243-.244c-.013-.058-.031-.112-.045-.17.005-.064.005-.073-.009-.019-.03.023-.04.176-.04.198a.903.903 0 0 0 .094.6.803.803 0 0 0 .467.374c.08.023.183.032.269.032.08 0 .152-.014.224-.04.094-.028.063-.037-.099-.028l-.296-.176.04.04-.174-.297.013.045.068-.523c-.01.014-.014.028-.023.041-.408.766.753 1.452 1.161.68.175-.324.135-.689-.139-.946a.813.813 0 0 0-.533-.22c-.112-.005-.242.067-.341.058.112.031.224.063.34.09a1.26 1.26 0 0 0-.049-.036l.243.243-.027-.054c.031.113.063.226.09.343-.01-.086.004-.04.035-.167.036-.158.04-.33.005-.491a.796.796 0 0 0-.642-.618c-.336-.063-.565.113-.82.311-.256.198-.511.401-.767.6l1.058.82c.162-.333.368-.64.668-.865.292-.217.44-.587.243-.925-.166-.284-.624-.455-.92-.239ZM21.505 58.593c-.112.54-.22 1.082-.332 1.627-.139.69.606 1.087 1.126.658.152-.126.287-.284.385-.455.068-.117.148-.356.184-.415l-.242.244a.536.536 0 0 0 .063-.045c-.112.031-.224.063-.341.09.027-.005.054-.005.08-.01a7.561 7.561 0 0 0-.34-.09c-.108-.05-.112-.225-.08.005a.949.949 0 0 0 .04.162.98.98 0 0 0 .345.51c.157.117.34.18.538.176a.816.816 0 0 0 .34-.09.484.484 0 0 0 .153-.095c.117-.081.085-.077-.09.004a7.53 7.53 0 0 0-.34-.09c.018.01.022.018.036.054.287.816 1.587.465 1.295-.36-.125-.357-.309-.686-.654-.861a.894.894 0 0 0-.601-.077c-.197.045-.314.176-.484.257a7.53 7.53 0 0 1 .34-.09h-.071c.112.031.224.063.34.09.122.212.157.243.108.094l-.027-.175a1.258 1.258 0 0 0-.143-.338.878.878 0 0 0-.75-.429.846.846 0 0 0-.726.447c-.12.225-.112.36-.318.532l1.126.658c.112-.541.22-1.082.331-1.623.18-.857-1.116-1.218-1.29-.365ZM20.985 65.504a13.894 13.894 0 0 0-.25 2.19c-.019.515.582.84 1.013.587.197-.117.34-.275.448-.478.04-.077.157-.252.135-.32-.005-.01-.045.05-.027.04a7.53 7.53 0 0 1-.341.09c-.01.005-.023.005-.032.01-.08-.081-.16-.163-.242-.244.077.1.068.09.077.194.049.555.713.924 1.148.478.049-.054.098-.104.152-.153a.297.297 0 0 1-.287-.018l-.175-.298a.59.59 0 0 0 .032.081c.125.343.457.577.829.474.327-.09.596-.487.47-.834-.349-.956-1.367-.834-1.972-.208l1.148.478c-.054-.654-.377-1.361-1.148-1.312a.97.97 0 0 0-.758.47c-.058.094-.099.202-.143.306-.05.112-.135.153.004.072l1.014.586c.017-.618.085-1.226.201-1.835.166-.848-1.13-1.208-1.296-.356ZM21.653 73.227c.153.604.337 1.194.552 1.776.175.473.735.672 1.125.297.17-.166.287-.36.346-.595a1.76 1.76 0 0 0 .045-.302c.013-.288-.018-.05.009-.063-.113.032-.225.063-.341.09.031 0 .058-.004.09-.004a7.53 7.53 0 0 0-.341-.09c-.09-.04-.063-.082.009.045.035.063.067.117.112.175.139.18.31.303.538.334a.793.793 0 0 0 .565-.14.892.892 0 0 0 .242-.243c.027-.054.054-.108.076-.162.09-.176.014-.131-.229.14h-.358c-.054-.046-.103-.095-.157-.14-.032-.113-.063-.226-.09-.343v.081c-.013.87 1.332.87 1.345 0 .01-.455-.305-.811-.74-.901a.818.818 0 0 0-.659.14.905.905 0 0 0-.233.238c-.013.027-.027.059-.045.086-.116.225-.085.22.099-.014.112-.031.224-.063.34-.09-.022.005-.044.005-.067.01.113.03.225.062.341.09.193.094.094.063.023-.064a1.005 1.005 0 0 0-.207-.266.888.888 0 0 0-.91-.176c-.255.09-.448.289-.578.519-.072.13-.108.261-.135.406-.013.063 0 .243-.04.284l1.125.297c-.215-.581-.399-1.176-.551-1.776-.22-.839-1.516-.483-1.3.36ZM22.33 79.687c.242.717.552 1.407.933 2.056.273.464.879.41 1.161 0 .076-.113.13-.23.166-.36.005-.041.01-.078.018-.118.072-.262.009-.252-.197.031h-.359c-.188-.058-.103-.045-.004.064.071.076.161.157.255.212.193.108.422.148.641.13.503-.036.848-.37 1.014-.825.3-.816-1-1.172-1.296-.36.085-.226.296-.1.26-.208-.027-.076-.184-.18-.256-.22a.882.882 0 0 0-.721-.073.922.922 0 0 0-.507.442c-.099.18-.072.45-.18.604h1.162a9.162 9.162 0 0 1-.798-1.731c-.27-.82-1.57-.469-1.292.356ZM24.102 87.4c.004.375.058.749.174 1.1a.682.682 0 0 0 .561.483c.247.032.556-.081.668-.325.076-.162.152-.324.229-.482.036-.076.071-.149.103-.225l.054-.113c.036-.068.036-.068 0 0l-.296.176c.013-.005.031-.014.045-.018h-.36l-.07-.032c-.082-.08-.162-.162-.243-.243-.067-.113-.005-.018.022.058.023.073.05.14.072.212.05.14.099.284.144.424.116.347.462.573.83.473.331-.09.587-.487.47-.834-.193-.559-.354-1.478-1.134-1.375-.606.081-.807.82-1.032 1.299l1.229.162a2.429 2.429 0 0 1-.13-.744c-.005-.352-.305-.694-.673-.676-.354.018-.668.302-.663.68ZM30.28 88.221l-.107.924c-.036.289.233.582.493.654.305.086.587-.063.758-.311.12-.176.242-.347.363-.523.054-.081.112-.158.166-.239l.067-.095c.099-.135.085-.126-.036.027a7.53 7.53 0 0 1-.34.09h.062a7.53 7.53 0 0 0-.34-.09c-.135-.234-.18-.28-.135-.135.013.054.022.113.036.167.022.113.045.22.072.334.049.234.071.509.192.72.117.2.31.37.534.434.345.094.628-.081.83-.352.22-.293.044-.757-.243-.924-.345-.203-.7-.05-.919.243a.253.253 0 0 1-.027.036c.193-.112.386-.225.583-.333-.013 0-.027.004-.04.004.112.032.224.063.34.09.117.06.189.388.122.055-.018-.095-.04-.185-.059-.28-.036-.167-.067-.334-.103-.5-.08-.352-.291-.695-.659-.798-.408-.113-.73.121-.96.428-.228.311-.444.631-.663.947.417.112.834.225 1.255.342l.108-.924c.04-.365-.34-.676-.673-.676-.399.009-.632.325-.677.685ZM30.926 75.873a9.083 9.083 0 0 0-.233 2.2c.009.636.941.965 1.255.343.135-.27.27-.537.404-.807.099-.199.17-.447.35-.587l-.296.176c0-.004 0-.009.004-.013-.215-.167-.43-.33-.65-.496l.256.96c.107.401.623.645.986.406.063-.04.126-.086.188-.126.718-.478.045-1.65-.677-1.168-.062.04-.125.086-.188.126.327.135.66.27.986.406l-.255-.96a.683.683 0 0 0-.65-.496c-.946.018-1.27 1.2-1.619 1.902.417.113.834.226 1.255.343a7.73 7.73 0 0 1 .184-1.844c.189-.852-1.107-1.213-1.3-.365ZM29.643 65.756c.032.532.059 1.06.09 1.592.036.667.888.924 1.256.342l.78-1.24h-1.161c.094.163.152.311.16.5a.68.68 0 0 0 1.149.479c.34-.307.56-.677.726-1.105-.327.136-.659.27-.986.406 0 .009 0 .018-.005.022l-.175-.297c.014.027.023.059.036.086.14.338.444.577.83.473.314-.086.61-.491.47-.834a1.338 1.338 0 0 0-.48-.622c-.38-.284-.847.04-.986.405-.08.208-.22.361-.38.51l1.147.478a2.544 2.544 0 0 0-.345-1.181c-.265-.447-.892-.429-1.161 0l-.78 1.24c.416.112.833.225 1.255.342-.032-.532-.058-1.06-.09-1.591-.054-.87-1.399-.875-1.35-.005ZM30.007 56.816c-.04.343-.059.686-.05 1.028.014.47.579.902 1.014.586.224-.162.363-.347.44-.613.017-.063.035-.135.044-.198.009-.059.045-.063-.004-.018-.234.216-.48.527-.852.076.04.05.026.045 0-.013.03.067.053.144.085.212.053.117.134.22.224.31.278.276.69.33 1.027.136.318-.18.421-.613.242-.924a.68.68 0 0 0-.92-.244c-.013.01-.03.018-.044.027a7.53 7.53 0 0 1 .34-.09c.037-.004.36.176.332.185.018.036.018.036.005.005a1.09 1.09 0 0 0-.045-.108 1.184 1.184 0 0 0-.215-.361c-.22-.23-.56-.343-.87-.244-.292.09-.484.325-.579.609-.022.063-.03.126-.049.194-.009.031-.018.058-.022.09-.018.059-.018.059.004 0a.329.329 0 0 1 .175-.198c.336.194.673.387 1.013.586a7.192 7.192 0 0 1 .05-1.028c.045-.352-.34-.69-.673-.676-.399.018-.623.297-.672.671ZM29.595 49.882a1.867 1.867 0 0 0 .201 1.443c.314.532 1.036.37 1.229-.162.072-.199-.036.122.031-.081.027-.077.05-.04-.018-.01-.206.109-.484.037-.547-.234.085.356.485.568.83.474.358-.1.556-.474.47-.834-.12-.514-.676-.79-1.174-.672-.489.122-.727.55-.888.992l1.229-.163c-.068-.117-.077-.108-.09-.248.009.072.004-.018.004-.04.01-.199-.026.08.018-.113.086-.343-.112-.748-.47-.834-.346-.072-.731.113-.826.482ZM10.367 48.286a6.629 6.629 0 0 0-.533.826c-.265.473.184 1.212.758.991.206-.076.408-.157.614-.234-.274-.158-.552-.316-.83-.473a.662.662 0 0 1 .05.275c-.005.342.313.707.672.676.336-.027.623-.108.924-.253.327-.157.412-.63.242-.924-.197-.338-.592-.401-.92-.243a.97.97 0 0 1-.246.067l.673.677a1.797 1.797 0 0 0-.099-.636c-.112-.32-.466-.609-.83-.473-.206.076-.407.157-.614.234l.758.992a7.19 7.19 0 0 1 .534-.825c.22-.293.045-.758-.242-.924-.337-.194-.691-.046-.91.247ZM6.56 55.879c-.255.563-.475 1.14-.654 1.735-.112.37.134.713.47.834.288.104.597.04.848-.121.108-.073.18-.145.26-.24.31-.369-.116.109-.368-.202l-.174-.298c-.036-.126-.01.135-.01.131.014.104.041.212.095.306.103.176.291.32.484.375.363.099.83-.04.987-.41.143-.334.098-.726-.243-.925-.282-.167-.775-.094-.919.244.014-.018.027-.036.045-.05l.296-.176.404.122.174.298c.036.126.01-.185 0-.217a.852.852 0 0 0-.188-.356.915.915 0 0 0-.623-.293.956.956 0 0 0-.601.18 1.086 1.086 0 0 0-.224.208c-.278.324-.085.05.12.121l.472.834c.143-.482.314-.95.52-1.41.148-.334.094-.727-.242-.925-.296-.176-.78-.099-.929.235ZM5.072 63.854a6.034 6.034 0 0 0 .009 2.303c.076.384.489.528.83.474a.933.933 0 0 0 .52-.293c.058-.063.112-.14.16-.212.028-.04.05-.081.073-.126.04-.063.027-.059-.05.004h-.358c.031.01.062.018.094.027l-.296-.176c-.05-.103-.054-.099-.01.014l.068.162c.072.135.17.244.296.325.3.203.574.19.897.04.332-.148.412-.635.242-.924-.197-.342-.587-.392-.92-.243l-.071.031.52-.067c-.027-.01-.054-.014-.08-.023l.295.176c.027.09.027.1.005.031a1.364 1.364 0 0 0-.08-.202.88.88 0 0 0-.149-.217.854.854 0 0 0-.722-.27.988.988 0 0 0-.614.31c-.08.082-.148.177-.206.276-.014.027-.032.054-.045.081-.085.126-.063.113.072-.036.273.158.551.316.83.473a4.175 4.175 0 0 1-.01-1.582c.067-.36-.098-.73-.47-.834-.332-.086-.763.117-.83.478ZM6.031 73.614c.189.379.373.758.56 1.136.167.334.62.41.92.244.242-.135.408-.352.484-.622.036-.122.059-.275.045-.402-.013-.144.05-.103-.027-.036l-.296.176c-.009.005-.018.005-.026.01a7.407 7.407 0 0 0-.341-.091c.233.135.345.352.686.352.403 0 .493-.24.735-.478l-.296.176c-.13-.082-.26-.163-.39-.248.054.36.507.559.83.473.385-.108.524-.469.47-.834-.062-.406-.443-.708-.838-.748-.462-.045-.762.207-.982.586l.242-.244c-.022.018-.05.036-.072.054.112-.031.225-.063.341-.09h-.072c.112.032.225.063.341.09-.08-.045-.291-.275-.47-.324a.841.841 0 0 0-.736.14c-.188.14-.318.347-.386.567-.044.14.005.424-.067.523l.242-.243c-.027.014-.054.032-.085.045l.92.244c-.19-.38-.373-.758-.561-1.136-.395-.785-1.556-.1-1.17.68ZM10.183 83.659c-.022.581.579.91 1.085.753a.923.923 0 0 0 .534-.465l.054-.112c.098-.158 0-.113-.305.144-.14-.018-.076-.018.022.036a.683.683 0 0 0 .92-.243c.179-.312.076-.749-.243-.925-.332-.185-.708-.293-1.076-.14a.97.97 0 0 0-.453.397.715.715 0 0 0-.08.167l-.027.054c.233-.261.475-.284.73-.068l.175.298.014.108c.013-.356-.319-.694-.673-.676a.682.682 0 0 0-.677.672ZM35.038 50.157c.08.406.22.785.394 1.16.166.346.619.391.92.243a.965.965 0 0 0 .399-.406c.026-.05.044-.104.071-.158.144-.311-.004.158-.35.122a7.53 7.53 0 0 0-.34-.09c-.076-.036.112.085.112.085a.97.97 0 0 0 .749.185c.403-.068.64-.329.793-.694.14-.338-.152-.744-.47-.834-.386-.108-.687.135-.83.473.157-.293.354-.356.587-.19a.31.31 0 0 0-.058-.049.945.945 0 0 0-.363-.207.828.828 0 0 0-.637.09.92.92 0 0 0-.345.406c-.018.04-.04.085-.058.13-.05.145-.023.01.058-.027.305.082.614.163.92.244a3.6 3.6 0 0 1-.261-.834c-.067-.36-.498-.564-.83-.473-.363.094-.529.464-.461.825ZM36.598 57.898c.085.428.175.857.26 1.285.144.708 1.09.577 1.296 0 .067-.194.184-.32.332-.455l-1.058-.136c.116.271.237.546.354.816.134.312.655.447.92.244.16-.122.29-.23.394-.41.036-.063.076-.14.098-.212a.325.325 0 0 1 .04-.09c.108-.199-.098-.262-.623-.19-.049.361.346.676.673.676.404 0 .623-.31.673-.676.076-.563-.449-1.073-.991-1.073a.969.969 0 0 0-.704.316c-.086.09-.144.19-.202.297-.036.073-.175.298-.036.194l.92.244-.355-.816c-.184-.424-.771-.397-1.058-.136-.323.293-.53.645-.677 1.05h1.296c-.086-.427-.175-.856-.26-1.284-.166-.857-1.467-.496-1.292.356ZM37.777 68.24c-.04.338 0 .686.09 1.01.112.392.623.658.986.406a1.24 1.24 0 0 0 .485-.618c.027-.067.05-.14.072-.212.04-.144 0 .05-.117.068h-.359c-.112-.045-.184-.113-.201-.212-.014-.045-.01-.031.017.04.014.041.027.086.04.127.077.207.185.374.355.514.368.297.785.248 1.143-.032.287-.225.234-.721 0-.955-.282-.285-.663-.226-.95 0-.014.013-.032.022-.045.036l.296-.176-.054.013h.359c.08.014.197.262.148.113a1.537 1.537 0 0 0-.144-.343.915.915 0 0 0-.874-.446c-.314.032-.57.23-.74.492a1.56 1.56 0 0 0-.161.365c-.014.04-.04.099-.045.14-.005.058-.014-.014.098-.09l.987.405a1.583 1.583 0 0 1-.045-.65c.04-.364-.34-.675-.672-.675-.39.004-.624.315-.669.68ZM37.405 76.202c-.036.442 0 .875.067 1.312.081.51.803.64 1.126.297a6.78 6.78 0 0 1 .363-.356c.112-.099.229-.198.319-.261-.328-.135-.66-.27-.987-.406.04.117.04-.018.027.108.009-.094-.054.086-.009.01-.175.32-.076.739.242.923.31.18.745.082.92-.243.192-.356.255-.77.12-1.159-.13-.37-.614-.68-.986-.405a7.25 7.25 0 0 0-.95.83c.376.098.748.198 1.125.297a4.504 4.504 0 0 1-.023-.956c.027-.352-.327-.69-.672-.676-.395.027-.65.306-.682.685ZM36.975 85.034a4.56 4.56 0 0 0-.53 1.33c-.08.356.108.73.471.834.377.104.7-.126.83-.474.04-.112.175-.356.247-.45h-.95a.358.358 0 0 1-.073-.334c-.058.36.095.726.471.834.323.09.767-.108.83-.473.063-.375-.005-.704-.274-.983-.233-.244-.726-.284-.95 0-.26.324-.449.654-.597 1.046.43.121.866.239 1.296.36.085-.378.197-.676.395-1.005a.687.687 0 0 0-.242-.924.68.68 0 0 0-.924.239ZM41.898 87.734c-.278.366-.408.816-.43 1.272-.014.266.18.523.412.617.265.108.52.045.736-.14.332-.284.663-.572.995-.856l-1.058-.135c-.027-.04-.013-.1-.009-.145.005-.031.076-.14.005-.027-.193.312-.068.744.242.925A.68.68 0 0 0 43.71 89c.229-.365.224-.83.004-1.199-.237-.397-.726-.42-1.058-.135-.332.284-.663.572-.995.856l1.148.478c.009-.203-.036.09.009-.104.018-.067.035-.14.058-.207-.036.095.054-.095.054-.1.036-.062.076-.12.12-.175.22-.293.046-.757-.241-.924-.337-.203-.686-.05-.91.243ZM44.383 78.88a9.055 9.055 0 0 0-.153 1.56c-.009.663.928.933 1.256.343.201-.37.439-.69.735-.988-.274.036-.543.072-.816.104l-.045-.032-.175-.297c-.013-.04.032-.167-.013-.023-.032.09-.05.235-.054.32a.968.968 0 0 0 .18.604.8.8 0 0 0 .627.325c.135 0 .291-.04.408-.104l.063-.036c.107-.067.076-.072-.094-.013a7.53 7.53 0 0 0-.341-.09c-.18-.09-.193-.194-.175-.325-.05.36.09.726.47.834.315.086.776-.108.83-.473.054-.388.036-.78-.26-1.073a.834.834 0 0 0-.578-.226.987.987 0 0 0-.408.113c-.032.018-.18.081-.094.063h.358c-.018-.004-.04-.013-.058-.018l.296.176c.045.374.085.469.126.284a.705.705 0 0 0 .035-.14c.023-.104.032-.212.023-.32-.018-.297-.17-.582-.444-.712-.27-.136-.592-.118-.816.103-.372.375-.69.798-.946 1.258.417.113.834.226 1.255.343a7.19 7.19 0 0 1 .108-1.2c.063-.36-.099-.73-.471-.833-.332-.09-.767.112-.83.473ZM45.288 69.57a2.177 2.177 0 0 0-.05 1.47c.207.658 1.077.627 1.297 0 .112-.325.313-.582.569-.807l-1.148-.478c.014.23.031.46.045.685.027.397.287.632.673.677.215.027.412-.045.591-.163a.945.945 0 0 0 .202-.175c.023-.032.05-.06.072-.086.08-.086.013-.068-.206.054-.112-.032-.224-.063-.341-.09-.036-.04-.076-.081-.112-.122a7.581 7.581 0 0 1-.09-.343c0 .019 0 .037.005.055.031-.113.062-.226.09-.343-.01.013-.019.032-.028.045-.457.744.709 1.425 1.162.68.269-.437.045-1.005-.426-1.176a.855.855 0 0 0-.727.054c-.094.05-.175.122-.25.198-.019.019-.032.041-.05.06-.09.09-.054.09.108 0l.672.675c-.013-.23-.031-.46-.045-.685-.04-.6-.7-.874-1.148-.478-.43.383-.726.861-.914 1.402h1.296c-.086-.275-.059-.487.049-.748.139-.338-.153-.744-.47-.834-.387-.108-.687.135-.826.473ZM44.727 57.718c.036.379.077.762.113 1.14.031.334.228.623.582.663.323.04.655-.153.74-.482.072-.289.17-.55.314-.807h-1.161c.067.126.134.252.197.374.247.464.901.41 1.161 0 .023-.036.054-.068.054-.081.072-.063.023-.059-.139.013a.307.307 0 0 1-.215.037l-.242-.244-.014-.054c.26.825 1.56.473 1.296-.36a.944.944 0 0 0-.95-.677c-.435.014-.74.338-.955.68h1.161a30.27 30.27 0 0 1-.197-.373c-.233-.442-.924-.438-1.162 0a5.044 5.044 0 0 0-.448 1.131c.44.059.879.122 1.323.18-.036-.378-.076-.761-.112-1.14-.036-.365-.283-.676-.673-.676-.336 0-.708.31-.672.676ZM41.396 50.157c.17.433.381.794.677 1.155.341.414.982.144 1.126-.298.103-.325.148-.676.116-1.014-.417.112-.834.225-1.255.342.13.253.314.483.533.663.283.23.677.275.951 0 .238-.239.283-.726 0-.956a1.411 1.411 0 0 1-.22-.212c-.067-.085.04.068-.018-.027a2.51 2.51 0 0 1-.085-.149c-.139-.27-.484-.392-.762-.315-.265.072-.52.36-.493.654.027.284.018.396-.068.653l1.126-.297a1.729 1.729 0 0 1-.184-.27l-.094-.167c-.01-.014-.08-.185-.058-.118-.135-.338-.449-.577-.83-.473-.314.086-.596.487-.462.83ZM48.189 49.635c.054.284.161.559.31.811.152.257.47.392.757.311.305-.086.466-.352.493-.654l.095-.95c-.337.193-.673.387-1.014.585l.619.465c.291.216.753.05.92-.244.201-.343.048-.708-.243-.924-.206-.153-.412-.311-.619-.464-.188-.14-.488-.113-.677 0-.22.13-.31.338-.332.586l-.094.95c.417-.112.834-.225 1.256-.342a1.172 1.172 0 0 1-.175-.487c-.067-.36-.498-.563-.83-.473-.367.1-.529.469-.466.83ZM51.175 57.75c.063.374.153.734.274 1.095a.684.684 0 0 0 .986.406.924.924 0 0 0 .467-.627c.031-.122.035-.252.044-.383 0-.045.005-.09.01-.135-.01.189-.135.31-.382.374a7.53 7.53 0 0 0-.34-.09c.529.261.941.437 1.547.302.843-.19.488-1.497-.36-1.303-.21.05-.331-.077-.51-.167a.879.879 0 0 0-.947.086c-.206.162-.3.387-.336.644-.013.1-.018.194-.027.293-.009.086-.004.09.005.023-.045.153.004.09.152-.18l.987.405a8.31 8.31 0 0 1-.274-1.095c-.063-.36-.502-.564-.83-.474-.376.095-.528.465-.466.825ZM52.74 67.532c-.044.343-.094.686-.139 1.028-.04.302.027.6.31.762.233.14.637.127.816-.103.099-.131.197-.24.354-.293-.282-.217-.57-.433-.852-.654.01.27.014.54.023.811.013.451.417.758.852.654.215-.05.394-.158.565-.293l.166-.13c-.014-.019-.23-.005-.279-.06l-.174-.297c.009.023.013.045.022.068.283.816 1.583.464 1.296-.36-.157-.447-.516-.7-.991-.686a1.176 1.176 0 0 0-.56.167c-.135.08-.26.248-.413.284.283.216.57.432.852.653-.009-.27-.014-.54-.023-.811-.008-.415-.425-.798-.851-.654-.373.13-.704.33-.947.645.377.22.75.437 1.126.658.045-.343.094-.685.139-1.028.05-.36-.085-.726-.47-.834-.306-.085-.772.108-.822.474ZM50.808 78.731c-.094.383-.189.767-.278 1.15-.085.351.107.74.47.834a.98.98 0 0 0 .897-.19c.211-.17.287-.437.48-.604l-.296.176c.032-.013.063-.027.099-.04h-.359c.032.004.063.013.099.018l-.404-.312a.873.873 0 0 1 .01.05c.03.077.062.153.098.23.09.149.228.252.381.32a.84.84 0 0 0 .516.045.562.562 0 0 0 .17-.045c.265-.085.21-.113-.161-.076l-.242-.244c.008.014.022.032.03.045-.03-.113-.062-.225-.089-.342 0 .017 0 .04-.004.058-.04.87 1.304.87 1.345 0 .018-.37-.233-.68-.579-.789a.966.966 0 0 0-.506-.013c-.059.013-.287.058-.22.067.112.032.224.063.34.09-.022-.013-.04-.031-.062-.045l.242.244c-.031-.063-.103-.302-.215-.42a.827.827 0 0 0-.749-.193 1.062 1.062 0 0 0-.502.32 1.583 1.583 0 0 0-.188.266c-.018.031-.032.063-.05.09-.125.171-.031.167.283-.018.157.28.314.554.47.834.095-.383.189-.766.279-1.15.197-.843-1.099-1.203-1.305-.356ZM49.382 86.864l.296.23c.287.226.753.045.92-.243.2-.347.049-.704-.243-.925l-.296-.23c-.287-.225-.753-.045-.92.244-.2.347-.044.699.243.924Z"/></g><g clip-path="url(#b)" fill="#46A358"><path d="M19.299 44.737c.559-4.632-2.674-8.09-6.12-10.757-2.006-1.556-3.967-2.854-5.275-5.081-.667-1.143-1.307-2.432-1.682-3.699-.73-2.467.532-6.343 3.657-3.498 1.8 1.64 2.214 3.756 3.59 5.579.775 1.031 1.966 1.582 3.205.925 3.73-1.974.844-8.82.01-11.54-1.01-3.295-1.543-6.464.157-9.634.56-1.04 1.186-2.111 1.903-3.049.465-.605 1.055-1.258 1.718-1.676 1.371-.871 2.196-.871 3.711-.409 1.615.494 1.628.578 1.957 2.107.154.707.217 1.485.253 2.214a18.036 18.036 0 0 1-.37 4.614c-.6 2.876-2.327 5.419-2.706 8.34-.28 2.147-.085 8.97 3.504 8.33 4.207-.751 3.905-7.41 8.099-8.3 3.49-.742 5.194 3.041 3.715 5.637-.803 1.414-2.137 2.508-3.422 3.472-2.291 1.72-5.091 2.618-7.341 4.357-4.072 3.156-2.72 8.117-1.046 12.184.324.787 1.632.44 1.303-.355-1.128-2.743-2.543-6.1-1.02-8.98 1.412-2.667 5.137-3.6 7.54-5.174 3.247-2.125 7.905-6.126 5.154-10.336-2.3-3.525-6.755-2.347-8.856.605-.636.893-1.127 1.876-1.69 2.814-.258.427-.515.858-.817 1.258-.216.258-.433.511-.65.769-1.708.373-2.592-.076-2.65-1.356-1.714-3.592.36-7.272 1.523-10.584a19.128 19.128 0 0 0 1.05-7.686c-.125-1.8-.315-4.237-2.033-5.312-1.51-.947-3.833-.405-5.316.333-2.21 1.102-3.562 3.44-4.68 5.521-2.873 5.343.027 10.051 1.095 15.434.14.716.496 2.285.257 3.08-.73.659-1.46 1.312-2.196 1.97a5.888 5.888 0 0 1-.956-1.742c-.424-.93-.87-1.796-1.488-2.623-.974-1.307-2.813-3.454-4.694-3.348-1.826.107-2.9 2.01-3.093 3.597-.289 2.347.987 4.85 2.142 6.841 3.201 5.517 12.125 7.548 11.205 15.167-.1.84 1.254.836 1.353-.009Z"/><path d="M30.987 22.573c.974-4.867-.866-9.317-1.25-14.122-.23-2.872 1.01-7.464 4.952-6.157 2.935.973 4.049 4.423 3.85 7.183-.144 2.019-1.127 7.94 2.814 7.389 3.382-.472 5.127-6.028 6.768-8.384 1.407-2.018 4.514-4.966 7.247-4.143 4.328 1.302 1.555 6.423-.438 8.437-3.359 3.392-6.94 6.392-9.902 10.17-1.718 2.192-3.206 5.793.604 6.775 1.466.378 2.877-.124 4.198-.72 1.065-.48 2.08-1.053 3.211-1.369 2.065-.578 4.46-.124 3.093 2.405-3.197 5.925-10.515 1.556-15.236 4.04-4.004 2.112-4.938 6.78-4.559 10.874.077.849 1.434.858 1.353 0-.266-2.854-.036-5.939 1.966-8.202 2.588-2.925 6.042-1.858 9.469-1.925 3.5-.066 8.004-1.738 8.73-5.592.793-4.223-4.086-3.405-6.588-2.387-1.105.45-2.137 1.147-3.292 1.476-.915.262-2.363.405-3.084-.445-.699-.826-.135-2.218.297-2.92 1.583-2.578 4.01-4.93 6.165-7.05 2.971-2.925 8.04-6.028 7.602-10.798-.334-3.65-3.752-4.988-6.904-3.618-1.893.822-3.458 2.129-4.694 3.76-1.614 2.13-2.475 5.055-4.4 6.93-.695.676-1.376 2.112-2.927.703-.69-.627-.482-2.298-.41-3.156.094-1.125.338-2.223.302-3.356-.059-1.916-.704-3.859-1.962-5.344-2.66-3.13-7.228-2.991-8.996.934-1.055 2.347-.59 5.032-.148 7.468.649 3.596 1.6 7.126.865 10.789-.166.84 1.137 1.2 1.304.355ZM30.685 31.006a76.431 76.431 0 0 1-3.13 13.474c-.27.818 1.037 1.169 1.303.355a76.42 76.42 0 0 0 3.13-13.473c.117-.845-1.186-1.205-1.303-.356ZM14.506 43.973c-.176-3.53-2.66-5.912-5.52-7.726-1.853-1.178-3.882-2.16-5.474-3.694-.685-.658-1.961-1.934-2.029-2.956-.23-3.41 3.995-.756 4.933.031.659.556 1.62-.387.956-.942-1.474-1.24-4.121-2.854-6.146-1.92-1.632.75-1.361 2.613-.735 3.956 2.638 5.703 12.315 6.356 12.662 13.251.04.854 1.398.858 1.353 0Z"/><path d="M44.839 45.293c1.686-2.507 3.91-4.556 6.633-5.934 2.48-1.254 5.555-1.472 7.751-3.245 2.52-2.036 2.651-7.028-1.52-6.9-.87.027-.87 1.36 0 1.334 1.646.222 2.314 1.12 2.012 2.69a4.22 4.22 0 0 1-1.718 2.129c-.988.689-2.187 1.004-3.324 1.36-1.447.454-2.858.93-4.198 1.64-2.786 1.485-5.064 3.663-6.809 6.255-.482.716.69 1.382 1.173.671ZM48.514 33.562c-5.731 1.067-7.846 6.69-9.203 11.611-.23.831 1.077 1.183 1.303.356 1.235-4.477 3.017-9.704 8.26-10.678.853-.164.492-1.449-.36-1.289ZM18.293 13.265c-.672-2.663.167-5.579 2.34-7.366a4.746 4.746 0 0 1 1.48-.867c1.501.316 2.2 1.107 2.096 2.374.027.738-.117 1.467-.293 2.178-.356 1.436-.983 2.8-1.447 4.205-1.195 3.619-2.913 9.536.315 12.616.312.298.794-.173.478-.471-2.831-2.698-1.38-7.886-.41-11.118.839-2.8 3.116-6.521 1.578-9.464-1.2-2.294-3.95-.431-5.118.911-1.727 1.988-2.308 4.66-1.672 7.18.108.418.757.24.653-.178ZM32.588 24.062c.387-.849 1.172-2.049 2.223-2.191 1.6-.218 2.426 1.765 1.569 3.076-.807 1.236-2.345 2.098-3.67 2.627-2.206.876-3.685 2.085-5.285 3.814-.293.316.184.791.478.471.97-1.053 1.961-2.147 3.224-2.876 1.005-.582 2.173-.809 3.183-1.378 1.231-.698 3.224-2.205 3.368-3.725.118-1.227-1.194-2.65-2.42-2.725-1.48-.093-2.715 1.4-3.252 2.574-.18.382.406.725.582.333ZM7.3 24.836c.149-1.17.595-1.6 1.335-1.285a.91.91 0 0 1 .658.28c.357.232.591.574.803.934.379.644.554 1.396.834 2.08.356.88.825 1.596 1.632 2.12.366.24.704-.337.343-.577-1.984-1.298-1.43-4.668-3.91-5.486-1.487-.489-2.984.783-2.276 2.267.184.392.766.054.581-.333ZM31.532 7.584c-.351-1.92 1.7-3.45 3.27-2.05.865.774 1.199 2.196 1.203 3.308.01 1.507-.69 2.854-.392 4.365.081.422.735.245.654-.178-.374-1.898.699-3.716.216-5.685-.288-1.178-.874-2.49-2.11-2.934-2.227-.796-3.864 1.329-3.495 3.347.082.422.73.245.654-.173ZM31.194 11.98c1.1 2.28 1.641 4.28 1.56 6.81-.013.431.663.427.677 0 .085-2.658-.501-4.76-1.65-7.143-.19-.387-.772-.05-.587.333ZM48.735 10.073c.654-1.471 1.89-2.4 3.319-3.098.41-.214.834-.387 1.276-.525 1.907.64 2.39 1.525 1.447 2.663-.45.698-1.105 1.325-1.668 1.938a68.901 68.901 0 0 1-6.913 6.512c-.334.276.145.747.478.472a68.687 68.687 0 0 0 6.286-5.841c1.181-1.25 3.45-3.103 2.953-5.077-.987-3.912-6.935.751-7.764 2.623-.172.386.414.724.586.333ZM44.916 19.986c-2.16 1.565-3.472 3.845-3.72 6.473-.041.426.635.422.676 0 .225-2.374 1.434-4.486 3.386-5.9.348-.248.01-.83-.342-.573ZM49.195 31.108c.442-.262.884-.538 1.348-.764a4.963 4.963 0 0 1 1.11-.44c.725-.298.969.257.725 1.667-.478.929-3.066.964-3.869.915-2.006-.115-3.895-.658-5.875-.057-.415.124-.239.769.18.644 2.377-.724 4.69.33 7.089.067 1.303-.147 3.147-.738 3.797-1.983.36-.693.274-1.609-.515-1.987-1.294-.618-3.314.751-4.333 1.36-.37.227-.031.805.343.578ZM39.14 33.589c-3.518 2.814-4.798 7.081-5.155 11.384-.036.427.64.427.677 0 .342-4.139 1.573-8.21 4.955-10.913.338-.271-.144-.738-.478-.471ZM24.002 34.722c-1.046 1.787-1.014 3.734-.784 5.735.194 1.68.415 3.33 1.591 4.636.289.32.767-.151.478-.471-1.154-1.28-1.298-3.058-1.452-4.694-.162-1.703-.14-3.352.753-4.872.217-.37-.365-.703-.586-.334ZM5.343 30.33c-1.957.027-1.181 2.059-.135 2.788 1.307.91 2.795 1.52 4.184 2.289 1.637.907 2.295 2.436 3.553 3.712.303.306.78-.165.478-.471-1.249-1.267-1.853-2.783-3.463-3.69-.811-.458-1.664-.845-2.48-1.285a21.499 21.499 0 0 1-1.253-.707c-.163-.097-.33-.2-.492-.297-.807-.303-.933-.858-.388-1.667.429-.01.429-.676-.004-.672Z"/><path d="M56.238 33.402c.023.89-.392 1.374-1.253 1.458-.415.165-.826.325-1.24.489l-1.858.734-4.334 1.711c-.4.156-.225.805.18.645 1.651-.654 3.302-1.303 4.952-1.956 1.222-.485 2.782-.832 3.869-1.587.942-.658.97-2.023-.32-2.16-.429-.05-.424.622.004.666ZM46.002 38.719a18.284 18.284 0 0 0-4.252 5.92c-.176.387.406.73.586.339a17.77 17.77 0 0 1 4.149-5.784c.31-.298-.167-.769-.483-.475ZM14.55 41.635c.52.755.853 1.569 1.01 2.467.073.422.727.244.655-.178a6.667 6.667 0 0 0-1.078-2.627c-.244-.351-.83-.018-.586.338Z"/></g><defs><clipPath id="a"><path fill="#fff" transform="translate(3 45)" d="M0 0h55v48H0z"/></clipPath><clipPath id="b"><path fill="#fff" d="M0 0h61v46H0z"/></clipPath></defs></svg>