<svg width="20" height="20" fill="none" xmlns="http://www.w3.org/2000/svg"><path d="M10 18.887c-.285 0-.56-.103-.773-.29-.808-.707-1.587-1.37-2.274-1.956l-.004-.003c-2.015-1.717-3.755-3.2-4.965-4.66C.63 10.343 0 8.795 0 7.103c0-1.643.564-3.16 1.587-4.269a5.378 5.378 0 0 1 4-1.741A5.03 5.03 0 0 1 8.73 2.179c.47.363.895.807 1.27 1.326a6.43 6.43 0 0 1 1.27-1.326 5.03 5.03 0 0 1 3.143-1.085c1.544 0 2.965.618 4 1.741C19.438 3.945 20 5.461 20 7.105c0 1.69-.63 3.24-1.983 4.872-1.211 1.46-2.95 2.944-4.965 4.66-.689.587-1.47 1.252-2.279 1.96-.214.187-.488.29-.773.29ZM5.587 2.265a4.22 4.22 0 0 0-3.14 1.364c-.822.893-1.276 2.127-1.276 3.475 0 1.423.53 2.695 1.715 4.126 1.145 1.382 2.85 2.835 4.823 4.516l.004.003c.69.588 1.471 1.255 2.285 1.966.82-.713 1.602-1.38 2.294-1.97 1.973-1.68 3.677-3.133 4.823-4.515 1.185-1.43 1.714-2.703 1.714-4.126 0-1.348-.454-2.582-1.277-3.475a4.22 4.22 0 0 0-3.139-1.364c-.889 0-1.705.283-2.426.84-.642.497-1.09 1.125-1.352 1.564A.734.734 0 0 1 10 5.03a.734.734 0 0 1-.635-.36c-.262-.44-.71-1.068-1.352-1.565a3.885 3.885 0 0 0-2.426-.84Z" fill="#3D3D3D"/></svg>