<svg width="16" height="16" fill="none" xmlns="http://www.w3.org/2000/svg"><path d="M8 1.467c2.133 0 2.4 0 3.267.066 2.2.067 3.2 1.134 3.266 3.267.067.867.067 1.067.067 3.2s0 2.4-.067 3.2c-.066 2.133-1.133 3.2-3.266 3.267-.867.066-1.067.066-3.267.066-2.133 0-2.4 0-3.2-.066-2.2-.067-3.2-1.134-3.267-3.267-.066-.867-.066-1.067-.066-3.2s0-2.4.066-3.2C1.6 2.667 2.667 1.6 4.8 1.533c.8-.066 1.067-.066 3.2-.066ZM8 0C5.8 0 5.533 0 4.733.067 1.8.2.2 1.8.067 4.733 0 5.533 0 5.8 0 8s0 2.467.067 3.267C.2 14.2 1.8 15.8 4.733 15.933 5.533 16 5.8 16 8 16s2.467 0 3.267-.067C14.2 15.8 15.8 14.2 15.933 11.267 16 10.467 16 10.2 16 8s0-2.467-.067-3.267C15.8 1.8 14.2.2 11.267.067 10.467 0 10.2 0 8 0Zm0 3.867C5.733 3.867 3.867 5.733 3.867 8S5.733 12.133 8 12.133 12.133 10.267 12.133 8 10.267 3.867 8 3.867Zm0 6.8A2.675 2.675 0 0 1 5.333 8c0-1.467 1.2-2.667 2.667-2.667 1.467 0 2.667 1.2 2.667 2.667 0 1.467-1.2 2.667-2.667 2.667ZM12.267 2.8c-.534 0-.934.4-.934.933 0 .534.4.934.934.934.533 0 .933-.4.933-.934 0-.533-.4-.933-.933-.933Z" fill="#46A358" fill-opacity=".6"/></svg>