<svg width="30" height="30" viewBox="0 0 30 30" fill="none" xmlns="http://www.w3.org/2000/svg">
<path d="M15 8.46667C17.1333 8.46667 17.4 8.46667 18.2667 8.53333C20.4667 8.6 21.4667 9.66667 21.5333 11.8C21.6 12.6667 21.6 12.8667 21.6 15C21.6 17.1333 21.6 17.4 21.5333 18.2C21.4667 20.3333 20.4 21.4 18.2667 21.4667C17.4 21.5333 17.2 21.5333 15 21.5333C12.8667 21.5333 12.6 21.5333 11.8 21.4667C9.6 21.4 8.6 20.3333 8.53333 18.2C8.46667 17.3333 8.46667 17.1333 8.46667 15C8.46667 12.8667 8.46667 12.6 8.53333 11.8C8.6 9.66667 9.66667 8.6 11.8 8.53333C12.6 8.46667 12.8667 8.46667 15 8.46667ZM15 7C12.8 7 12.5333 7 11.7333 7.06667C8.8 7.2 7.2 8.8 7.06667 11.7333C7 12.5333 7 12.8 7 15C7 17.2 7 17.4667 7.06667 18.2667C7.2 21.2 8.8 22.8 11.7333 22.9333C12.5333 23 12.8 23 15 23C17.2 23 17.4667 23 18.2667 22.9333C21.2 22.8 22.8 21.2 22.9333 18.2667C23 17.4667 23 17.2 23 15C23 12.8 23 12.5333 22.9333 11.7333C22.8 8.8 21.2 7.2 18.2667 7.06667C17.4667 7 17.2 7 15 7ZM15 10.8667C12.7333 10.8667 10.8667 12.7333 10.8667 15C10.8667 17.2667 12.7333 19.1333 15 19.1333C17.2667 19.1333 19.1333 17.2667 19.1333 15C19.1333 12.7333 17.2667 10.8667 15 10.8667ZM15 17.6667C13.5333 17.6667 12.3333 16.4667 12.3333 15C12.3333 13.5333 13.5333 12.3333 15 12.3333C16.4667 12.3333 17.6667 13.5333 17.6667 15C17.6667 16.4667 16.4667 17.6667 15 17.6667ZM19.2667 9.8C18.7333 9.8 18.3333 10.2 18.3333 10.7333C18.3333 11.2667 18.7333 11.6667 19.2667 11.6667C19.8 11.6667 20.2 11.2667 20.2 10.7333C20.2 10.2 19.8 9.8 19.2667 9.8Z" fill="#46A358" fill-opacity="0.6"/>
</svg>
