<svg width="150" height="35" fill="none" xmlns="http://www.w3.org/2000/svg"><g clip-path="url(#a)" fill="#46A358"><path d="M17.15 0C7.677 0 0 7.677 0 17.15c0 8.87 6.735 16.168 15.371 17.057-.521-4.294-.327-7.807.336-10.694-.372-1.79-1.217-4.443-3.134-6.327 0 0 1.262 1.892 1.945 4.435 0 .005.004.009.004.013a13.036 13.036 0 0 1 .364 1.908c-9.69-1.189-11.757-9.885-11.53-13.164 10.309.57 12.42 7.451 12.727 11.72 3.376-11.057 14.101-11.696 14.987-11.72.384 8.498-5.92 15.125-13.455 15.703.049-.23.105-.461.162-.688.016-.068.036-.133.056-.202.045-.161.09-.323.142-.485l.064-.21c.057-.178.118-.352.178-.53.017-.04.029-.08.045-.121.077-.21.157-.412.238-.614.008-.017.012-.037.02-.053h.005c1.932-4.674 5.498-7.734 5.498-7.734-6.998 4.043-8.179 14.554-8.365 18.78.493.044.987.076 1.492.076 9.473 0 17.15-7.677 17.15-17.15C34.3 7.677 26.623 0 17.15 0ZM46.704 10.745c2.268 0 4.12.975 5.32 2.754l-2.248 1.912c-.804-1.124-1.779-1.706-3.129-1.706-2.078 0-3.372 1.366-3.372 3.448 0 2.119 1.367 3.542 3.562 3.542 1.18 0 2.119-.412 2.717-1.104v-.582h-2.887v-2.773h6.11v3.897c-.583 1.031-1.408 1.856-2.475 2.49-1.067.619-2.268.938-3.598.938-3.712.057-6.78-2.83-6.728-6.408-.056-3.557 3.016-6.464 6.728-6.408ZM61.958 23.331l-2.79-3.84h-1.33v3.84h-3.222V10.968h4.851c2.753 0 4.779 1.686 4.779 4.253 0 1.517-.732 2.774-1.949 3.522l3.259 4.588h-3.598Zm-4.124-6.65h1.65c.897 0 1.48-.582 1.48-1.46 0-.877-.583-1.443-1.48-1.443h-1.65v2.903ZM66.834 10.968h8.579v2.903h-5.357v1.706h3.82v2.697h-3.82v2.155h5.583v2.902h-8.805V10.968ZM77.644 10.968h8.579v2.903h-5.357v1.706h3.82v2.697h-3.82v2.155h5.583v2.902h-8.805V10.968ZM99.42 10.968v12.59h-1.032l-6.707-6.501v6.274H88.46v-12.59h1.03l6.708 6.409v-6.182h3.222ZM103.264 19.135c.732.974 1.5 1.593 2.753 1.593.845 0 1.274-.3 1.274-.902 0-.541-.283-.711-1.257-1.144l-1.274-.562c-2.042-.901-3.129-2.062-3.129-3.727 0-2.192 1.799-3.655 4.326-3.655 2.041 0 3.485.974 4.233 2.49l-2.155 1.65c-.599-.898-1.16-1.31-2.042-1.31-.675 0-1.104.263-1.104.788 0 .449.263.696 1.068 1.01l1.423.6c2.155.9 3.165 1.984 3.165 3.727 0 2.397-1.968 3.86-4.536 3.86-2.227 0-4.026-1.067-4.928-2.773l2.183-1.645ZM112.393 10.968h3.222v4.516h4.516v-4.516h3.222v12.363h-3.222v-4.944h-4.516v4.944h-3.222V10.968ZM131.843 10.742c3.599-.077 6.764 2.866 6.687 6.408.073 3.578-3.088 6.464-6.687 6.408-3.614.056-6.727-2.83-6.65-6.408-.077-3.542 3.036-6.481 6.65-6.408Zm.017 2.96c-1.986 0-3.372 1.406-3.372 3.448 0 1.03.319 1.872.938 2.51.618.619 1.443.938 2.434.938 1.912 0 3.371-1.386 3.371-3.448.004-2.042-1.459-3.449-3.371-3.449ZM140.374 10.968h4.851c2.754 0 4.779 1.686 4.779 4.253 0 2.531-2.078 4.27-4.779 4.27h-1.629v3.84h-3.222V10.968Zm4.868 5.713c.897 0 1.479-.582 1.479-1.46 0-.877-.582-1.443-1.479-1.443h-1.65v2.903h1.65Z"/></g><defs><clipPath id="a"><path fill="#fff" d="M0 0h150v34.3H0z"/></clipPath></defs></svg>