<svg width="68" height="87" fill="none" xmlns="http://www.w3.org/2000/svg"><g clip-path="url(#a)" fill="#727272"><path d="M7.249 40.777c16.773-1.753 33.69.937 50.421-1.487.782-.115.448-1.298-.33-1.184-16.611 2.404-33.434-.299-50.091 1.442-.782.082-.79 1.31 0 1.229Z"/><path d="M7.085 39.573c-1.638.507-1.432 2.637-.564 3.767 1.423 1.851 4.62 1.892 6.706 1.696.785-.074.79-1.303 0-1.229-1.35.127-2.748.115-4.06-.27-.684-.2-1.404-.483-1.794-1.122-.202-.332-.589-1.462.04-1.655.758-.237.433-1.425-.328-1.187ZM54.782 39.675c.868-.053 1.707-.2 2.571-.316 1.37-.184 2.074.185 2.312 1.618.198 1.192-.555 1.54-1.616 1.876-.502.16-1.029.258-1.547.36a26.63 26.63 0 0 1-4.188.455c-.79.028-.794 1.257 0 1.228 2.406-.086 9.166-.176 8.902-3.964-.066-.946-.983-2.252-1.843-2.678-1.283-.64-3.283.11-4.595.192-.786.05-.79 1.278.004 1.229Z"/><path d="M9.055 44.773c-.169 2.6-3.13 4.071-4.702 5.857a16.793 16.793 0 0 0-2.909 4.746C-.07 59.07-.358 63.21.412 67.105c1.583 7.99 7.647 14.583 15.221 17.413.745.279 1.066-.909.33-1.183C8.095 80.395 1.982 73.027 1.3 64.578c-.325-4.013.527-8.19 2.777-11.569 1.868-2.801 5.978-4.595 6.212-8.236.05-.786-1.185-.786-1.234 0ZM55.823 44.25c0 3.23 2.357 5.258 4.756 7.064 2.06 1.548 3.657 3.055 4.673 5.483.885 2.11 1.374 4.386 1.485 6.667.404 8.392-4.492 16.18-12.017 19.846-.711.348-.09 1.409.622 1.06 6.99-3.403 11.918-10.32 12.576-18.068.333-3.919-.35-8.235-2.349-11.671-2.201-3.788-8.512-5.525-8.516-10.382.004-.79-1.23-.79-1.23 0Z"/><path d="M15.267 83.617c-.798 1.765.634 3.289 2.41 3.37 1.93.095 3.967-.352 5.9-.433 2.242-.099 4.484-.103 6.727-.07 8.368.127 16.731.762 25.062-.369.284-.036.428-.348.453-.593a4.284 4.284 0 0 0-.194-1.843c-.234-.754-1.423-.43-1.189.327.21.496.26 1.004.148 1.516.153-.197.3-.394.453-.594-6.496.88-13.05.66-19.583.454-3.167-.098-6.34-.188-9.507-.135a85.478 85.478 0 0 0-4.344.18c-.79.054-1.576.127-2.362.205-.58.057-3.797.553-2.913-1.405.325-.708-.736-1.33-1.061-.61ZM7.08 51.224c-5.027 6.155-5.418 14.747-.905 21.3.222.323.757.016.535-.312-4.348-6.31-4.048-14.608.81-20.558.243-.3-.189-.738-.44-.43ZM7.414 74.804c.403.582.864 1.118 1.378 1.605.288.27.724-.16.436-.434a9.783 9.783 0 0 1-1.284-1.478c-.222-.323-.757-.02-.53.307ZM10.865 78.338c.4 0 .4-.614 0-.614-.399 0-.399.614 0 .614ZM54.63 44.282c-.317 1.18-.589 2.367-.124 3.547.432 1.093 1.309 2.08 2.053 2.985 1.786 2.162 5.439 4.345 5.612 7.36.02.392.637.397.617 0-.128-2.257-1.798-3.703-3.337-5.169a30.3 30.3 0 0 1-2.78-3.022c-.577-.725-1.227-1.49-1.56-2.363-.407-1.06-.173-2.105.111-3.17.103-.385-.494-.549-.592-.168ZM62.438 59.599l.26 2.358c.04.39.661.393.616 0l-.259-2.358c-.041-.39-.658-.394-.617 0ZM62.496 63.575c.045.23.008.446-.079.66-.061.155.07.335.214.376.177.05.317-.061.379-.213a1.72 1.72 0 0 0 .078-.987c-.07-.385-.666-.221-.592.164ZM35.742 59.082c1.473-2.784 4.246-4.607 7.467-4.447 3.834.188 7.866 3.51 5.18 7.433-1.576 2.297-4.406 3.784-6.492 5.594-2.316 2.01-4.435 4.226-6.39 6.593-.501.607.367 1.479.873.869 2.978-3.608 6.348-6.66 10.05-9.51 2.473-1.908 5.209-4.803 3.707-8.157-1.242-2.777-4.673-4.14-7.566-4.059-3.406.098-6.327 2.097-7.898 5.062-.367.7.699 1.323 1.07.622Z"/><path d="M35.45 58.128c-2.637-2.953-5.928-5.995-10.198-5.774-3.168.164-5.895 2.555-6.352 5.705-.564 3.837 2.316 7.203 5.122 9.427 3.447 2.731 8.647 3.677 11.227 7.38.448.647 1.518.032 1.065-.619-1.608-2.31-3.95-3.497-6.434-4.693-3.16-1.52-6.274-3.399-8.306-6.331-2.267-3.264-1.893-8.256 2.501-9.452 4.3-1.167 7.92 2.338 10.5 5.225.53.594 1.402-.278.875-.868Z"/></g><g clip-path="url(#b)" fill="#46A358"><path d="M31.472 12.629c-1.189 2.153-3.003 3.878-5.332 4.771-.909.35-2.106.33-1.986-.913.074-.775.913-1.448 1.522-1.811 1.036-.62 2.365-.824 3.48-1.305.724-.314.099-1.37-.621-1.056-1.991.86-4.172 1.064-5.303 3.152-.605 1.117-.802 2.671.56 3.307 1.476.69 3.509-.424 4.734-1.207 1.704-1.084 3.04-2.565 4.007-4.322.387-.69-.678-1.31-1.061-.616Z"/><path d="M28.897 12.12c-1.498.162-2.983.17-4.468-.107a13.665 13.665 0 0 1-1.608-.408 9.9 9.9 0 0 1-1.296-.48c-.63-.792-.568-1.232.193-1.33 2.23-1.705 5.714.085 7.903.913.744.282 1.065-.9.329-1.178-1.905-.722-3.995-1.807-6.089-1.574-1.2.13-3.97.648-4.29 2.145-.74 3.466 7.536 3.441 9.326 3.246.781-.09.79-1.313 0-1.228Z"/><path d="M30.353 9.55c-1.872-1.472-3.534-3.764-3.443-6.247.04-1.105.748-1.574 1.773-1.077.563.274.954.97 1.263 1.497.715 1.231 1.016 2.638 1.28 4.02.147.771 1.336.445 1.188-.326-.395-2.063-.959-4.212-2.497-5.753-.91-.91-2.423-1.954-3.493-.73-2.5 2.858.774 7.682 3.057 9.48.617.486 1.497-.375.872-.864Z"/><path d="M32.385 7.756c.271-1.966 1.135-5.705 3.414-6.341 2.119-.587 1.91 2.79 1.317 3.907-.597 1.125-1.77 2.181-2.62 3.123-.527.583.34 1.452.871.865 1.222-1.354 3.049-2.908 3.312-4.812.206-1.476.094-3.707-1.547-4.36-1.497-.595-2.978.76-3.83 1.823-1.255 1.566-1.839 3.507-2.11 5.46-.107.78 1.082 1.114 1.193.335Z"/><path d="M35.454 9.465c1.435-1.191 4.101-2.019 5.854-.946 2.27 1.394-.947 2.23-2.008 2.3-1.135.077-2.27.008-3.398-.123-.785-.09-.781 1.134 0 1.223 1.843.213 4.332.486 6.047-.42 1.066-.562 1.831-1.924 1.177-3.07-.732-1.285-2.793-1.594-4.13-1.558-1.658.05-3.151.685-4.41 1.73-.613.505.263 1.37.868.864Z"/><path d="M35.585 11.879c1.271.465 2.534 1.166 3.258 2.348.905 1.485.926 4.217-1.707 3.707-2.316-.448-3.99-2.887-4.463-5.003-.173-.767-1.362-.445-1.19.326.42 1.884 1.47 3.548 3.041 4.702 1.234.909 3.402 1.994 4.854.962 1.493-1.06 1.493-3.254.819-4.763-.798-1.778-2.497-2.81-4.274-3.462-.757-.27-1.078.914-.338 1.183ZM23.104 15.247c-3.603 2.153-6.26 4.55-6.89 8.865-.687 4.686.411 9.583 1.415 14.146.168.77 1.357.444 1.189-.326-.889-4.037-1.798-8.221-1.522-12.376.3-4.53 2.67-7.006 6.425-9.249.683-.408.066-1.468-.617-1.06Z"/><path d="M39.008 13.864c5.04.392 8.606 4.404 9.96 9 1.472 5.004.65 10.272-.153 15.312-.123.771 1.066 1.101 1.19.326.937-5.912 1.88-12.192-.544-17.893-1.835-4.318-5.644-7.593-10.453-7.968-.794-.061-.79 1.162 0 1.223ZM24.326 17.783c-6.026 4.347-4.072 14.175-2.855 20.283.152.77 1.346.445 1.19-.326-.638-3.197-1.23-6.43-1.17-9.701.063-3.18.667-7.19 3.457-9.2.637-.46.024-1.52-.622-1.056ZM31.093 13.828c-2.242 3.421-3.69 7.246-4.216 11.3a25.878 25.878 0 0 0-.042 6.406c.276 2.324 1.029 4.559 1.308 6.883.091.77 1.33.783 1.235 0-.486-4.058-1.736-7.793-1.407-11.944.341-4.31 1.822-8.412 4.192-12.03.428-.66-.638-1.272-1.07-.615ZM34.109 17.608c1.839 3.01 2.225 6.414 2.546 9.852.334 3.576.605 7.156.835 10.74.05.784 1.284.788 1.234 0-.259-4.057-.55-8.114-.97-12.16-.33-3.176-.885-6.287-2.58-9.052-.411-.669-1.48-.057-1.065.62Z"/><path d="M39.724 18.179c4.595 5.73 4.747 13.045 4.583 20.026-.017.787 1.217.787 1.234 0 .173-7.365-.124-14.876-4.945-20.89-.494-.616-1.362.256-.872.864ZM31.953 19.671c-.07.274-.136.543-.206.816-.094.383.498.546.597.163.07-.273.136-.542.206-.816.094-.379-.498-.542-.597-.163ZM33.286 21.796v.917c0 .396.617.396.617 0v-.917c0-.396-.617-.396-.617 0ZM30.307 23.733c-.032.44-.07.885-.102 1.325-.03.392.588.392.617 0 .033-.44.07-.885.102-1.325.03-.392-.588-.392-.617 0ZM34.315 25.874v1.223c0 .395.617.395.617 0v-1.223c0-.396-.617-.396-.617 0ZM31.949 28.116v1.326c0 .395.617.395.617 0v-1.326c0-.395-.617-.395-.617 0ZM30.612 32.602v1.835c0 .396.617.396.617 0v-1.835c0-.396-.617-.396-.617 0ZM28.782 28.602c.07.407.144.815.213 1.223.066.387.663.224.597-.163-.07-.408-.144-.816-.214-1.223-.07-.384-.666-.22-.596.163ZM33.5 34.641c.032.408.07.816.102 1.223.033.392.65.392.618 0-.033-.407-.07-.815-.103-1.223-.033-.392-.654-.396-.617 0ZM35.347 30.053c.033.408.07.816.103 1.224.033.387.65.391.617 0-.033-.408-.07-.816-.103-1.224-.033-.391-.65-.395-.617 0ZM42.43 16.401c.478.412.955.824 1.432 1.232.3.257.737-.176.436-.433-.477-.412-.954-.823-1.431-1.231-.296-.257-.737.171-.436.432Z"/><path d="m42.69 19.806.806 1.435c.194.343.729.037.535-.31l-.806-1.435c-.197-.343-.728-.033-.535.31ZM45.162 20.006c.305.411.609.823.913 1.231.23.314.77.008.535-.31-.304-.412-.609-.824-.913-1.231-.235-.31-.77-.009-.535.31ZM46.685 25.34c.102.713.21 1.427.312 2.14.058.388.65.225.597-.163-.103-.713-.21-1.427-.313-2.14-.062-.388-.654-.22-.596.163ZM44.611 23.509l.309 1.019c.115.375.707.216.596-.163l-.308-1.02c-.115-.375-.712-.216-.597.164ZM47.882 31.175c.045.485.037.97-.042 1.451-.061.384.531.551.597.164a6.439 6.439 0 0 0 .066-1.615c-.041-.388-.659-.392-.621 0ZM46.45 33.112v1.121c0 .396.617.396.617 0v-1.121c0-.396-.617-.396-.617 0ZM47.088 22.893c.169.408.341.816.51 1.223.066.155.206.261.378.212.144-.036.28-.224.214-.375-.168-.408-.341-.815-.51-1.223-.066-.155-.205-.261-.378-.212-.144.037-.276.224-.214.375ZM45.935 29.951v.714c0 .396.618.396.618 0v-.714c0-.395-.617-.395-.617 0ZM47.17 36.782c-.017.29-.087.567-.194.836-.061.155.07.334.215.375.176.049.316-.061.378-.212.132-.322.197-.653.218-1 .025-.395-.592-.39-.617 0ZM21.29 18.884c-.21.302-.42.604-.633.906-.227.326.308.632.535.31.21-.302.42-.604.633-.906.222-.326-.313-.632-.535-.31ZM19.53 23.345c-.079.371-.153.742-.23 1.118-.08.383.513.55.596.163.078-.371.152-.742.23-1.118.078-.383-.518-.546-.597-.163ZM19.332 21.123a4.715 4.715 0 0 0-.732 1.41c-.124.376.473.535.596.164a4.35 4.35 0 0 1 .67-1.264c.24-.318-.3-.62-.534-.31ZM18.077 25.18c-.074.51-.152 1.016-.226 1.525-.057.384.539.55.597.164.074-.51.152-1.016.226-1.526.057-.387-.54-.554-.597-.163ZM18.694 28.116c-.053.51-.02 1.012.079 1.513.074.388.67.225.596-.163a4.503 4.503 0 0 1-.053-1.35c.033-.391-.585-.387-.622 0ZM19.2 31.99c.033.306.07.612.103.918.017.163.128.306.309.306.152 0 .329-.139.308-.306-.033-.306-.07-.612-.103-.918-.016-.163-.127-.305-.308-.305-.152 0-.325.138-.309.305ZM18.2 34.29c.24.388.412.795.52 1.24.094.383.686.22.596-.163a4.887 4.887 0 0 0-.58-1.387c-.21-.334-.74-.024-.535.31ZM19.517 36.863l.206.51c.062.151.205.261.378.212.148-.04.28-.22.214-.375l-.206-.51c-.061-.15-.205-.26-.378-.212-.144.037-.276.22-.214.375Z"/></g><defs><clipPath id="a"><path fill="#fff" transform="translate(0 38)" d="M0 0h68v49H0z"/></clipPath><clipPath id="b"><path fill="#fff" transform="translate(16)" d="M0 0h35v39H0z"/></clipPath></defs></svg>