<svg width="20" height="20" fill="none" xmlns="http://www.w3.org/2000/svg"><path d="M14.573 16.003c-3.998 3.183-9.585 2.303-12.545-1.349-2.856-3.525-2.677-8.61.421-11.83C5.651-.5 10.685-.944 14.335 1.785a8.903 8.903 0 0 1 2.92 3.724 8.83 8.83 0 0 1 .611 4.712c-.22 1.617-.866 3.057-1.916 4.402.085.055.175.095.24.16 1.155 1.15 2.305 2.302 3.46 3.451.273.272.409.59.328.972a.994.994 0 0 1-1.648.532c-.272-.244-.523-.514-.782-.772l-2.844-2.842c-.039-.038-.08-.073-.131-.12Zm1.387-7.016c.01-3.86-3.107-6.98-6.977-6.986A6.965 6.965 0 0 0 1.99 8.948a6.983 6.983 0 0 0 6.977 7.017c3.844.018 6.983-3.115 6.992-6.978Z" fill="#3D3D3D"/></svg>