<svg width="20" height="20" fill="none" xmlns="http://www.w3.org/2000/svg"><g clip-path="url(#a)"><path d="M14.294 16.875H8.241a4.692 4.692 0 0 1-4.687-4.687V7.384A7.106 7.106 0 0 0 .351 1.436a.781.781 0 1 1 .86-1.304A8.682 8.682 0 0 1 3.95 3.028c.144.161 1.301 1.388 3.198 1.388h8.995c2.454-.046 4.375 2.417 3.733 4.785l-1.035 4.127a4.68 4.68 0 0 1-4.546 3.547ZM4.919 5.537c.13.6.197 1.218.197 1.847v4.804a3.128 3.128 0 0 0 3.125 3.124h6.053a3.12 3.12 0 0 0 3.03-2.364l1.036-4.127c.381-1.407-.76-2.87-2.218-2.843H7.147a5.824 5.824 0 0 1-2.228-.441ZM7.85 19.023a.976.976 0 0 0-.976-.977c-1.296.052-1.295 1.902 0 1.953.54 0 .976-.437.976-.976Zm7.772 0a.976.976 0 0 0-.976-.977c-1.296.052-1.295 1.902 0 1.953.54 0 .976-.437.976-.976ZM16.923 8.32a.781.781 0 0 0-.781-.78H7.46c-1.037.04-1.036 1.52 0 1.561h8.682c.431 0 .781-.35.781-.78Z" fill="#46A358"/></g><defs><clipPath id="a"><path fill="#fff" d="M0 0h20v20H0z"/></clipPath></defs></svg>