<svg width="16" height="13" fill="none" xmlns="http://www.w3.org/2000/svg"><path d="M5.032 13.004c6.038 0 9.34-5.003 9.34-9.34 0-.143-.003-.284-.01-.425A6.681 6.681 0 0 0 16 1.54a6.549 6.549 0 0 1-1.885.517A3.295 3.295 0 0 0 15.559.24a6.58 6.58 0 0 1-2.085.797A3.283 3.283 0 0 0 7.88 4.031 9.32 9.32 0 0 1 1.115.6 3.28 3.28 0 0 0 2.13 4.983a3.26 3.26 0 0 1-1.487-.41v.042a3.284 3.284 0 0 0 2.633 3.218 3.286 3.286 0 0 1-1.483.056 3.287 3.287 0 0 0 3.067 2.28A6.587 6.587 0 0 1 0 11.53a9.293 9.293 0 0 0 5.032 1.475Z" fill="#46A358" fill-opacity=".6"/></svg>