<svg width="30" height="30" viewBox="0 0 30 30" fill="none" xmlns="http://www.w3.org/2000/svg">
<path d="M12.0319 21.0036C18.0699 21.0036 21.3718 16.0012 21.3718 11.6636C21.3718 11.5214 21.3689 11.38 21.3624 11.2392C22.0033 10.7759 22.5605 10.1976 23 9.53953C22.4118 9.80085 21.7789 9.97682 21.1149 10.0562C21.7926 9.64981 22.313 9.0067 22.5585 8.24021C21.9241 8.61636 21.2217 8.88969 20.4742 9.03709C19.8749 8.39908 19.0218 8 18.0779 8C16.2648 8 14.7946 9.4702 14.7946 11.2823C14.7946 11.54 14.8236 11.7904 14.8796 12.0308C12.1516 11.8938 9.73239 10.5874 8.11352 8.60125C7.83127 9.08622 7.66877 9.64999 7.66877 10.2511C7.66877 11.3899 8.24837 12.3953 9.12968 12.9836C8.59121 12.9671 8.08531 12.8189 7.64293 12.5729C7.6422 12.5866 7.6422 12.6004 7.6422 12.6148C7.6422 14.2047 8.77392 15.532 10.2758 15.8329C10.0001 15.908 9.71001 15.9484 9.41047 15.9484C9.19901 15.9484 8.99338 15.9273 8.79339 15.8893C9.21121 17.1933 10.4232 18.1425 11.8601 18.1693C10.7364 19.0499 9.32094 19.5745 7.78305 19.5745C7.51827 19.5745 7.25695 19.5594 7 19.529C8.45273 20.46 10.1777 21.0036 12.0319 21.0036Z" fill="#46A358" fill-opacity="0.6"/>
</svg>
