<svg width="19" height="14" fill="none" xmlns="http://www.w3.org/2000/svg"><path fill-rule="evenodd" clip-rule="evenodd" d="M15.165 4.43h.003-.003Zm-10.84-.073c2.593-.161 7.423-.161 10.017 0v.007c.063.633.088 1.477.088 2.655 0 1.163-.025 2.008-.086 2.646-2.648.105-7.373.105-10.021 0-.062-.632-.087-1.474-.087-2.646 0-1.178.025-2.022.088-2.655v-.007ZM15.241 9.61l-.005.001h.005ZM3.498 9.608H3.5h-.003ZM0 7.019c0 4.822.389 6.611 3.422 6.844 2.8.156 9.022.156 11.822 0 3.033-.155 3.422-2.022 3.422-6.844 0-4.822-.389-6.61-3.422-6.844-2.8-.233-9.022-.233-11.822 0C.39.408 0 2.197 0 7.019Zm3.498-2.588L3.5 4.43h-.003Zm6.284 4.308a1.923 1.923 0 1 1 0-3.44c1.417.709 1.417 2.731 0 3.44Z" fill="#46A358" fill-opacity=".6"/></svg>