<svg width="30" height="30" fill="none" xmlns="http://www.w3.org/2000/svg"><path fill-rule="evenodd" clip-rule="evenodd" d="M21.165 12.43h.003-.003Zm-10.84-.073c2.593-.161 7.423-.161 10.017 0v.007c.063.633.088 1.477.088 2.655 0 1.163-.025 2.008-.086 2.646-2.648.105-7.373.105-10.021 0-.062-.632-.087-1.474-.087-2.646 0-1.178.025-2.022.088-2.655v-.007Zm10.917 5.254-.005.001h.005Zm-11.744-.003H9.5h-.003ZM6 15.019c0 4.822.389 6.611 3.422 6.844 2.8.156 9.022.156 11.822 0 3.033-.155 3.422-2.022 3.422-6.844 0-4.822-.389-6.61-3.422-6.844-2.8-.233-9.022-.233-11.822 0C6.39 8.408 6 10.197 6 15.019Zm3.498-2.588.003-.001h-.003Zm6.284 4.308a1.923 1.923 0 1 1 0-3.44c1.417.709 1.417 2.731 0 3.44Z" fill="#46A358" fill-opacity=".6"/></svg>